<svg xmlns="http://www.w3.org/2000/svg" xmlns:xlink="http://www.w3.org/1999/xlink" width="217.691" height="93"><defs><linearGradient id="a" x1="-.147" y1=".281" x2="4.954" y2="1.999" gradientUnits="objectBoundingBox"><stop offset="0" stop-color="#2aa34f"/><stop offset=".433" stop-color="#3c979d"/><stop offset="1" stop-color="#e86ede"/></linearGradient><linearGradient id="b" x1="-1.771" y1="-.144" x2="6.208" y2="2.079" xlink:href="#a"/><linearGradient id="c" x1="-3.111" y1="-.379" x2="5.979" y2="1.835" xlink:href="#a"/><linearGradient id="d" x1="-2.841" y1="-.247" x2="3.812" y2="1.322" xlink:href="#a"/><linearGradient id="e" x1="-12.212" y1="-3.593" x2="9.416" y2="3.371" xlink:href="#a"/><linearGradient id="f" x1="-5.224" y1="-1.106" x2="2.755" y2="1.117" xlink:href="#a"/><linearGradient id="g" x1="-7.229" y1="-1.357" x2="2.005" y2=".867" xlink:href="#a"/><linearGradient id="h" x1="-1.776" y1="-.178" x2="1.493" y2=".956" xlink:href="#a"/></defs><path d="m1.7 33.545 2.106-.677V11.346l-1.971-.632A2.223 2.223 0 0 1 0 8.546a1.494 1.494 0 0 1 .514-1.174 2.061 2.061 0 0 1 1.409-.452h9.76a2.061 2.061 0 0 1 1.409.452 1.494 1.494 0 0 1 .514 1.174 2.285 2.285 0 0 1-1.882 2.254l-1.7.542v8.3h11.712v-8.3l-1.7-.542a2.279 2.279 0 0 1-1.882-2.258 1.494 1.494 0 0 1 .514-1.174 2.061 2.061 0 0 1 1.409-.452h9.8a1.981 1.981 0 0 1 1.388.452 1.468 1.468 0 0 1 .497 1.132 2.2 2.2 0 0 1-1.837 2.21l-1.961.635v21.523l2.1.677a3.23 3.23 0 0 1 1.343.7 1.633 1.633 0 0 1 .359 1.15 1.788 1.788 0 0 1-.559 1.377 2.256 2.256 0 0 1-1.588.518h-9.264a2.266 2.266 0 0 1-1.612-.542 1.779 1.779 0 0 1-.583-1.348 1.712 1.712 0 0 1 .359-1.174 3.069 3.069 0 0 1 1.343-.722l1.882-.632v-8.89H10.029v8.89l1.882.632a3.069 3.069 0 0 1 1.343.722 1.723 1.723 0 0 1 .359 1.174 1.762 1.762 0 0 1-.583 1.353 2.266 2.266 0 0 1-1.612.542H2.192a2.266 2.266 0 0 1-1.612-.546A1.776 1.776 0 0 1 0 35.4a1.617 1.617 0 0 1 .359-1.15 3.23 3.23 0 0 1 1.341-.705Z" transform="translate(0 13.561)" fill="url(#a)"/><path d="M112.093 41.086h-11.055q.585 6.271 6.77 6.273a11.542 11.542 0 0 0 3.069-.407 12 12 0 0 1 1.85-.407q1.533 0 1.533 1.626a2.1 2.1 0 0 1-.677 1.533q-2.123 2.123-7.492 2.12-5.324 0-8.258-2.91T94.9 40.678q0-5.686 3.114-8.98a10.7 10.7 0 0 1 8.213-3.338 8.846 8.846 0 0 1 6.611 2.413q2.367 2.413 2.368 6.881.001 3.433-3.113 3.432Zm-10.965-3.473h8.079q-.135-5.008-3.746-5.009a3.63 3.63 0 0 0-2.886 1.308 6.921 6.921 0 0 0-1.447 3.7Z" transform="translate(-61.878 -.477)" fill="url(#b)"/><path d="m158.4 47.9 1.94-.587v-14.12l-2.075-.452a1.746 1.746 0 0 1-1.671-1.806 1.794 1.794 0 0 1 .383-1.239 2.783 2.783 0 0 1 1.288-.7 16.991 16.991 0 0 1 4.512-.632 3.348 3.348 0 0 1 2.368.677 3.05 3.05 0 0 1 .7 2.254v1.264l.09.045a7.886 7.886 0 0 1 2.5-3.318 5.777 5.777 0 0 1 3.542-1.195 2.153 2.153 0 0 1 2.437 2.437 5.379 5.379 0 0 1-.677 2.886 1.936 1.936 0 0 1-1.626 1.084 3.757 3.757 0 0 1-1.015-.269 3.668 3.668 0 0 0-1.1-.269 4.273 4.273 0 0 0-3.518 1.806v11.55l2.165.587c1.143.331 1.716.946 1.716 1.85a1.765 1.765 0 0 1-.587 1.353 2.3 2.3 0 0 1-1.626.542h-9.249a2.308 2.308 0 0 1-1.626-.542 1.77 1.77 0 0 1-.587-1.353 1.617 1.617 0 0 1 .363-1.15 3.238 3.238 0 0 1 1.353-.703Z" transform="translate(-102.11 -.3)" fill="url(#c)"/><path d="M210.227 29.059V4.83l-1.806-.407a1.768 1.768 0 0 1-1.671-1.85 1.794 1.794 0 0 1 .383-1.239 2.786 2.786 0 0 1 1.284-.7 16.417 16.417 0 0 1 4.43-.634 3.862 3.862 0 0 1 2.753.766 3.862 3.862 0 0 1 .766 2.752v5.641c0 1.233 0 1.643-.028 2.993l.242-.242a8.194 8.194 0 0 1 5.776-2.075 7.925 7.925 0 0 1 6.428 2.776q2.325 2.776 2.323 8.01 0 6-3.339 9.318t-9.387 3.318c-3.007 0-4.8-.421-6.3-1.264a3.229 3.229 0 0 1-1.854-2.934Zm6.138-12.5v11.509a4.125 4.125 0 0 0 2.921.856q5.5 0 5.507-7.581a9 9 0 0 0-1.219-5.165 3.951 3.951 0 0 0-3.428-1.737 5.065 5.065 0 0 0-2.21.518 3.847 3.847 0 0 0-1.571 1.602Z" transform="translate(-134.79 18.092)" fill="url(#d)"/><path d="M292.111 8.662a3.7 3.7 0 0 0 3.789-3.791 3.558 3.558 0 0 0-3.7-3.7 3.7 3.7 0 0 0-3.791 3.791 3.558 3.558 0 0 0 3.7 3.7Z" transform="translate(-188.124 17.326)" fill="url(#e)"/><path d="M336.233 41.086h-11.055q.585 6.271 6.77 6.273a11.542 11.542 0 0 0 3.069-.407 12 12 0 0 1 1.851-.407q1.533 0 1.533 1.626a2.1 2.1 0 0 1-.677 1.533q-2.123 2.123-7.492 2.12-5.324 0-8.258-2.91t-2.935-8.234q0-5.686 3.114-8.98a10.7 10.7 0 0 1 8.213-3.338 8.846 8.846 0 0 1 6.611 2.413q2.367 2.413 2.368 6.881.002 3.431-3.112 3.43Zm-10.965-3.473h8.079q-.135-5.013-3.747-5.013a3.63 3.63 0 0 0-2.886 1.308 6.921 6.921 0 0 0-1.446 3.704Z" transform="translate(-207.868 -.477)" fill="url(#f)"/><path d="m388.675 45.822.5 1.4a8.231 8.231 0 0 0 3.473.587q3.609 0 3.611-2.348 0-1.761-4.1-3.069a25.572 25.572 0 0 1-2.617-.925 16.959 16.959 0 0 1-2.3-1.264 5.3 5.3 0 0 1-1.94-2.075 6.342 6.342 0 0 1-.632-2.91 5.884 5.884 0 0 1 2.548-4.985q2.548-1.869 7.288-1.871 4.6 0 5.955 1.353a3.261 3.261 0 0 1 .677 2.348v.224c0 .963-.014 1.6-.045 1.9a1.619 1.619 0 0 1-1.806 1.671c-.9 0-1.55-.556-1.94-1.671l-.452-1.308a9 9 0 0 0-3.114-.5q-3.159 0-3.159 1.985 0 1.579 4.06 2.89 1.58.5 2.641.946a14.787 14.787 0 0 1 2.323 1.284 5.5 5.5 0 0 1 1.916 2.12 6.546 6.546 0 0 1 .656 3 6.206 6.206 0 0 1-2.707 5.213q-2.708 2.009-7.626 2.009-4.873 0-6.318-1.443a3.261 3.261 0 0 1-.677-2.348v-.318c0-.963.014-1.6.045-1.9a1.618 1.618 0 0 1 1.806-1.671c.895.009 1.541.565 1.934 1.676Z" transform="translate(-250.833 -.477)" fill="url(#g)"/><path d="M301.185 63.142a14.1 14.1 0 0 0-8.89-1.15 3.453 3.453 0 0 1-2.527-.49 28.411 28.411 0 0 0-5.686-2.772.649.649 0 0 1 .076-1.243 15.763 15.763 0 0 1 5.365-.318.571.571 0 0 0 .283-1.094 14.927 14.927 0 0 0-10.26-.373 5.062 5.062 0 0 1-3.915-.376c-.093-.048-.183-.1-.273-.148a7.606 7.606 0 0 1-3.863-6.684l.017-16.1a3.862 3.862 0 0 0-.766-2.752 3.862 3.862 0 0 0-2.752-.766 17.629 17.629 0 0 0-4.692.632 2.77 2.77 0 0 0-1.288.7 1.806 1.806 0 0 0-.383 1.239q0 1.491 1.671 1.806l2.075.452v17.811a2.9 2.9 0 0 1-.021.345A13.339 13.339 0 0 1 262.2 59a2.576 2.576 0 0 1-1.6.839 19.149 19.149 0 0 0-4.457 1.153.893.893 0 0 0 .48 1.709c.356-.062.711-.114 1.067-.166a.434.434 0 0 1 .373.728 25.81 25.81 0 0 0-6.066 10.647.775.775 0 0 0 1.443.552 46.005 46.005 0 0 1 2.389-4.429.675.675 0 0 1 1.208.117c.121.331.235.666.342 1a.636.636 0 0 0 1.236-.273c-.062-.552-.142-1.1-.235-1.654a5.486 5.486 0 0 1 1.119-4.343 46.021 46.021 0 0 1 3.138-3.525.94.94 0 0 1 1.578.887 38.549 38.549 0 0 0-1.046 7.951.605.605 0 0 0 1.2.131 63.487 63.487 0 0 1 1.826-6.8.918.918 0 0 1 1.5-.383c.176.162.345.331.5.5a.347.347 0 0 0 .545-.425 12.139 12.139 0 0 0-.753-1.07 2.471 2.471 0 0 1-.383-2.441c.169-.425.432-1.025.711-1.643a2.555 2.555 0 0 1 3.691-1.115c.811.508 1.643 1.008 2.2 1.284a1.6 1.6 0 0 1 .867 1.819 11.362 11.362 0 0 0 .9 7.24.478.478 0 0 0 .911-.245 14.434 14.434 0 0 1 .5-5.21 2.206 2.206 0 0 1 2.824-1.46c.635.211 1.267.432 1.882.649l.014.007a4.575 4.575 0 0 1 2.054 1.55 21.506 21.506 0 0 1 3.718 8.358.713.713 0 0 0 1.409-.093 12.974 12.974 0 0 0-.6-5.192.648.648 0 0 1 .967-.746 38.88 38.88 0 0 1 9.663 8.842.571.571 0 0 0 .956-.615 30.2 30.2 0 0 0-5.948-7.992.7.7 0 0 1 .414-1.208 18.941 18.941 0 0 1 6.052.349.609.609 0 0 0 .396-1.142Z" transform="translate(-163.955 -.817)" fill="url(#h)"/><g transform="translate(160.879)"><path d="M55.67 51.268a1.74 1.74 0 0 0 .107-.25 4.962 4.962 0 0 0 .535-2.248.246.246 0 0 0-.357-.214 8.043 8.043 0 0 0-1.284.856c0-.071-.036-.107-.036-.178a.255.255 0 0 0-.428-.107l-.464.428c-.107.107-.214.25-.357.285s-.321 0-.5.036c-.071 0-.107.036-.178.036.036-.071.036-.143.071-.178.071-.178.143-.321.214-.5.178-.357.321-.713.5-1.07a.236.236 0 0 0-.321-.321c-.071.036-.178.107-.25.143a5.537 5.537 0 0 0-.25-2.176c.036-.25 0-.464-.285-.5a.458.458 0 0 0-.357.143.271.271 0 0 0-.143.071 15.377 15.377 0 0 0-1.142 1.427c-.214.321-.392.642-.571.963-.036-.178-.071-.392-.107-.571a12.768 12.768 0 0 0-.392-1.249.323.323 0 0 0-.571-.071c-.321.5-.678.963-.963 1.463a8.043 8.043 0 0 0-.392.785c-.071.178-.107.5-.357.5a.263.263 0 0 0-.25.321 3.515 3.515 0 0 0 .071.606c0 .321-.036.642-.036.963 0 .357-.036.713-.071 1.07a2.6 2.6 0 0 1-.606-.642 5.386 5.386 0 0 0-.785-1 2.289 2.289 0 0 0-1.106-.535 2.168 2.168 0 0 0-.678-.036h-.32c-.143 0-.25.071-.357.071a.255.255 0 0 0-.071.5 1.931 1.931 0 0 1 .821.785 8.454 8.454 0 0 1 .678 1.249 5.838 5.838 0 0 1 .357 1.356v.25a.7.7 0 0 0-.464.285c-.071.071 0 .178.071.25a.641.641 0 0 1 .214.321 3.75 3.75 0 0 1 .25.392c.143.25.285.464.428.714a2.366 2.366 0 0 0 1.142 1.142 5.6 5.6 0 0 0 .82.143 6.413 6.413 0 0 1 .785.214 4.576 4.576 0 0 1 1.427.892.286.286 0 0 0 .285.036 2.841 2.841 0 0 0 1.534-.428 4.808 4.808 0 0 0 1.427-1.249c.214-.25.392-.5.607-.785.143-.214.392-.5.321-.785-.036-.107-.107-.25-.214-.285a.124.124 0 0 0-.071-.036c.036-.036.071-.071.071-.107l.642-.856c.5-.642 1.035-1.213 1.534-1.855.286-.25.071-.571-.178-.464Z" fill="#9acf4d"/><path d="M54.421 53.516c.5-.642 1.035-1.213 1.534-1.855a.247.247 0 0 0-.285-.392 1.736 1.736 0 0 0 .107-.25 4.078 4.078 0 0 0 .5-1.926 8.964 8.964 0 0 1-2.212 3 1.187 1.187 0 0 1 .5-.036 22.138 22.138 0 0 1-3.032 3.032 4.785 4.785 0 0 1 .714.036 5.2 5.2 0 0 1-3.389 1.284 3.462 3.462 0 0 1-3-1.855c.178-.036.321-.071.5-.107a9.557 9.557 0 0 0-3.032-4.531h-.214c.036.036.071.107.143.107a1.931 1.931 0 0 1 .821.785 8.454 8.454 0 0 1 .678 1.249 5.84 5.84 0 0 1 .357 1.356v.25a.7.7 0 0 0-.464.285c-.071.071 0 .178.071.25a.642.642 0 0 1 .214.321 3.76 3.76 0 0 1 .25.392c.143.25.285.464.428.714a2.367 2.367 0 0 0 1.142 1.142 5.613 5.613 0 0 0 .821.143 6.433 6.433 0 0 1 .785.214 4.578 4.578 0 0 1 1.427.892.286.286 0 0 0 .285.036 2.841 2.841 0 0 0 1.534-.428 4.81 4.81 0 0 0 1.427-1.249c.214-.25.392-.5.606-.785.143-.214.392-.5.321-.785-.036-.107-.107-.25-.214-.285a.125.125 0 0 0-.071-.036c.036-.036.071-.071.071-.107.213-.29.468-.576.677-.861Z" fill="#769f35"/><path d="M28.734 60.972a5.281 5.281 0 0 1 .571-2.1.452.452 0 0 1 .821.107c.107.428.285.856.428 1.284l.321 1.07a6.636 6.636 0 0 0 4.816 3.425c-.143.642-.25 1.249-.392 1.891.036 0 .071.036.107.036.071-.107.178-.25.25-.357l.642-1.07a.492.492 0 0 1 .606-.285 4.966 4.966 0 0 0 .143 2.283c.071-.178.071-.357.143-.535.178-.571.357-1.142.535-1.748a.783.783 0 0 1 .749-.535 5.849 5.849 0 0 0 .785-.071 4.028 4.028 0 0 0 3.6-3.389c.071-.392.178-.821.25-1.213a2.791 2.791 0 0 1 .642-1.249A1.508 1.508 0 0 1 45 57.981c.535.036.821 0 1.427.036-.428-.357-.821-.178-1.213-.357.107-.321.5-.678.785-.606.606.143 1.249.214 1.855.392a6.558 6.558 0 0 1 2.711 1.391c.428.392.464.464.143 1.035a4.043 4.043 0 0 0-1.891-.785 14.145 14.145 0 0 0 1.035 1.035 1.981 1.981 0 0 1 .749 2.034 1.588 1.588 0 0 1-.571 1 3.4 3.4 0 0 0-1.356 1.784 10.894 10.894 0 0 1-.464 1.142 6.067 6.067 0 0 1-1.677 2.426 24.321 24.321 0 0 1-2.925 2.1 10.189 10.189 0 0 1-4.5 1.605 6.4 6.4 0 0 1-3.353-.606 10.1 10.1 0 0 1-2.676-1.891c-.821-.749-1.57-1.57-2.355-2.39-.036-.036-.071-.036-.107-.071-.107-.071-.214-.214-.321-.285-.036-.036-.107-.036-.178-.071a.779.779 0 0 1-.178-.143c-.107-.107-.178-.214-.285-.321a4.123 4.123 0 0 1-.678-1.57 9.589 9.589 0 0 1-.143-2.033 6.57 6.57 0 0 1-.1-1.86Z" fill="#c97dc0"/><path d="M28.699 61.65c.143.357.321.714.5 1.07a16.517 16.517 0 0 0 1.605 2.6 14.84 14.84 0 0 0 2.64 2.64 16.757 16.757 0 0 0 2.39 1.57 2.4 2.4 0 0 1-.107-.82 2.094 2.094 0 0 1 .357-1 2.98 2.98 0 0 0 .5 1.177 3.985 3.985 0 0 0 .678.678 7.009 7.009 0 0 0 2.676-.321.388.388 0 0 1-.036-.178 1.732 1.732 0 0 1 0-.606.985.985 0 0 1 .428-.571 1.078 1.078 0 0 1 .571-.178.7.7 0 0 1 .285.036 1.073 1.073 0 0 1 .392.214 1.554 1.554 0 0 1 .214.25c.036.071.071.107.071.178.071-.036.107-.071.178-.071.535-.25 1-.428 1.57-.678a6.232 6.232 0 0 0 2.5-1.641 4.549 4.549 0 0 0 .821-1.463 2.308 2.308 0 0 0 .143-.464c.036-.071.036-.107.071-.178v-.036c0-.036.036-.071.036-.107a3.391 3.391 0 0 1 .357-.606 5.942 5.942 0 0 1 .428-.571 4.234 4.234 0 0 0 .571-.821 1.706 1.706 0 0 0-.214-1.784 7.461 7.461 0 0 0-1.534-1.463 5.8 5.8 0 0 0-.606-.393 1.735 1.735 0 0 1 .428.036.035.035 0 0 1-.036-.036c.321.143.642.285.963.393.606.214 1.427.392 1.712-.357v-.031a5.212 5.212 0 0 1 1.177.785c.428.392.464.464.143 1.035a4.043 4.043 0 0 0-1.891-.785 14.162 14.162 0 0 0 1.035 1.035 1.949 1.949 0 0 1 .749 2 1.588 1.588 0 0 1-.571 1 3.454 3.454 0 0 0-1.356 1.748 10.894 10.894 0 0 1-.464 1.142 5.948 5.948 0 0 1-1.677 2.39 24.035 24.035 0 0 1-2.925 2.069 10.137 10.137 0 0 1-4.5 1.57 6.4 6.4 0 0 1-3.353-.607 10.861 10.861 0 0 1-2.676-1.855c-.821-.749-1.57-1.534-2.355-2.355-.036-.036-.071-.036-.107-.071-.107-.071-.214-.214-.321-.285-.036-.036-.107-.036-.178-.071a.778.778 0 0 1-.178-.143c-.107-.107-.178-.214-.285-.321a4.216 4.216 0 0 1-.678-1.534 9.42 9.42 0 0 1-.143-2c.002-.359.002-.787.002-1.215Z" fill="#af68aa"/><path d="M41.471 66.502c.036-.071.071-.178.143-.214.036-.036.071-.036.107-.071a.661.661 0 0 1 .25-.071.267.267 0 0 1 .178.036c.071.036.107.071.178.107a.781.781 0 0 1 .107.178.388.388 0 0 1 .036.178.214.214 0 0 1-.036.143c-.036.071-.071.178-.143.214-.036.036-.071.036-.107.071a.662.662 0 0 1-.25.071.267.267 0 0 1-.178-.036c-.071-.036-.107-.071-.178-.107a.78.78 0 0 1-.107-.178.388.388 0 0 1-.036-.178Z" fill="#af68aa"/><path d="M43.184 62.792a10.618 10.618 0 0 0 .642-2.141 3.694 3.694 0 0 1 .606-1.177 1.624 1.624 0 0 1 1.177-.571.965.965 0 0 1 .963.678 1.229 1.229 0 0 1-.143.714 8.914 8.914 0 0 1-3.139 3.675 5.623 5.623 0 0 1-.856.535 3.206 3.206 0 0 1-1.284.285c-.143 0-.321-.036-.321-.178s.143-.214.285-.214a3.138 3.138 0 0 0 2.07-1.606Z" fill="#d891d3"/><path d="M49.819 54.372c-.036-.107-.071-.178-.107-.285a2.111 2.111 0 0 0-.464-.535 1.974 1.974 0 0 0-.571-.357 1.915 1.915 0 0 0-1.07-.071 4.392 4.392 0 0 1 .963.392c.214.143.392.25.5.321a4.286 4.286 0 0 1 .428.392.893.893 0 0 1 .143.25.639.639 0 0 1 .178.25c0 .036.071 0 .071-.036-.071-.107-.035-.214-.071-.321Z" fill="#2b590c"/><path d="M52.958 52.124c0-.036.036-.071.036-.107v-.821a2.332 2.332 0 0 1 .321-1.07 6.216 6.216 0 0 1 .428-.5v-.036c-.107.107-.178.214-.321.25s-.321 0-.5.036c-.071 0-.107.036-.178.036.036-.071.036-.143.071-.178.071-.178.321-.143.392-.321.178-.357.25-.749.428-1.106.107-.214-.214-.571-.428-.464-.071.036-.178.107-.25.143a5.528 5.528 0 0 0-.143-2.176.463.463 0 0 0-.321-.5 7.729 7.729 0 0 1-.749 3.675c.25-.071.5-.178.749-.25a14.745 14.745 0 0 1-1.035 1.962 3.022 3.022 0 0 0 .607-.143 2.942 2.942 0 0 0-.714 1.142 1.76 1.76 0 0 1 1.5.428c.107.036.107 0 .107 0ZM50.534 49.556a.4.4 0 0 0 .036-.285.191.191 0 0 0-.178-.178.169.169 0 0 1-.178-.178.313.313 0 0 1 .036-.25 9.133 9.133 0 0 0 .178-.963c-.036.071-.071.107-.107.178-.036-.178-.071-.392-.107-.571a12.78 12.78 0 0 0-.392-1.249.381.381 0 0 0-.321-.214 7.149 7.149 0 0 1-.464 4.031.7.7 0 0 0 .535-.107 5.388 5.388 0 0 0-.178 1.855 2 2 0 0 1 .892-.178 4.854 4.854 0 0 1 .248-1.891Z" fill="#769f35"/><path d="M56.74 48.129c0-.036-.036-.071-.071-.107a.236.236 0 0 0-.25-.071c-.107.071-.25.107-.357.178-.071.036-.107.071-.178.107-.178.107-.357.178-.5.285l-.036.036a8.083 8.083 0 0 0-.571.428V48.7a.2.2 0 0 0-.143-.214.279.279 0 0 0-.285.036 7.247 7.247 0 0 0-.892.963.382.382 0 0 0-.214.071c.25-.5.5-1.035.714-1.534l.071-.178a.22.22 0 0 0-.036-.25.385.385 0 0 0-.25-.107 2.061 2.061 0 0 0-.5.178v-.143a3.439 3.439 0 0 0 0-.856 6.875 6.875 0 0 0-.036-.856 2.846 2.846 0 0 0-.107-.535c-.071-.178-.143-.428-.392-.464a.607.607 0 0 0-.25.036 3.1 3.1 0 0 0-.821.571 4.306 4.306 0 0 0-.749.856 4.242 4.242 0 0 0-.464.892 1.042 1.042 0 0 0-.071-.321 5.1 5.1 0 0 0-.606-1.463.293.293 0 0 0-.214-.143c-.071 0-.143 0-.178.071a6.8 6.8 0 0 0-1.712 3.139 1.5 1.5 0 0 0-.535-.25.2.2 0 0 0-.178.107.228.228 0 0 0 0 .214c0 .036 0 .036.036.071v.036a.125.125 0 0 0 .036.071 9.087 9.087 0 0 1 .071 1.391v.856c-.071-.143-.143-.25-.214-.392l-.214-.321a1.259 1.259 0 0 0-.321-.392 2.207 2.207 0 0 0-1-.642 3 3 0 0 0-2.783.357.33.33 0 0 0-.107.321.377.377 0 0 0 .214.25 1.658 1.658 0 0 1 .821.5 1.554 1.554 0 0 1 .214.25 8.984 8.984 0 0 1 .535.856 5.491 5.491 0 0 1 .5 1.07 2.967 2.967 0 0 1 .143.535c0 .071.036.178.036.25a2.631 2.631 0 0 0-.749 0 .168.168 0 0 0-.178.178c-.036.107.036.178.107.25a1.716 1.716 0 0 1 .392.321 1.281 1.281 0 0 1 .285.428c.071.178.178.321.25.5a4.253 4.253 0 0 0 .285.571 4.122 4.122 0 0 0 .713.892 2.261 2.261 0 0 0 .428.357.8.8 0 0 0 .5.214c.036 0 .071 0 .071-.036s.036-.036.036-.071a.856.856 0 0 0-.25-.428l-.036-.036c-.107-.143-.25-.285-.357-.428a4.511 4.511 0 0 1-.642-.963c-.036-.107-.107-.214-.143-.321a3 3 0 0 0-.535-.928h.071a.228.228 0 0 0 .214 0c.071-.036.107-.071.107-.143a2.817 2.817 0 0 0-.107-1.284 9.259 9.259 0 0 0-.571-1.249 10.872 10.872 0 0 0-.678-1.07 1.87 1.87 0 0 0-.357-.392h-.036a.035.035 0 0 1-.036-.036c-.036-.036-.071-.036-.107-.071a2.572 2.572 0 0 1 1.712.036 3.6 3.6 0 0 1 .535.25 2.693 2.693 0 0 1 .392.5l.071.143c.071.107.107.178.178.285a2.041 2.041 0 0 0 .143.25c.036.071.107.143.143.214l.036.036c.036.036.036.071.071.107l.107.214a2.978 2.978 0 0 0 .285.428l.107.107c.036 0 .036.036.071.036.036.036.036.036.071.036a.157.157 0 0 0 .178.036c.071-.036.107-.071.107-.143v-.749a6.3 6.3 0 0 0 0-.82v-.607c0-.357 0-.713-.036-1.07l.071.071a.278.278 0 0 0 .285.071c.071-.036.143-.071.143-.178a6.993 6.993 0 0 1 .571-1.784 8.223 8.223 0 0 1 .856-1.32 4.749 4.749 0 0 1 .357 1c.036.214.071.428.107.678 0 .107.036.178.036.25 0 .143-.036.285-.036.428-.036.178-.071.357-.107.5a.27.27 0 0 1-.036.143.131.131 0 0 1-.036.107v.036c0 .036-.036.036-.036.071a.225.225 0 0 0 0 .214.254.254 0 0 0 .214.107.515.515 0 0 0 .25-.071c-.071.214-.143.392-.214.606-.178.5-.321 1.035-.464 1.534l-.071.214.143-.178a5.357 5.357 0 0 0 .535-.82v.178c0 .107.036.214.036.285v.214a.077.077 0 0 0 .071.071.077.077 0 0 0 .071-.071v-.076a1.79 1.79 0 0 1 .071-.428c0-.071.036-.107.036-.178a.84.84 0 0 0 .071-.285l.107-.642.036-.143c.071-.214.321-.856.143-1a.279.279 0 0 0-.178-.071.2.2 0 0 0-.178.071l-.036.036v-.036c0-.036.036-.107.036-.143.071-.214.107-.393.178-.607l.107-.321v-.036a.035.035 0 0 1 .036-.036 5.6 5.6 0 0 1 .5-.892 5.992 5.992 0 0 1 .642-.749 3.8 3.8 0 0 0 .392-.321c.036 0 .071-.036.107-.036a.111.111 0 0 0 .071-.036.125.125 0 0 0 .036.071l.036.071.107.321h.036l-.036.036a5.344 5.344 0 0 1 .071.785c0 .285-.036.571-.036.856v.321a1.336 1.336 0 0 0-.036.285c0 .107 0 .214.071.25s.143 0 .357-.107a1.184 1.184 0 0 1 .214-.107c.036 0 .036-.036.071-.036a9.177 9.177 0 0 1-.856 1.641v.036a.185.185 0 0 0-.071.143c-.036.071 0 .178.071.178.071.036.107 0 .178-.036a.035.035 0 0 0 .036-.036 1.721 1.721 0 0 1 .535-.143.625.625 0 0 0-.178.143 3.5 3.5 0 0 0-.392.392c-.178.214-.285.392-.535.749a.124.124 0 0 0-.036.071.492.492 0 0 0-.107.143 1.652 1.652 0 0 1-.25.25l-.178.178.214-.107a1.443 1.443 0 0 0 .321-.178 3.336 3.336 0 0 0 .678-.571 3.071 3.071 0 0 0-.036.571v.285a.27.27 0 0 0 .036.143c0 .071.036.107.036.178a.077.077 0 0 0 .071.071.077.077 0 0 0 .071-.071c0-.071.036-.143.036-.214a.125.125 0 0 1 .036-.071 1.545 1.545 0 0 1 .036-.178v-.107l.107-.535c.036-.178.107-.357.143-.535.036-.071.036-.143.071-.214.036-.036.036-.071.071-.107a1.017 1.017 0 0 1 .285-.25c.036-.036.071-.036.071-.071a.279.279 0 0 0 .143-.143v-.107a.191.191 0 0 0-.107-.143 2.3 2.3 0 0 1 .321-.285c0 .107.036.178.036.25.036.107.071.178.178.178a.184.184 0 0 0 .25-.107 3.26 3.26 0 0 1 1.391-.963 3.811 3.811 0 0 1-.749 2.569.173.173 0 0 0 0 .25.325.325 0 0 0 .285.143.214.214 0 0 0 .143-.036c-.178.25-.392.464-.571.678l-.357.357a12.608 12.608 0 0 0-1.32 1.819.216.216 0 0 0 .036.285.271.271 0 0 0 .143.071 8.16 8.16 0 0 0-.571.821l-.036.071a2.974 2.974 0 0 1-.285.428l-.036.071c-.143.178-.25.321-.357.464a4.5 4.5 0 0 1-1.32.963 5.163 5.163 0 0 1-.749.285c-.071.036-.143.036-.178.071-.071.036-.143.036-.214.071h-.071c-.107.036-.178.036-.25.107l-.036.036.107.036a2.465 2.465 0 0 0 .357.143c.036 0 .036.036.071.036l.036.036c.107 0 .178-.036.25-.036a3.2 3.2 0 0 0 .856-.25 4.587 4.587 0 0 0 1.427-.963 8.048 8.048 0 0 0 .963-1.284l.071-.107.214-.321c.107-.143.178-.285.25-.392a3.551 3.551 0 0 1 .5-.535l.071-.071c.071-.036.071-.107.071-.178a.237.237 0 0 0-.178-.143h-.036a.214.214 0 0 0-.143-.036h-.143a10.952 10.952 0 0 1 1-1.249 2.31 2.31 0 0 0 .285-.321 3.992 3.992 0 0 0 .928-1.356.278.278 0 0 0-.071-.286.216.216 0 0 0-.285 0 3.8 3.8 0 0 0 .428-1.534 1.883 1.883 0 0 0 .036-.464v-.25a.214.214 0 0 1 .036-.143c-.031-.209-.031-.316-.066-.459Z" fill="#2b590c"/><path d="M51.068 58.586c-.214-.143-.357-.285-.428-.321a11.735 11.735 0 0 0-1.356-.749c-1.427-.606-3.639-1.213-4.1-.785a1.224 1.224 0 0 0-.285.428.483.483 0 0 0 0 .321 3.055 3.055 0 0 1-.464.107 9.243 9.243 0 0 0-.856.357 2.822 2.822 0 0 0-1.356 2.033 13.879 13.879 0 0 1-.321 1.677 2.131 2.131 0 0 1-1.106 1.427 3.874 3.874 0 0 1-1.641.535 2.779 2.779 0 0 0-1.748.571c-.071.036-.143.107-.214.071a5.013 5.013 0 0 1-1.926-.214c-.392-.178-.821-.285-1.213-.464a4.838 4.838 0 0 1-2.069-1.712 13.138 13.138 0 0 1-1.249-2.319 2.234 2.234 0 0 1-.143-.5c-.071-.285-.107-.5-.143-.678-.143.178-.321.321-.464.5a7.318 7.318 0 0 0 2.854 4.745 6.6 6.6 0 0 0 2.854 1.177c-.143.642-.25 1.249-.392 1.855.036 0 .071.036.107.036.071-.107.178-.25.25-.357l.642-1.07a.492.492 0 0 1 .607-.285 4.815 4.815 0 0 0 .14 2.243c.071-.178.071-.357.143-.535l.535-1.712a.783.783 0 0 1 .749-.535 5.834 5.834 0 0 0 .785-.071 4.029 4.029 0 0 0 3.6-3.353c.071-.392.178-.821.25-1.213a2.791 2.791 0 0 1 .642-1.249 1.508 1.508 0 0 1 1.249-.535c.535.036 1.106.036 1.712.071a4.79 4.79 0 0 0-1.32-.606.465.465 0 0 1 .606-.357c.606.143 1.249.214 1.855.392a6.558 6.558 0 0 1 2.711 1.391c.428.392.464.464.143 1.035a4.043 4.043 0 0 0-1.891-.785 14.159 14.159 0 0 0 1.035 1.035 1.949 1.949 0 0 1 .749 2 1.588 1.588 0 0 1-.571 1 3.454 3.454 0 0 0-1.356 1.748 10.9 10.9 0 0 1-.464 1.142 5.949 5.949 0 0 1-1.677 2.39 24.042 24.042 0 0 1-2.925 2.069 10.138 10.138 0 0 1-4.5 1.57 6.4 6.4 0 0 1-3.353-.607 10.86 10.86 0 0 1-2.676-1.855c-.464-.464-1.142-1.106-2.462-2.462-.285-.285-.5-.535-.678-.678a5.267 5.267 0 0 0 .036.749 18.1 18.1 0 0 0 2.854 3.1 11.787 11.787 0 0 0 2.569 1.712 6.732 6.732 0 0 0 4.852.607 17.843 17.843 0 0 0 6.243-3.175 7.973 7.973 0 0 0 2.6-3.532c.107-.285.25-.606.357-.892a3.487 3.487 0 0 1 1-1.284 2.549 2.549 0 0 0 .821-3.068l-.107-.214a5.274 5.274 0 0 0 .285-.464 1.157 1.157 0 0 0-.381-1.458Z" fill="#730173"/><path d="M42.862 27.662Z"/><path d="M32.802 82.047a.159.159 0 0 0 0-.178c-.785-3.924-2.141-7.706-2.6-11.7a20.661 20.661 0 0 1-.143-3.318.311.311 0 0 0-.214-.285 2.034 2.034 0 0 1 .036-.464c.071-.143.178-.285.25-.428a1.527 1.527 0 0 1-.178-.749 2.071 2.071 0 0 1 .107-.464c.036-.107.071-.25.107-.357a9.239 9.239 0 0 0 .25-1.962 2.68 2.68 0 0 1 .143-1.177c-.214.071-.428.143-.785.25.214-.25.428-.464.606-.678a3.508 3.508 0 0 1-.178-.571 3.239 3.239 0 0 1-.107-.821c-.036 0-.036.036-.071.036a8.706 8.706 0 0 0 .357-.856 1.256 1.256 0 0 0-.25-1.391.325.325 0 0 0-.428 0 8.739 8.739 0 0 1-7.278 2.1A14.319 14.319 0 0 0 20 58.642a25.01 25.01 0 0 1-2.676-1.57 9.349 9.349 0 0 1-2.783-2.89 2.944 2.944 0 0 1-.428-.963l.107-.321a.987.987 0 0 0 .036-.321v-.571a1.493 1.493 0 0 1 .392-.642.468.468 0 0 0-.428-.749c-.178.036-.321.071-.5.107a18.188 18.188 0 0 0-5.316 1 2.617 2.617 0 0 0-1.855 2.1 8.157 8.157 0 0 0 .678 5.423c0 .036.036.036.071.071l1.5-2.033c.143-.178.25-.321.392-.5v.571a3.6 3.6 0 0 0-.25.535 7.08 7.08 0 0 0-.428 3.746c.107.606.25 1.213.357 1.784.036.285.071.571.107.892v.821a31 31 0 0 1-.428 3.6c-.071.428-.107.821-.143 1.249-.036.143-.036.285-.071.392a7.1 7.1 0 0 0-.107 1.748v.071a5.727 5.727 0 0 0 0 1.106c.036.678.107 1.391.178 2.069.178 2.462.178 4.959.535 7.42a18.3 18.3 0 0 0 .785 3.353c.036.107.071.178.107.285a4.417 4.417 0 0 0 .5 1.356 14.1 14.1 0 0 0 .785 1.213 11.092 11.092 0 0 0 .821 1 2.854 2.854 0 0 0 .464.464 2.456 2.456 0 0 0 .464.392 4.787 4.787 0 0 0 2.64.464c.928 0 1.819-.036 2.747-.107a48.385 48.385 0 0 0 6.814-.285c1.427-.143 2.818-.392 4.245-.606a4.189 4.189 0 0 0 2.6-1.605 4.862 4.862 0 0 0 1.07-2.033 4.755 4.755 0 0 0 .107-1 27.415 27.415 0 0 0-.287-3.631Z" fill="#c97dc0"/><path d="M6.4 53.768a3.353 3.353 0 0 1 .642-1.427 3.218 3.218 0 0 1 1.32-.928 16.068 16.068 0 0 1 5.316-.785c.178-.036.321-.071.5-.107a.468.468 0 0 1 .428.749c-.071.071-.143.178-.214.25a7.448 7.448 0 0 0-1.284.143c-.678.107-1.356.214-2.034.357-.642.107-1.249.25-1.855.392a.822.822 0 0 0-.321.107 1.693 1.693 0 0 0-.714.535 7.367 7.367 0 0 1 1.035-.25 5.784 5.784 0 0 1 1.035-.071c1.534 0 1.891-.143 3.924-.107a.7.7 0 0 1-.036.25 3.367 3.367 0 0 1-.107.321 1.793 1.793 0 0 0 .178.464c-.036 0-.071.036-.107.036a2.307 2.307 0 0 0-.464.143 2.476 2.476 0 0 0-.464.178 1.15 1.15 0 0 0-.5.285 1.266 1.266 0 0 0-.321.143 4.592 4.592 0 0 0-1.07.785c-.143.143-.285.25-.428.392a.639.639 0 0 1-.25.178 4.327 4.327 0 0 0-.5.357 7.518 7.518 0 0 0-.892.963c-.036.036-.071.107-.107.143v-.571a6.094 6.094 0 0 0-.392.5 11.23 11.23 0 0 0-1.249 2.426 3.3 3.3 0 0 1-.321-.464 5.654 5.654 0 0 1-.892-2.319 8.146 8.146 0 0 1 .144-3.068Z" fill="#af68aa"/><path d="M8.863 52.342a5.255 5.255 0 0 1 2.141-.821 15.332 15.332 0 0 1 3.924-.178c.25.178.535.321.785.5-.464.036-1.106.036-1.891.107-1.641.107-2.462.143-2.747.214a8.127 8.127 0 0 0-2.925.856.27.27 0 0 0-.143.036 10.03 10.03 0 0 1 .856-.714ZM28.913 60.367a17.94 17.94 0 0 0 1.106-1.784 1.724 1.724 0 0 0 .285-1.106 1.2 1.2 0 0 0-.321-.642 1.492 1.492 0 0 1 .285-.428 1.3 1.3 0 0 1 .285-.321 2.263 2.263 0 0 1 .535 1.177 2.483 2.483 0 0 1-.606 1.819 3.93 3.93 0 0 1-1.569 1.285Z" fill="#730173"/><path d="M7.865 51.235a18.765 18.765 0 0 1 3.425-.963 19.641 19.641 0 0 1 2.1-.25c.606-.036 1.142 0 1.57 0-.036.214-.036.428-.071.642-.963-.036-1.784 0-2.39.036a13.683 13.683 0 0 0-4.031.892 2.546 2.546 0 0 0-1.213.785 2.662 2.662 0 0 0-.606 1.32 8.705 8.705 0 0 0-.071 3.032 8.22 8.22 0 0 0 1.463 3.353 5.065 5.065 0 0 1-2.1-2.747 6.359 6.359 0 0 1-.143-.928 9.323 9.323 0 0 1 .214-2.818 2.712 2.712 0 0 1 1.853-2.354Z" fill="#730173"/><path d="M13.002 91.288c0 .428.036.5.357.5 1.356.107 2.676.25 4.031.357.749.036 1.534 0 2.283 0 1.249 0 2.5.036 3.782-.036a26.031 26.031 0 0 0 5.244-.642c.392-.107.785-.25 1.177-.357a.718.718 0 0 0 .285-.143.27.27 0 0 0 .071-.143c-.036-.071-.071-.143-.143-.143-.071-.036-.178-.178-.25-.143a12.985 12.985 0 0 1-3.282.606 56.177 56.177 0 0 1-6.493.464 50.588 50.588 0 0 1-5.209-.071 17.732 17.732 0 0 0-1.853-.249Z" fill="#c97dc0"/><path d="M8.328 70.204a7.1 7.1 0 0 0-.107 1.748v.071a5.728 5.728 0 0 0 0 1.106c.036.678.107 1.391.178 2.069.178 2.462.178 4.959.535 7.42a18.3 18.3 0 0 0 .785 3.354c.036.107.071.178.107.285a2.973 2.973 0 0 0 .143.535 5.237 5.237 0 0 0 .321.535 4.8 4.8 0 0 0 1.07 1.142 9.7 9.7 0 0 0 2.925 1.891 18.164 18.164 0 0 0 3.389.321c.285 0 .606.036 1.249.036.571 0 2 .071 3.032.071 2.925.036 2.569-.178 5.708-.178a5.274 5.274 0 0 0 2.355-.285 4.644 4.644 0 0 0 2.069-1.712 4.087 4.087 0 0 0 .678-1.605 2.833 2.833 0 0 1-.785.678c-.143.071-.285.178-.428.25-.036-.036-.036-.071-.071-.107s-.071-.107-.143-.143a.27.27 0 0 0-.143-.071h-.036c-.036 0-.071-.036-.107-.036s-.071-.036-.107-.036h-.285a.507.507 0 0 0-.214.071c-.036.036-.107.036-.143.071-.036 0-.036.036-.071.071a.357.357 0 0 0-.143.178V88.041a1.545 1.545 0 0 0-.036.178 1.214 1.214 0 0 0 .036.357 5.215 5.215 0 0 1-.714.178 17.109 17.109 0 0 1-6.029.143 19.924 19.924 0 0 1-5.53-1.534c-.285-.143-.606-.25-.892-.392.036-.036.071-.036.107-.071a1.187 1.187 0 0 0 .464-1.284 2.479 2.479 0 0 0-.178-.464.962.962 0 0 0-.25-.285 1.31 1.31 0 0 0-.714-.321 1.1 1.1 0 0 0-.749.143 1.676 1.676 0 0 0-.321.214 3.1 3.1 0 0 0-.321.392 1.739 1.739 0 0 0-.143.392v.143a8.308 8.308 0 0 1-.928-.606c-1.32-.928-2.747-2.248-2.925-3.96a.786.786 0 0 1 .036-.285 13.242 13.242 0 0 1-.571-1.677 19.021 19.021 0 0 1-.571-3.746c-.036-.392-.036-.749-.036-1.142a3.377 3.377 0 0 1 .071-1.035c0-.071-.036-.143-.036-.214a4.37 4.37 0 0 1-.071-.678 7.036 7.036 0 0 1 .071-1.5c.178-1.035.392-2.1.678-3.139a32.764 32.764 0 0 1 1-3.175c.071-.178.143-.357.214-.571.036-.071.036-.143.071-.214 0-.036.036-.071.036-.143v-.071c.107-.357.178-.749.25-1.106a3.932 3.932 0 0 0 .071-.642v-.535c0-.107-.036-.178-.036-.285 0-.036-.036-.107-.036-.143v-.071a.035.035 0 0 0-.036-.036l-.107.321a8.343 8.343 0 0 1-.856 1.57c-.321.464-.678.928-1 1.427a8.553 8.553 0 0 0-.678 1.035 8.942 8.942 0 0 1-.571 1.641c-.071.571-.178 1.142-.25 1.712-.071.428-.107.821-.143 1.249a.878.878 0 0 0-.138.393Z" fill="#af68aa"/><path d="M33.658 82.797a9.051 9.051 0 0 0-.25-1.57 48.894 48.894 0 0 0-1.427-5.03c-.5-1.641-.785-2.462-.856-2.818a31.463 31.463 0 0 1-.749-6.778c0-.642 0-1.249.036-1.891 0-.321.036-.642.036-.963v-1.035c0-.036-.036-.036-.036 0l-.214.856a7.217 7.217 0 0 0-.143.928c-.071.571-.143 1.142-.178 1.748a31.909 31.909 0 0 0 .107 3.425 50.788 50.788 0 0 0 1.784 8.633 25.875 25.875 0 0 1 .928 3.246 16.893 16.893 0 0 1 .214 3.96 5.62 5.62 0 0 1-.107 1 5.086 5.086 0 0 1-1.07 2.033 4.042 4.042 0 0 1-2.6 1.605c-1.391.214-2.818.428-4.245.606a49.3 49.3 0 0 1-7.956.25 26.407 26.407 0 0 1-3.318-.25c-.392-.071-.678-.107-.892-.143a9.2 9.2 0 0 1-1.5-1.57 11.29 11.29 0 0 1-1.398-2.532 11.47 11.47 0 0 1-.714-3.211 8.211 8.211 0 0 0 .143 3.425l.143.5a9.336 9.336 0 0 0 2.747 3.817 1.9 1.9 0 0 0 .178 1.249.111.111 0 0 0 .036.071 3.792 3.792 0 0 0 .5.107 41.863 41.863 0 0 0 8.669.535s5.53 0 8.74-1.284c.071-.036.571-.214.571-.5a.973.973 0 0 0-.143-.606v-.107c.071-.036.143-.107.214-.143a5.746 5.746 0 0 0 2.5-3.139 4.678 4.678 0 0 0 .25-1.855 20.549 20.549 0 0 0 0-2.569Zm-3.5 8.17a.717.717 0 0 1-.285.143c-.392.107-.785.25-1.177.357a25.715 25.715 0 0 1-5.244.642c-1.249.071-2.5.036-3.782.036-.749 0-1.534.036-2.283 0-1.356-.071-2.676-.214-4.031-.357-.321-.036-.357-.107-.357-.5.606.071 1.213.107 1.819.178a50.167 50.167 0 0 0 5.173.214c2.176 0 4.388-.214 6.564-.428a12.663 12.663 0 0 0 3.282-.571.452.452 0 0 1 .214-.036c.071.036.107.107.143.143a.157.157 0 0 1-.032.179Z" fill="#730173"/><path d="m18.139 84.83.107-.107c.036 0 .071-.036.107-.036a.452.452 0 0 1 .214-.036h.107a.185.185 0 0 1 .143.071l.107.107a.27.27 0 0 1 .071.143.159.159 0 0 1 0 .178l-.036.107a.124.124 0 0 1-.036.071c0 .036-.036.071-.071.107l-.071.071c-.071.036-.107.071-.178.071h-.107c-.036 0-.071-.036-.107-.036s-.071-.036-.107-.071l-.071-.071c0-.036-.036-.071-.036-.107 0-.036-.036-.071-.036-.107v-.143c-.072-.105-.036-.14 0-.212Z" fill="#af68aa"/><path d="M31.839 83.689a2.96 2.96 0 0 1-.571 1.962 1.28 1.28 0 0 1-1.819.214 1.688 1.688 0 0 1-.25-1.5c.25-1.427.892-2.818.892-4.281a1.976 1.976 0 0 1 .071-.642c.392-1.32 1.106.428 1.213.82a11.034 11.034 0 0 1 .464 3.427ZM14.036 56.301a.874.874 0 0 0 .178.714 3.986 3.986 0 0 0 1.926 1.57 4.991 4.991 0 0 0 1.605.357 2.323 2.323 0 0 0 1.213-.036 1.2 1.2 0 0 0-.5-.178 8.31 8.31 0 0 1-.892-.25 9.582 9.582 0 0 1-2.319-1.213 5.343 5.343 0 0 1-1.211-.964Z" fill="#d891d3"/><path d="M4.69 73.877c.107-1.284.25-2.6.321-3.889a21.511 21.511 0 0 0 .036-3.032 4.4 4.4 0 0 1 .357-2.248c.107-.25.214-.464.321-.713.963-1.819 1.962-3.639 2.925-5.458a11.894 11.894 0 0 0 .714 4.888 8.34 8.34 0 0 0 .25 1.605c.036.107.036.214.071.321a3.931 3.931 0 0 1 .071.642 13.954 13.954 0 0 1-.357 2.069 17.316 17.316 0 0 0-.285 1.962 16.111 16.111 0 0 0-.071 2.283c0 .392.036.785.071 1.142.036.178.036.357.071.535v.25a.185.185 0 0 1-.071.143c0 .036-.036.036-.036.071-.036.036-.036.036 0 .036-.036.178-.357.25-.428.071-.178.107-.285.357-.464.464a1.358 1.358 0 0 1-.606.285 2.069 2.069 0 0 0-1.605.606c-.25.25-.5.357-.571.714-.071.464-.143.963-.178 1.427a.131.131 0 0 1 .107.036c.178-.392.321-.82.5-1.213a1.6 1.6 0 0 1 1-.892c-.678 1.391-.821 4.352-.214 4.852a.035.035 0 0 0 .036-.036v-.214a14.411 14.411 0 0 1 .285-3.282 1.821 1.821 0 0 1 .678-1.213c.535-.392 1.035-.82 1.605-1.177a3.23 3.23 0 0 1 1.035-.357 1.365 1.365 0 0 1 1.5.714 15.373 15.373 0 0 1 .785 1.748c.25.785.464 1.605.642 2.426a57.09 57.09 0 0 1 1 5.565c.071.428.071.856.143 1.284-.464.036-.856.036-1.249.107a12.225 12.225 0 0 1-2.283.071 6.014 6.014 0 0 1-2.711-.821 7.164 7.164 0 0 1-3.246-4.78 24.134 24.134 0 0 1-.149-6.992Z" fill="#c97dc0"/><g fill="#af68aa"><path d="M13.466 85.19c-.357.036-.785.071-1.177.143a1.546 1.546 0 0 1-.178.036c-.107 0-.214.036-.285.036-.25 0-.5.036-.749.036-.464 0-.928.036-1.391 0a.7.7 0 0 1-.285-.036c-.036 0-.071 0-.071-.036-.214-.036-.464-.107-.678-.143l-.321-.107a.74.74 0 0 1-.214-.071l-.143-.071a.9.9 0 0 1-.25-.143c-.214-.107-.392-.25-.571-.357h-.036c-.071-.071-.178-.143-.25-.214l-.963-.963a1.692 1.692 0 0 0-.856-.464c-.071-.107-.107-.214-.178-.321a6.724 6.724 0 0 1-.678-2.64 26.088 26.088 0 0 1 0-5.779 45.9 45.9 0 0 0 .285-6.636 5.611 5.611 0 0 1 .603-2.97 1.267 1.267 0 0 0 .143-.321c.321-.607.606-1.177.928-1.784.178-.321.357-.606.5-.928.071-.107.107-.178.178-.285.428-.749.821-1.534 1.213-2.283a5.883 5.883 0 0 1 1.391-1.82 5.427 5.427 0 0 0 .642-.5 4.014 4.014 0 0 0 .678-.785 24.132 24.132 0 0 0-1.534 3.032c-.214.535-.571 1.391-1.249 3.139-.821 2.069-.892 1.855-1.142 2.747a13.575 13.575 0 0 0-.392 3.175 2.7 2.7 0 0 1-.036.535.516.516 0 0 1 .25-.071c.678 0 .963.963.606 1.463a.687.687 0 0 1-.892.214c-.036 0-.036-.036-.071-.036-.036.464-.107.892-.143 1.356-.036.428-.143.928-.178 1.356v.214a1.267 1.267 0 0 1-.071.357c-.036.25-.071.5-.107.713a13.574 13.574 0 0 0-.214 2.1 5.445 5.445 0 0 0 .107 1.07 7.128 7.128 0 0 1-.357.749c-.036.678-.036 1.391-.071 2.069.321-.5.642-1 .963-1.463.107-.143.178-.285.285-.428 0 .285.036.535.036.821a.778.778 0 0 0 .178.143 2.843 2.843 0 0 0 1.962.5c.678-.107 1-.571 2.069-1.213.571-.321 1.142-.571 1.677-.892a5.369 5.369 0 0 0 .606-.357c.071.285.178.571.25.856a58.976 58.976 0 0 1 1.249 6.065 9.138 9.138 0 0 1 .107 1.391 3.059 3.059 0 0 0-1.175-.199Z"/><path d="M7.437 67.099a.41.41 0 0 1 0 .821.41.41 0 0 1 0-.821Z"/></g><path d="M4.048 74.092a42.132 42.132 0 0 0 .285-7.028 5.311 5.311 0 0 1 .107-1.5 5.84 5.84 0 0 1 .606-1.712c1.249-2.5 2.141-3.96 2.783-5.244.036-.071.178-.321.357-.642a6.079 6.079 0 0 1 2-2.248c.5-.321 1-.678 1.5-1a2.4 2.4 0 0 1 .535-.214.125.125 0 0 0 .036.071c-.285.25-.535.535-.821.785a14.259 14.259 0 0 1-1.106.963 7.777 7.777 0 0 0-1.57 2c-1.037 1.891-2.037 3.783-3.037 5.673-.107.214-.214.464-.321.714a4.4 4.4 0 0 0-.357 2.248 21.511 21.511 0 0 1-.036 3.032c-.071 1.284-.214 2.6-.321 3.889a25.748 25.748 0 0 0 .178 7.028 7.246 7.246 0 0 0 3.246 4.781 6.014 6.014 0 0 0 2.711.821 8.126 8.126 0 0 0 2.283-.071c.392-.036.785-.071 1.249-.107a13.995 13.995 0 0 0-.143-1.284c-.285-1.855-.571-3.71-1-5.565a26.65 26.65 0 0 0-.642-2.426 10.922 10.922 0 0 0-.785-1.748 1.414 1.414 0 0 0-1.5-.714 3.23 3.23 0 0 0-1.035.357c-.571.357-1.07.785-1.605 1.177a1.977 1.977 0 0 0-.678 1.213 14.411 14.411 0 0 0-.285 3.282v.214a.035.035 0 0 0-.036.036c-.642-.535-.571-3.5.107-4.852a1.458 1.458 0 0 0-.892.892 12.331 12.331 0 0 0-.5 1.213.131.131 0 0 1-.107-.036c.071-.464.107-.963.178-1.427a1.767 1.767 0 0 1 .464-.928 2.2 2.2 0 0 1 1.712-.642.694.694 0 0 0 .285-.036c.143-.036.25-.107.25-.143.285-.214.642-.357.928-.571a11.581 11.581 0 0 1-.321-2.6 20.493 20.493 0 0 1 .928-5.672 1.594 1.594 0 0 0 0-1 13.281 13.281 0 0 1-.285-2.034c-.036-.392 0-.82 0-1.213h.143c.25 1 .464 1.962.714 3 .25-.107.285-.321.357-.5.285-.785.535-1.605.785-2.39a1.447 1.447 0 0 0 .107-.357c.036.178.107.25.107.321a10.83 10.83 0 0 1-.459 2.808 5.244 5.244 0 0 1-.5.749c-.071.107-.143.178-.178.25a16.37 16.37 0 0 0-.856 3.568 18.21 18.21 0 0 0 0 4.852 3.168 3.168 0 0 1 1.284-.143c-.107-.143-.214-.321-.321-.464l.036-.036a.9.9 0 0 1 .25.143 7.89 7.89 0 0 1 1.855 2.069 9.846 9.846 0 0 1 .856 2.355 64.715 64.715 0 0 1 1.32 6.35 6.946 6.946 0 0 1-.428 4 .251.251 0 0 1-.178.143q.054-.749.107-1.605a12.579 12.579 0 0 1-2.6.285 11.24 11.24 0 0 1-1.641-.143 6.032 6.032 0 0 1-2.569-.928 9.848 9.848 0 0 1-2.818-3.354 7.355 7.355 0 0 1-.642-2.6 24.994 24.994 0 0 1-.076-6.105Z" fill="#730173"/><path d="M30.09 4.41a5.611 5.611 0 0 0 .321-.821c.071-.285-.107-.392-.285-.464-.214-.107-.071-.464 0-.678a6.394 6.394 0 0 0 .25-1.819c0-.214-.214-.321-.321-.178a20.191 20.191 0 0 0-1.534 1.855 1.116 1.116 0 0 0-.357-.178c-.107-.036-.214.036-.25.178-.25.714-.5 1.427-.785 2.1-.178-.036-.321.036-.392.285a.869.869 0 0 0 .143.785c.071.107.178.214.25.321a1.6 1.6 0 0 0 .214.428.393.393 0 0 0 .321.107h.785a.391.391 0 0 0 .285 0c.036 0 .036.036.071 0a.971.971 0 0 0 .571-.285 3.233 3.233 0 0 0 .571-.392c.214-.143.036-.535-.178-.392-.036 0-.036.036-.071.036v-.031a9.127 9.127 0 0 0 .391-.857Z" fill="#83ad3a"/><path d="M27.807 6.479a.452.452 0 0 0 .214-.036h.25c.214-.749.428-1.5.642-2.212l.107-.428h-.036c-.392.856-.785 1.784-1.177 2.676Z" fill="#2b590c"/><path d="M29.413 6.015Z" fill="#171c14"/><path d="M30.055 5.052c.178-.5.357-1 .5-1.5.036-.107.036-.214.071-.285.107-.464.071-.535-.285-.606.071-.571.143-1.142.178-1.712 0-.143.036-.285.036-.428 0-.464-.25-.678-.571-.392a15.134 15.134 0 0 0-1.07 1.07 7.858 7.858 0 0 0-.428.571c-.036-.036-.071-.036-.107-.071-.214-.143-.285-.143-.392.107-.214.428-.392.856-.571 1.284-.107.25-.178.5-.25.714-.107.036-.25 0-.321.071a.27.27 0 0 0-.071.143c0 .143-.036.321-.036.464v.214l.107.107a.945.945 0 0 1 .178.214 2.7 2.7 0 0 1 .036-.535c.321.036.357.036.428-.321.036-.071.036-.178.071-.25a9.555 9.555 0 0 1 .642-1.677c.285.285.321.285.571-.071.178-.285.392-.571.606-.856a2.885 2.885 0 0 1 .86-.746v.21a11.959 11.959 0 0 1-.285 1.926.589.589 0 0 0 0 .428c.036.107.214.143.357.214q-.375.963-.749 2.033c.143 0 .25.036.392.036l-.036.036-.036.036-.043.036c-.036.036-.036.071-.071.107-.036.071-.107.107-.143.178l-.071.071-.036.036c-.036.036-.071.071-.071.107-.036.071 0 .107.036.178a.153.153 0 0 0 .25.036l.036-.036h.143a.035.035 0 0 1 .036-.036 2.5 2.5 0 0 0 .291-.356l.107-.214c0-.036.036-.071.036-.107-.004-.25-.043-.319-.325-.428Z" fill="#2b590c"/><path d="M9.184 19.357c-.107 0-.214-.036-.285-.036a1.473 1.473 0 0 0-1.605 1.962 4.1 4.1 0 0 0 .5.963c.214.321.25.321.606.178a2.586 2.586 0 0 1 2.176.143 2.145 2.145 0 0 1 .464.321c0 .036-.036.036-.036.071-.214-.036-.392-.107-.606-.143a3.173 3.173 0 0 0-3.139 1.427 5.417 5.417 0 0 0-.606 4.673c.036.107.071.25.107.357a4.765 4.765 0 0 0 .821 2.176 2.68 2.68 0 0 0 .856.821 3.89 3.89 0 0 0 .392.214 5.523 5.523 0 0 0 1.356.749c-.5.25-.892 0-1.284-.071-1.177 2.069.428 5.03 3.246 5.637a1.585 1.585 0 0 1-1.249.178 1.925 1.925 0 0 0 .143 2.569c.178-.214.357-.428.535-.606s.321-.428.606-.5c-.285.535-.535 1.106-.821 1.641a2.952 2.952 0 0 0-.214 1.748c.571.214 1.142.392 1.748.606a1.448 1.448 0 0 1 .749-1.07 2.8 2.8 0 0 0 .392 2.854 3.452 3.452 0 0 0 2.495 1.429 2.4 2.4 0 0 1-1.391.178c-.071.749.428 1.177.963 1.57a1.467 1.467 0 0 1-1.534-.892 1.5 1.5 0 0 1-.143-.535.658.658 0 0 0-.464-.714c-.392.357-.821.714-1.213 1.07a5.05 5.05 0 0 0 1.782 3.319 3.257 3.257 0 0 1-1.5-.606 1.9 1.9 0 0 0 .036 1.855 7.273 7.273 0 0 0 2.464 2.746 25.334 25.334 0 0 0 6.743 3.175 4.653 4.653 0 0 0 3.032-.071 15.834 15.834 0 0 0 3.032-1.463 5.14 5.14 0 0 0 2.283-3.1 4.709 4.709 0 0 0 .214-1.391.426.426 0 0 0 .178-.321.346.346 0 0 0-.464-.25 4.122 4.122 0 0 0 2.248-.25 4.406 4.406 0 0 0 1.106-.678 4.259 4.259 0 0 0 1.284-1.748 2.341 2.341 0 0 0 .357-.606 8.249 8.249 0 0 0 .214-.963 5.753 5.753 0 0 1 .214-.606c.178-.5.25-.749.428-.785h.071c.571-.678 1.177-1.391 1.748-2.069a8.448 8.448 0 0 0 .678-3.461 7.211 7.211 0 0 0-.178-1.641 5.887 5.887 0 0 0 .749-2.069 4.756 4.756 0 0 0 .036-1.213 1.6 1.6 0 0 0-.036-.392 3.032 3.032 0 0 0-.143-.785 5.1 5.1 0 0 0-.571-1.07 5.619 5.619 0 0 0 1.539-3.359 5.822 5.822 0 0 0-.749-3.461 2.929 2.929 0 0 0 .678-2.034 2.934 2.934 0 0 0-.535-1.962 3.636 3.636 0 0 0-2.141-2.1c.464-.178.678.036 1.142.178a3.839 3.839 0 0 0-.535-2.64 7.249 7.249 0 0 1-2.569 1.534c.036.321.036.357.071.678-.392-.392-.25-.606-.785-.892-.071.107-.107-.143-.178-.036a10.6 10.6 0 0 0-.285-1.534c-.143-.606-.535-.821-.963-1.32.642 0 .821.392 1.177.963.428-.642 1.035-1.534 1.463-2.141.036-.036.036-.107.071-.107.071-.071-.036.107.036.107s.143.107.178.178c.036.178.071.321.107.571a8.883 8.883 0 0 0 1.142-.714.487.487 0 0 0 .143-.392 8.973 8.973 0 0 0-1.57-5.676 9.34 9.34 0 0 0-1.784-2.141 6.363 6.363 0 0 0-3.853-1.459 6.808 6.808 0 0 0-3.568.678c-.107.071-.25.107-.464.214a1.692 1.692 0 0 1 .642-.678c.214-.143.464-.285.714-.428a3.192 3.192 0 0 0-3.924-.571 4 4 0 0 1 1.106 2.141.946.946 0 0 1-.178-.214 11.817 11.817 0 0 0-1.427-1.57 6.244 6.244 0 0 0-4.852-1.534 4.211 4.211 0 0 0-3.461 2.283 3.3 3.3 0 0 0-.357 1.32 1.331 1.331 0 0 1 1.177.5 1.749 1.749 0 0 0-1.677.464.809.809 0 0 0-.25.642 3.3 3.3 0 0 1 3.1 1.213c.392.678.749.928.678 1.748-.107-.214 0-.214-.107-.392a3.4 3.4 0 0 0-2.462-1.819 2.141 2.141 0 0 0-1.605.321 2.681 2.681 0 0 0-1.32 1.712c-.036.214-.143.428-.214.678-.571-1.07-.071-2.319 1.213-3.139v-.714a2.993 2.993 0 0 0-1.855.071 5.831 5.831 0 0 0-1.819 1.07 10.886 10.886 0 0 0-2.39 2.711 5.419 5.419 0 0 0-.571 4.566 7.339 7.339 0 0 0 .749 1.712 1.762 1.762 0 0 1 1.752.249Zm2.925-4.174c.036-.178.071-.428.321-.464.214-.036.25.178.321.321a11.487 11.487 0 0 0 1.5 2.141l.357.357a2.368 2.368 0 0 0 .036-.464.431.431 0 0 1 .25-.464.39.39 0 0 1 .464.178 3.461 3.461 0 0 1 1.142 2.39c0 .107.036.25.036.357a2.987 2.987 0 0 1 1.677.071.27.27 0 0 1-.143.071 5.732 5.732 0 0 0-2.355 1.106 1.96 1.96 0 0 0-1 1.463c0 .071-.071.143-.143.25a1.79 1.79 0 0 1-.107-1.284 9.961 9.961 0 0 1-1.32-.5 1.717 1.717 0 0 1-.571-.428.42.42 0 0 1 .071-.678c.107-.107.285-.178.357-.25-.25-.678-.535-1.284-.714-1.891a4.48 4.48 0 0 1-.178-2.282Z" fill="#9acf4d"/><path d="m43.29 29.704-.642-.071c.036-.071.036-.143.071-.178a3.891 3.891 0 0 0 .606.178c-.035-.001-.035.035-.035.071Z"/><path d="M10.075 44.259c.107.214.178.321.25.5-.892.107-1.712.25-2.569.357 0 .25.071.392 0 .535a.515.515 0 0 1-.392.25 9.156 9.156 0 0 0-2.141.821 1.334 1.334 0 0 0-.25.214 3.6 3.6 0 0 0 1.427.606 8.042 8.042 0 0 0 1.284.214c.535.071.571.107.464.642a10.891 10.891 0 0 0 2.141-.214 1.041 1.041 0 0 1 .321-.071c.428-.107.428-.107.642.321a21.1 21.1 0 0 0 2.426-1.5c-.143-.25-.285-.5-.428-.714a28.4 28.4 0 0 1-4.174.321c0-.036 0-.036-.036-.071.178-.036.321-.107.5-.143 1-.214 2-.392 2.961-.606a1.764 1.764 0 0 0 .464-.143.7.7 0 0 0-.392-.821 8.686 8.686 0 0 0-2.1-.535c-.04-.07-.289.037-.398.037Z" fill="#83ad3a"/><path d="M8.864 37.517c-.25-.464-.5-1-.714-1.427a2.582 2.582 0 0 0-2.6 2.533 6.432 6.432 0 0 0 .285 1.391 2.338 2.338 0 0 0 2.533 1.962 6.84 6.84 0 0 0 2.033-.392 2.485 2.485 0 0 1-.178-2.818c-.5-.606-1.712-.428-2.212-.143a.576.576 0 0 0-.25.642c.071.392.178.785.25 1.177-.143.071-.214-.071-.285-.178a2.028 2.028 0 0 1-.571-1.213c-.109-.821.424-1.213 1.709-1.534ZM39.402 40.157a4.317 4.317 0 0 0 1.784.107 2.115 2.115 0 0 0 1.712-1.142 4.739 4.739 0 0 0 .214-3.139 1.426 1.426 0 0 0-.5-.785 3.338 3.338 0 0 0-1.962-.821c-.392-.036-.571.25-.785.464.107.321.143.713.25 1.035.785.178 1.57.321 1.641 1.284a1.494 1.494 0 0 1-.892 1.32 7.03 7.03 0 0 0 .25-.928c.071-.5-.036-.606-.5-.785a5.511 5.511 0 0 0-.535-.143 3.284 3.284 0 0 1-1.142 2.248c.179.429.322.892.465 1.285Z" fill="#9acf4d"/><path d="M35.94 51.466c-.285-.178-.606-.357-.856-.5-.285.285-.606.571-.892.892.357.606.678 1.142 1 1.712-.036.036 0 .036 0 .071l-1.284-1.5-1.32.606.321.963c.178 0 .357-.071.464 0a.806.806 0 0 1 .285.392c.25.392.464.821.714 1.213.178-.107.321-.285.428-.285.143 0 .285.143.392.25.535.464 1.035.963 1.534 1.427.214.178.5.464.749.642 0-.107.178-.285.178-.357a12.544 12.544 0 0 0-1.07-2.462c-.25-.428-.107-.357.392-.464.036 0 .071-.214.143-.214-.143-.25-.357-.535-.535-.785a21.23 21.23 0 0 0-.821-1.07c-.321-.246-.214-.246.178-.531ZM3.084 20.178a17.994 17.994 0 0 0 3.817 2.1c-.178-.5-.107-.963-.535-1.213a4.644 4.644 0 0 1-.642-.535c-.25-.214-.392-.714-.821-.642a1.544 1.544 0 0 1-.571-.036c-.963-.5-2-.892-2.961-1.391a3.211 3.211 0 0 1-.499-.245c.107.178.143.285.214.392.571.749 1.177 1.5 1.748 2.248.214.285.392.535.143.928.285.178.571.357.821.5.214.143.464.214.714.357.5.25.535.357.285.892a5.635 5.635 0 0 0 1.891.107c.107 0 .178-.107.25-.178.143-.143.25-.285.392-.428a11.447 11.447 0 0 1-4.246-2.856ZM9.649 7.371c.606.285 1.177.535 1.748.785a.507.507 0 0 0 .214.071 2.508 2.508 0 0 1 1.748.392c.178-.178.321-.357.5-.535a6.882 6.882 0 0 0-3.1-2.319c-1.249-.464-2.5-.892-3.782-1.32a8.027 8.027 0 0 0-.856-.285.125.125 0 0 1-.036.071c.285.214.535.428.856.642.928.606 1.891 1.213 2.818 1.784.143.071.321.143.321.357s-.214.25-.357.285ZM39.794 15.006l-.535.428a7.561 7.561 0 0 1-2.569 1.284c-.357.107-.428 0-.571-.321-.357.606-.785 1.32-1.177 1.962.464.071.678-.178 1.142-.25a5.094 5.094 0 0 1-.963 1 5.48 5.48 0 0 1 .428.464 8.326 8.326 0 0 0 4.245-4.567ZM34.157 6.515c.392.357.714.642 1.035.928a.277.277 0 0 0 .357.071c.428-.143.963-.214 1.32-.321.071-.25 0-.535.071-.714.178-.464.357-.928.5-1.427a6.011 6.011 0 0 0 .071-.892c-.143.107-.178.107-.214.178a3.955 3.955 0 0 1-1.142.892c-.428.214-.821.464-1.249.714-.249.178-.499.392-.749.571ZM40.365 29.882a2.973 2.973 0 0 0 .036-.428c0-.285-.036-.321-.036-.571a1.886 1.886 0 0 1 .071-.571c.143 0 .285.036.428.036a1.338 1.338 0 0 0 .357-.036 1.233 1.233 0 0 0 .428-.107.646.646 0 0 1 .571-.036.516.516 0 0 1 .25-.071h.178a.7.7 0 0 1 .285-.036.622.622 0 0 1 .428.214.271.271 0 0 1 .071.143h.107a1.1 1.1 0 0 1 .428.178c.071.071.25.143.285.25l.036.036-.036.036c.036.071-.071.107-.036.178.107.036.178.071.285.107a8.043 8.043 0 0 1 .785.392 4.883 4.883 0 0 1 1.356 1.035.22.22 0 0 1-.214.357.748.748 0 0 1-.392-.143c-.036-.036-.036-.071-.071-.107-.571-.071-1.07-.107-1.605-.178-.285-.036-.571-.036-.678.321a8.032 8.032 0 0 0-.785-.178c-.071 0-.143-.036-.214-.036a1.453 1.453 0 0 1-.214.392c-.143.25-.214.392-.25.392-.285.143-.535-.357-1.177-.5-.036 0-.214-.071-.428-.143a.584.584 0 0 1-.357-.535.641.641 0 0 0 .108-.391ZM37.19 8.406c-.357 0-.928-.036-1.356-.036.178.214.464.535.642.714.285-.178.535-.428.785-.571-.036 0-.071-.072-.071-.107Z" fill="#83ad3a"/><path d="M18.103 19.715a5.732 5.732 0 0 0-2.355 1.106 1.96 1.96 0 0 0-1 1.463c0 .071-.071.143-.143.25a1.79 1.79 0 0 1-.107-1.284c-.464-.178-.928-.321-1.356-.535a1.717 1.717 0 0 1-.571-.428.42.42 0 0 1 .071-.678c.107-.107.285-.178.357-.25-.25-.678-.535-1.284-.714-1.891a4.642 4.642 0 0 1-.143-2.319c.036-.178.071-.428.321-.464.214-.036.25.178.321.321a11.486 11.486 0 0 0 1.5 2.141l.357.357a2.367 2.367 0 0 0 .036-.464.431.431 0 0 1 .25-.464.39.39 0 0 1 .464.178 3.461 3.461 0 0 1 1.142 2.39c0 .107.036.25.036.357a2.987 2.987 0 0 1 1.677.071c-.071.107-.107.143-.143.143Zm-4.816.535c.428.143.856.285 1.249.392a.473.473 0 0 0 .535-.178c.285-.25.606-.464.928-.749a3.529 3.529 0 0 0-.892-2.141c-.036.178-.071.285-.107.428-.071.321-.25.428-.535.25a1.6 1.6 0 0 1-.469-.36c-.428-.5-.821-1.035-1.213-1.534-.036-.071-.071-.107-.178-.285v.392a9.221 9.221 0 0 0 .785 2.5c.285.606.285.606-.285.963l-.107.107a2.894 2.894 0 0 1 .289.215Z" fill="#2b590c"/><path d="M13.037 20.036c.071.071.143.178.25.214.428.143.856.285 1.249.392a.473.473 0 0 0 .535-.178c.285-.25.606-.464.928-.749a3.529 3.529 0 0 0-.89-2.139c-.036.178-.071.285-.107.428-.071.321-.25.428-.535.25a1.6 1.6 0 0 1-.464-.357c-.428-.5-.821-1.035-1.213-1.534-.036-.071-.071-.107-.178-.285v.392a9.22 9.22 0 0 0 .785 2.5c.285.606.285.606-.285.963-.003.032-.003.067-.075.103Z" fill="#83ad3a"/><path d="M17.176 52.322a3.732 3.732 0 0 1 3.318 3.425c.464-.464.464-.927 0-2.176.571-.357 1.32-.143 2.212.642.036-1.035-1.463-1.712-2.676-1.213a2.658 2.658 0 0 0-2.854-.678Z" fill="#2b590c"/><path d="M13.715 9.511a3.563 3.563 0 0 1 3.318 1.035 5.043 5.043 0 0 1 3.746-2.212 5.68 5.68 0 0 1 4.352 1 2.4 2.4 0 0 1 .5.535c.071-.143.178-.285.25-.428a8.239 8.239 0 0 1 1.106-1.391 5.2 5.2 0 0 1 2.64-1.249 7.646 7.646 0 0 1 4.281.428 7.135 7.135 0 0 0-7.028-.428c-.107.071-.25.107-.464.214.178-.357.428-.428.678-.606.214-.143.464-.25.678-.392a3.6 3.6 0 0 0-4.249-.542c.535.606.963.856 1.07 1.712-.071-.071.178.178.143.107a9.7 9.7 0 0 0-1.427-1.534 6.217 6.217 0 0 0-4.886-1.565 4.462 4.462 0 0 0-3.567 2.28 3.4 3.4 0 0 0-.357 1.463c.428.036.749-.107 1.07.357-.678-.107-1.106-.107-1.534.357a1.053 1.053 0 0 0-.32.859Zm2.176-2.462a.642.642 0 0 1 .071-.571c.036-.036.071-.107.107-.143.071-.107.143-.178.214-.285a4.056 4.056 0 0 1 .571-.535 2.229 2.229 0 0 1 .785-.357c.107-.036.214-.036.357-.071a1.36 1.36 0 0 1 .535.036.318.318 0 0 1 .178.392c-.036.036-.036.071-.107.107a1.667 1.667 0 0 1-.357.178c-.107.036-.214.107-.321.143h-.036c-.036.036-.036 0 0 0l.036-.036c-.036 0-.036.036-.071.036a.493.493 0 0 1-.143.107c-.071.071-.178.143-.25.214a1.551 1.551 0 0 1-.25.214l-.036.036v.036l-.107.107a1.084 1.084 0 0 0-.178.25c-.107.178-.214.392-.464.392a.459.459 0 0 1-.534-.25Z" fill="#769f35"/><path d="M8.613 19.286c-.107 0 .357.036.285.036a1.624 1.624 0 0 0-1.855 1.962 5.841 5.841 0 0 0 .5 1.177c.214.321.428.25.785.107a2.35 2.35 0 0 1 2.069.143c.178.071-.036.036.107.143 0 .036.036-.036.036 0-.214-.036.071 0-.143-.036a3.292 3.292 0 0 0-3.246 1.357 5.529 5.529 0 0 0-.714 4.709c.036.107.071.392.107.5a5.622 5.622 0 0 0 .571 1.249c.107-.178.25-.357.357-.535.214-.321.357-.678.571-1.035a3.107 3.107 0 0 1 1.07-.963 9.02 9.02 0 0 1 1.32-.642 6.658 6.658 0 0 1 .785-.25 4.877 4.877 0 0 1 1.07-2.783 3.257 3.257 0 0 1 1.07-.892l.321-.107a5.607 5.607 0 0 1-.928-.678 7.941 7.941 0 0 1-.963-.928 3.89 3.89 0 0 1-.928-2.1 5.2 5.2 0 0 1 1.177-3.5 3.853 3.853 0 0 1 .071-1.106c.036-.178.071-.428.321-.464.214-.036.25.178.321.321s.143.25.214.392a1.922 1.922 0 0 1 .464-.25l-.107-.214a3.312 3.312 0 0 1-.25-1.177 2.618 2.618 0 0 1 .606-1.819 2.942 2.942 0 0 1 3.246-.892c.071.036.107.036.178.071a3.242 3.242 0 0 0-1.962-1.07 2.141 2.141 0 0 0-1.605.321c-.642.392-1.249.678-1.427 1.463-.036.214-.143.464-.214.714-.571-1.07.071-1.926 1.356-2.747 0-.214-.036-.642-.036-.892a2.993 2.993 0 0 0-1.855.071 5.831 5.831 0 0 0-1.819 1.07 11 11 0 0 0-2.462 2.676 5.545 5.545 0 0 0-.714 4.6 9.694 9.694 0 0 0 .785 2c.645-.037.895-.501 1.465-.002Zm.5-6.386a14.375 14.375 0 0 0-.678 1.534 4.161 4.161 0 0 1-.357.928 3.759 3.759 0 0 1-.25.392.78.78 0 0 0-.107.178.356.356 0 0 1-.178.143.134.134 0 0 1-.214-.036l-.107-.214a.607.607 0 0 1-.036-.25 2.682 2.682 0 0 1 0-.535 4.92 4.92 0 0 1 .285-1.035 9.461 9.461 0 0 1 .821-1.712 3.9 3.9 0 0 1 1.284-1.356c.285-.178.571-.357.856-.5.107-.071.428-.25.571-.143v.036l-.107.107-.321.321a4.139 4.139 0 0 0-.571.749c-.143.25-.321.464-.464.678-.178.252-.285.501-.427.715ZM8.756 32.665a4.582 4.582 0 0 0 1.249.642c-.5.25-.821-.143-1.213-.214-1.177 2.069.214 5.209 3.032 5.815-.428.285-.714.071-1.106 0-.642.571-.464 1.891.214 2.747.178-.214.464-.535.642-.713s-.071-.107.214-.178c-.285.535-.25.678-.535 1.213a3.88 3.88 0 0 0-.321 2c.571.214 1.284.392 1.891.606.107-.392-.036-.606.5-.892a2.492 2.492 0 0 0 .428 2.676 2.742 2.742 0 0 0 2.141 1.391c-.5.25-.606-.071-1.07-.107a1.658 1.658 0 0 0 .714 1.641c-.606.107-.714-.214-.963-.821a1.5 1.5 0 0 1-.143-.535.658.658 0 0 0-.464-.714c-.392.357-1 .749-1.391 1.106a4.174 4.174 0 0 0 1.5 3.068c-.606 0-.749-.25-1.249-.5a2.263 2.263 0 0 0 .036 2.034 8.192 8.192 0 0 0 2.569 2.961 25.123 25.123 0 0 0 6.743 3.1 5.108 5.108 0 0 0 3.175-.178 15.424 15.424 0 0 0 3.032-1.356 5.543 5.543 0 0 0 2.248-3.318 4.709 4.709 0 0 0 .214-1.391.263.263 0 0 0 .178-.214c0-.107-.143-.214-.357-.178a6.347 6.347 0 0 0 2.136-.427 4.52 4.52 0 0 0 1.677-1.07 3.881 3.881 0 0 0 .821-1.463c0-.107.036-.214.036-.321a5.565 5.565 0 0 1-1.391 1.32 5.229 5.229 0 0 1-1.819.714 5.917 5.917 0 0 1-2.141.178 4.911 4.911 0 0 1-2.426-.856 3.484 3.484 0 0 1-.5-.392 4.857 4.857 0 0 1-.892.392 6.734 6.734 0 0 1-1.213.321 9.163 9.163 0 0 1-2.426.107 5.285 5.285 0 0 1-4-2.069 4.4 4.4 0 0 1-.642-2.1 2.752 2.752 0 0 1-.928-.25 2.451 2.451 0 0 1-1.142-1.106 3.5 3.5 0 0 1-.357-2.533 2.011 2.011 0 0 1 .143-.428 2.8 2.8 0 0 1-.357-.535 4.063 4.063 0 0 1-.357-2.676 4.313 4.313 0 0 1 .178-.642 8.715 8.715 0 0 1-.856-.357 5.305 5.305 0 0 1-1.777-1.293 2.961 2.961 0 0 1-.749-2 3.693 3.693 0 0 1 .357-1.5c-.107-.321-.178-.606-.285-.928a13.06 13.06 0 0 0-.464-1.035c-.143-.285-.285-.678-.428-.892a.985.985 0 0 0-.571-.428 1.956 1.956 0 0 0-.892-.143c-.036 0-.107.036-.143.036h-.071c-.036 0-.071.036-.107.036.036 0-.071.036-.107.071l-.107.107-.036.036c-.071.107-.143.178-.214.285s-.107.178-.178.285c0 .036-.036.036-.036.071-.036.071-.071.107-.107.178-.143.25-.25.5-.392.749a5.493 5.493 0 0 0 .428.464c.213.189.285.367.427.403Zm12.629 21.37a.267.267 0 0 1 .178-.036.214.214 0 0 1 .143.036.474.474 0 0 1 .285.107.131.131 0 0 1 .107.036.64.64 0 0 1 .25.178l.107.107c.036.036.036.071.071.107.036.071.071.107.071.178a.339.339 0 0 1-.143.357.272.272 0 0 1-.178.071.453.453 0 0 1-.214-.036l-.214-.107a1.677 1.677 0 0 1-.321-.214c-.071-.071-.143-.107-.178-.178 0-.036-.036-.036-.036-.071-.036-.071-.107-.143-.107-.214a.378.378 0 0 1 .179-.322Zm-3.6-1.106a.662.662 0 0 1 .25.071 1.793 1.793 0 0 1 .464.178 2.5 2.5 0 0 1 .571.5 2.13 2.13 0 0 1 .5.928.756.756 0 0 1-.535.928.812.812 0 0 1-.749-.357 4.036 4.036 0 0 1-.357-.464 1.584 1.584 0 0 0-.285-.392l-.214-.214a.806.806 0 0 1-.285-.571.632.632 0 0 1 .637-.608ZM9.649 7.371c.606.285 1.177.535 1.748.785a.507.507 0 0 0 .214.071 2.61 2.61 0 0 1 1.748.535c.178-.178.321-.5.5-.678a6.748 6.748 0 0 0-3-2.39c-1.249-.464-2.6-.821-3.889-1.249a8.027 8.027 0 0 0-.856-.285.125.125 0 0 1-.036.071c.285.214.535.428.856.642.928.606 1.855 1.356 2.783 1.926.143.071.357 0 .357.214s-.285.143-.428.178c.003.001.035.144.003.18Z" fill="#769f35"/><path d="M3.334 20.357a9.578 9.578 0 0 0 4.138 2.568 3.575 3.575 0 0 1-.464.535c-.071.071-.178.178-.25.178a5.634 5.634 0 0 1-1.886-.106c.25-.535.214-.642-.285-.892-.214-.107-.464-.214-.714-.357a7.182 7.182 0 0 1-.892-.5c.25-.392.071-.642-.143-.928-.575-.748-1.431-1.639-1.788-2.247a2.855 2.855 0 0 1-.178-.392c.749.642 1.677 1.5 2.462 2.141ZM12.645 16.468v-.214c.321.642.749 1.249 1.106 1.891a6.129 6.129 0 0 0 .892 1.249c.25.285.5.535.749.821-.107.071-.214.178-.321.25a.621.621 0 0 1-.535.178 12.764 12.764 0 0 1-1.249-.392c-.107-.036-.143-.143-.25-.214.036-.036.071-.107.107-.107.571-.357.571-.357.285-.963a9.709 9.709 0 0 1-.784-2.499ZM9.684 41.691h-.143a4.194 4.194 0 0 1-.963-.107 2.493 2.493 0 0 1-.749-.392 2.756 2.756 0 0 1-.606-.678 3.7 3.7 0 0 1-.143-.357.131.131 0 0 0-.036-.107c0-.071-.036-.107-.036-.178s-.036-.143-.036-.25v-.143a1.737 1.737 0 0 1 .036-.428c0-.071.036-.178.036-.25v-.036c0-.036 0-.071.036-.071.036-.071.036-.107.071-.178 0-.036.071-.107.036-.107.036-.036.036-.071.071-.071a1.728 1.728 0 0 0-.107.642 2.143 2.143 0 0 0 .571 1.213c.071.107.143.214.25.178-.107-.392-.178-.785-.25-1.177a.6.6 0 0 1 .285-.642 2.063 2.063 0 0 1 2.283.178 2.413 2.413 0 0 0 0 2.783 1.449 1.449 0 0 1-.606.178ZM6.687 46.864a47.093 47.093 0 0 0 2.212-.357h.036l.107-.071c1.391-.107 2.783-.25 4.174-.357.143.214.143.607.321.856a19.722 19.722 0 0 1-2.533 1.712c-.214-.428-.071-.5-.5-.392a1.36 1.36 0 0 1-.357.107 8.6 8.6 0 0 1-2.141.036c.107-.535.071-.571-.464-.642-.428-.071-.856-.107-1.284-.214a3.021 3.021 0 0 1-1.213-.5c.536-.035 1.071-.107 1.642-.178ZM33.871 52.144l1.284 1.5h.032a6.159 6.159 0 0 1 .678 1c.321.535.606 1.106.928 1.677a4.8 4.8 0 0 0 .5.785c.036.036.071.214.107.25a5.571 5.571 0 0 1-.678-.464c-.535-.464-1.07-.963-1.57-1.427-.107-.107-.178-.178-.285-.178a.767.767 0 0 0-.464.214c-.25-.392-.535-.892-.785-1.284a.776.776 0 0 0-.25-.321c-.107-.071-.25.036-.428.036-.107-.321-.25-.821-.357-1.142a10.775 10.775 0 0 1 1.288-.646ZM40.65 36.803c.464.178.678.321.606.821a4.371 4.371 0 0 1-.071.678 4.767 4.767 0 0 1-1.106.928 1.29 1.29 0 0 0-.535.535 1.041 1.041 0 0 0-.071.321h-.071c-.143-.392-.25-.749-.392-1.142a3.36 3.36 0 0 0 1.142-2.248 2.06 2.06 0 0 1 .498.107ZM40.436 29.454v-.143a.355.355 0 0 0 .143.036h.178c.143 0 .285.036.428.036.285.036.535.071.821.107.571.071 1.142.107 1.677.214a6.544 6.544 0 0 1 1.641.642c.25.143.5.321.749.464.107.071.25.143.357.214a.633.633 0 0 1-.357-.143c-.036-.036.071.107.036.071-.571-.071-1.177-.143-1.712-.214a.487.487 0 0 0-.606.392c-.285-.071-.606-.178-.856-.214h-.25c-.036.107-.071.036-.178.178-.143.25-.214.392-.25.392-.285.143-.535-.357-1.177-.5-.036 0-.214-.071-.428-.143a.584.584 0 0 1-.357-.535c0-.178.036-.321.036-.5.069-.176.069-.319.105-.354ZM36.013 18.359a4.65 4.65 0 0 0 .535-.357c.5-.357.928-.821 1.391-1.213s1-.749 1.427-1.177a2.264 2.264 0 0 0 .357-.428 8.423 8.423 0 0 1-4.21 4.388 5.487 5.487 0 0 0-.428-.464c.321-.249.642-.499.928-.749Z" fill="#769f35"/><path d="M26.665 51.68a12.644 12.644 0 0 1-1.891.214 11.953 11.953 0 0 1-3.674-.464 3.668 3.668 0 0 0 .642.5 6.442 6.442 0 0 0 2.034.82 5.722 5.722 0 0 0 2.6-.071 3.86 3.86 0 0 0 2.1.5 2.94 2.94 0 0 0 1.534-.571 5.474 5.474 0 0 1-1.962-.214 4.834 4.834 0 0 1-1.383-.714Z" fill="#5b7a24"/><path d="M34.014 9.19a5.4 5.4 0 0 1 1.677 2.319c.25.535.285.856.143 1.106a.929.929 0 0 1-.928.357c-.357-.071-.535-.357-.856-.678a4.484 4.484 0 0 0-1.463-.928c-1.427-.714-2.069-.071-3.318-.785-.357-.178-1.07-.571-1.07-1.142 0-.714 1.177-1.249 1.32-1.284a7.04 7.04 0 0 1 4.495 1.035ZM23.562 9.44a2.179 2.179 0 0 1 .5.25.793.793 0 0 1 .285.464.726.726 0 0 1-.214.535 1.058 1.058 0 0 1-.535.25c-.892.214-1.819-.25-2.747-.357a2.058 2.058 0 0 1-.5-.107.659.659 0 0 1 .036-1.213 4.344 4.344 0 0 1 1.926-.178c.393.107.821.214 1.249.356ZM35.513 45.473a1.256 1.256 0 0 1-1.177.036 1.055 1.055 0 0 1-.357-1.249 1.711 1.711 0 0 1 .606-.714 8.18 8.18 0 0 0 1.819-1.855 8.539 8.539 0 0 1 .464-.749c.642-.821 1.32-.036 1.177.856a5.748 5.748 0 0 1-1.249 2.711 4.05 4.05 0 0 1-1.283.964Z" fill="#dcff9f" opacity=".46"/><path d="M47.392 30.988a7.487 7.487 0 0 0-2.033-1.641 1.667 1.667 0 0 0-.357-.178c.143-.428.143-.535-.321-.642-.428-.107-.821-.178-1.142-.25-.036-.036-.071-.036-.071-.071.036-.107.071-.25.107-.357a.331.331 0 0 0-.357-.431c-.464.071-.892.178-1.356.25l-1.284.214c-.036-.107-.071-.178-.107-.285-.071-.143-.178-.321-.285-.5l.071-.071a3.9 3.9 0 0 0 .428-1.427 5.009 5.009 0 0 0 0-1.463 4.952 4.952 0 0 0-.785-2.248 3.681 3.681 0 0 0-.678-.749A2.939 2.939 0 0 0 38.794 18c.392-.571.749-1.142 1.106-1.712a7.183 7.183 0 0 0 .821-2.1.4.4 0 0 0 .036-.285c0-.107-.071-.25-.107-.25a.477.477 0 0 0-.321.036c-.143.071-.214.214-.321.321a5.506 5.506 0 0 1-1.605 1.177 9.558 9.558 0 0 0-.359-3.036 12.246 12.246 0 0 0-1.284-2.783 2.459 2.459 0 0 0 .284-.106 2.926 2.926 0 0 0 1.5-1.356 1.266 1.266 0 0 0 .107-.464 3.88 3.88 0 0 1-2 .321c.143-.107.25-.178.357-.25.214-.214.464-.392.678-.642.178-.214.178-.285-.107-.535a3.127 3.127 0 0 0 .535-2.176 2.519 2.519 0 0 0-.214-.856c-.107-.25-.321-.214-.428 0a3.224 3.224 0 0 1-1.391 1.284c-.285.178-.606.285-.892.464a3.024 3.024 0 0 0-1.391 1.284 7.407 7.407 0 0 0-5.494-.642 3 3 0 0 0-2.355-1.534 3.366 3.366 0 0 0-2.711.642 6.534 6.534 0 0 0-2.248-1.07 6.068 6.068 0 0 0-4.6.392A4.565 4.565 0 0 0 14 7.156c-.071-.036-.143-.036-.178-.071a9.244 9.244 0 0 0-4.1-2.319c-1.466-.463-2.928-.891-4.391-1.355a1.431 1.431 0 0 0-.535-.107.371.371 0 0 0-.285.143c-.036.036 0 .214.071.285a9.354 9.354 0 0 0 .892.785A22.412 22.412 0 0 0 8.72 6.693c.143.071.25.143.428.25-.071.036-.107.071-.143.071-.285.214-.321.392-.036.606.428.25.856.464 1.284.678.143.071.285.107.464.178-.178.107-.321.178-.428.25a8.778 8.778 0 0 0-4.352 5.03 6.588 6.588 0 0 0 .785 5.744c.036.036.036.071.071.107v.036c-.107.357-.214.714-.357 1.106-.107-.107-.214-.178-.321-.285-.25-.25-.535-.535-.785-.749-.214-.178-.392-.321-.714-.143a.523.523 0 0 1-.392-.071c-.928-.464-1.891-.963-2.818-1.463-.321-.178-.642-.392-1-.571-.107-.071-.25-.036-.392-.036a1.446 1.446 0 0 0 0 .392 5.054 5.054 0 0 0 .285.642 16.25 16.25 0 0 0 1.819 2.6 3.216 3.216 0 0 0 .321.357c-.178.535-.143.678.285.963a9.072 9.072 0 0 0 1 .571 4.777 4.777 0 0 0 .428.214c-.071.107-.143.143-.178.214-.143.25-.107.464.178.571a5.515 5.515 0 0 0 .821.25 4.384 4.384 0 0 0 .963.071c.143 0 .285.036.428.036a.322.322 0 0 1-.036.178 5.762 5.762 0 0 0-.428 4.281 8.293 8.293 0 0 0 .535 1.605 7.285 7.285 0 0 0 1.855 2.426 4.671 4.671 0 0 0-.357 1.284 10.067 10.067 0 0 0-.071 1.391 3.394 3.394 0 0 0-2.5 1.391 3.878 3.878 0 0 0-.464 1.926 4.841 4.841 0 0 0 .285 1.677 3.067 3.067 0 0 0 3.246 2.248 8.333 8.333 0 0 0 2.212-.535 8.025 8.025 0 0 0-.178.785 5.344 5.344 0 0 0-.071.785c-.107 0-.285.036-.428.036-.464.071-.5.143-.428.571-.606.107-1.249.178-1.855.285-.107.036-.25.071-.357.107-.5.143-.571.25-.392.714-.606.25-1.249.535-1.855.785a2.948 2.948 0 0 0-.464.25c-.464.285-.5.714 0 .963a15.691 15.691 0 0 0 1.819.642c.285.071.571.107.892.178v.178c0 .357.036.428.392.428.571 0 1.142-.036 1.712-.071.321-.036.606-.107.892-.143.107.143.178.321.321.357a1.3 1.3 0 0 0 .5-.071c.25-.071.464-.143.749-.25a2.012 2.012 0 0 0 .143.428 6.116 6.116 0 0 0 .464.963 3.269 3.269 0 0 0-.535 2 2.855 2.855 0 0 0 .606 1.57 10.219 10.219 0 0 0 2.89 2.783 24.9 24.9 0 0 0 6.992 3.032 4.98 4.98 0 0 0 2.89-.036 14.46 14.46 0 0 0 4.067-2.1c.178-.143.321-.25.392-.321a.493.493 0 0 0 .107-.143 7.977 7.977 0 0 0 1.463-2.818 6.792 6.792 0 0 0 .214-1.249c.107.071.214.107.25.178.107.25.214.5.321.785a4.067 4.067 0 0 0 .357.678c.143.25.357.464.678.357.285.428.535.785.785 1.177a1.787 1.787 0 0 0 .25.285c.357.357.535.357.928.036a14.255 14.255 0 0 0 1.106.963 11.441 11.441 0 0 0 1.106.678.6.6 0 0 0 .357.107c.321.036.464-.071.428-.392a4.9 4.9 0 0 0-.178-1c-.214-.642-.464-1.284-.678-1.962a.035.035 0 0 1 .036-.036c.5-.214.571-.357.285-.856s-.642-.928-.963-1.391a3.218 3.218 0 0 0-.321-.357c.036-.036.036-.071.071-.071.535-.214.571-.428.107-.821-.178-.143-.357-.25-.535-.392-.178-.107-.321-.214-.5-.321a2.274 2.274 0 0 0 .071-.25 5.113 5.113 0 0 0 .535-2.711 7.5 7.5 0 0 0 3.282-4.245 7 7 0 0 0 .107-2.355 6.927 6.927 0 0 0 .856.071 3.063 3.063 0 0 0 3.353-2.176 5.377 5.377 0 0 0 .178-2.5 2.059 2.059 0 0 0-.321-.928 2.468 2.468 0 0 0-.892-.928 3.6 3.6 0 0 0-1.427-.606 2.71 2.71 0 0 0-1.677.357 3.891 3.891 0 0 0-.214-.392l.071-.071a16.794 16.794 0 0 0 1.041-1.715 6.147 6.147 0 0 0 .25-.749 1.491 1.491 0 0 1 .358.149c.178.071.357.178.5.25.178.107.357.25.535.357s.321.285.535.25a.388.388 0 0 0 .178-.036c.214-.107.178-.321.143-.535a1.324 1.324 0 0 0-.071-.321c.357.107.642.178.963.285l.321.107c.464.143.571.036.535-.5a2.355 2.355 0 0 1 .5.036c.571.071 1.142.143 1.677.25.107 0 .214.036.321.036.143-.036.321-.036.357-.143a.712.712 0 0 0-.146-.466Zm-8.134-15.554.535-.428a8.516 8.516 0 0 1-4.281 4.566 5.488 5.488 0 0 0-.428-.464 6.719 6.719 0 0 0 1.284-1.177c-.464.071-.821.392-1.32.428.392-.642.749-1.284 1.106-1.855.143.285.143.321.5.214a7.416 7.416 0 0 0 2.604-1.284Zm-2.069-7.028c0 .036.036.071.036.107-.25.143-.5.285-.785.464a6.513 6.513 0 0 0-.464-.571c.468-.036.856 0 1.213 0Zm-2.283-2.462c.392-.25.821-.464 1.249-.714a3.529 3.529 0 0 0 1.142-.892 2.628 2.628 0 0 0 .214-.178 6.015 6.015 0 0 1-.071.892c-.143.464-.321.963-.5 1.427-.071.178-.107.357-.214.606q-.535.214-1.177.428a.277.277 0 0 1-.357-.071c-.321-.285-.642-.606-1.035-.928.249-.178.499-.396.749-.57ZM9.644 7.371l.071-.071c.143-.071.357-.071.357-.285s-.178-.25-.321-.357c-.963-.606-1.891-1.177-2.818-1.784-.285-.178-.571-.428-.856-.642a.125.125 0 0 1 .036-.071 8.028 8.028 0 0 0 .856.285c1.249.428 2.533.856 3.782 1.32a6.637 6.637 0 0 1 3.1 2.319c-.178.178-.321.357-.5.535a2.759 2.759 0 0 0-1.748-.392.507.507 0 0 1-.214-.071c-.564-.251-1.17-.539-1.745-.786ZM4.832 23.532c.25-.535.214-.642-.285-.892-.214-.107-.464-.214-.714-.357a10.542 10.542 0 0 1-.856-.5c.25-.392.071-.642-.143-.928-.606-.749-1.177-1.5-1.748-2.248a1.7 1.7 0 0 1-.214-.389c.214.143.357.214.464.285l2.89 1.5a.469.469 0 0 0 .357.107c.428-.107.642.214.892.428a3.921 3.921 0 0 0 .642.5c.464.25.535.678.714 1.177a15.266 15.266 0 0 1-3.746-2.069A10.649 10.649 0 0 0 7.366 23a2.33 2.33 0 0 1-.392.428c-.071.071-.178.178-.25.178a4.8 4.8 0 0 1-1.892-.074Zm3.5 18.444a2.342 2.342 0 0 1-2.537-1.958 8.377 8.377 0 0 1-.178-1.32 2.439 2.439 0 0 1 2.462-2.533c.25.428.464.856.714 1.32-1.284.321-1.748.785-1.641 1.57a2.143 2.143 0 0 0 .571 1.213c.071.107.178.214.285.178-.107-.392-.178-.785-.25-1.177a.576.576 0 0 1 .25-.642 1.942 1.942 0 0 1 2.212.143 2.358 2.358 0 0 0 .036 2.747 6.582 6.582 0 0 1-1.928.459Zm2.89 6.422c-.214-.428-.214-.428-.642-.321a1.042 1.042 0 0 1-.321.071 8.724 8.724 0 0 1-2.141.214c.107-.535.071-.571-.464-.642-.428-.071-.856-.107-1.284-.214a3.074 3.074 0 0 1-1.356-.606 2.183 2.183 0 0 1 .214-.143 11.062 11.062 0 0 1 2.141-.821.973.973 0 0 0 .464-.25c.071-.107 0-.321-.036-.571a182.89 182.89 0 0 1 2.6-.321c-.107-.178-.143-.321-.25-.535a.628.628 0 0 1 .214-.036 7.542 7.542 0 0 1 2.141.535c.321.178.535.357.428.749-.143.036-.321.107-.464.143-1 .214-2 .392-2.961.606-.178.036-.321.107-.5.143 0 .036 0 .036.036.071l4.174-.321c.143.214.25.464.428.714a17.33 17.33 0 0 1-2.426 1.535Zm24.652 3.032c-.392.285-.392.357-.143.678.285.357.571.713.821 1.07.178.214.285.5.464.749a.27.27 0 0 1-.143.036c-.5.107-.571.214-.321.678a11.442 11.442 0 0 1 .928 2.39c.036.071 0 .143-.036.25a4.108 4.108 0 0 1-.714-.5c-.535-.464-1.035-.963-1.534-1.427a.809.809 0 0 0-.392-.25c-.143 0-.25.143-.428.285-.25-.392-.464-.821-.714-1.213a1.118 1.118 0 0 0-.285-.392c-.107-.071-.285 0-.464 0l-.321-.963c.464-.214.892-.392 1.32-.606l1.284 1.5c.036-.036.071-.036.071-.071-.321-.571-.678-1.142-1-1.748.285-.321.535-.606.821-.892a5.838 5.838 0 0 1 .781.426Zm5.886-14.234c-.071-1-.821-1.213-1.605-1.391a4.045 4.045 0 0 0-.25-.928l.036-.036c.036-.036.071-.071.107-.071s.036-.036.071-.036l.071-.036a2.307 2.307 0 0 1 .464-.143.988.988 0 0 1 .321-.036 3.624 3.624 0 0 1 1.641.749 1.426 1.426 0 0 1 .5.785 4.447 4.447 0 0 1-.285 3.032 2.093 2.093 0 0 1-1.641 1.177 4.334 4.334 0 0 1-1.784-.143c-.143-.392-.25-.749-.392-1.142a3.36 3.36 0 0 0 1.142-2.248c.214.071.357.071.535.143.464.178.571.285.5.785a10.807 10.807 0 0 1-.214 1.142 2.388 2.388 0 0 0 .779-1.603Zm-1.926-5.637a7.767 7.767 0 0 1-1 1.641 1.473 1.473 0 0 0-.392-.25 2.674 2.674 0 0 0-.571-.178c-.107 0-.178-.036-.285-.036h-.285c-.036 0-.036.036 0 .036a.455.455 0 0 1 .214.143.746.746 0 0 0 .214.143c.143.107.25.214.392.321a3.82 3.82 0 0 1 .642.678 3.987 3.987 0 0 1 .392.892c.071.214.107.428.178.642a4 4 0 0 1-.678 2.89 9.924 9.924 0 0 0-.642-.606c-.036.036-.071.036-.071.071.036.143.107.321.143.464a9.212 9.212 0 0 1 .606 3.532 4.659 4.659 0 0 1-.678 2.462 6.675 6.675 0 0 1-5.173 3.1c-.535.036-1.035.107-1.641.178a3.416 3.416 0 0 0 2 .392 13.749 13.749 0 0 0 2.033-.25 3.91 3.91 0 0 1-1 2.961 4.123 4.123 0 0 1-4.388 1.216 1.59 1.59 0 0 0 .428.428 1.909 1.909 0 0 0 .464.214v.25a3.488 3.488 0 0 1-.214 1.356 5.14 5.14 0 0 1-2.283 3.1 15.836 15.836 0 0 1-3.037 1.469 4.653 4.653 0 0 1-3.032.071 25.93 25.93 0 0 1-6.743-3.175 7.582 7.582 0 0 1-2.462-2.747 1.906 1.906 0 0 1-.036-1.855 3.327 3.327 0 0 0 1.5.606 5.05 5.05 0 0 1-1.785-3.32c.428-.357.821-.714 1.213-1.07a.658.658 0 0 1 .464.714 1.5 1.5 0 0 0 .143.535 1.515 1.515 0 0 0 1.534.892c-.535-.392-1.035-.785-.963-1.57a2.145 2.145 0 0 0 1.391-.178 3.386 3.386 0 0 1-2.5-1.427 3 3 0 0 1-.392-2.854 1.549 1.549 0 0 0-.749 1.07c-.606-.214-1.177-.428-1.748-.606a2.7 2.7 0 0 1 .214-1.748c.285-.535.535-1.07.821-1.641a1.188 1.188 0 0 0-.606.5 9.141 9.141 0 0 0-.535.606 1.965 1.965 0 0 1-.143-2.569 1.585 1.585 0 0 0 1.249-.178c-2.854-.606-4.459-3.568-3.246-5.637.392.071.749.321 1.284.071a8.083 8.083 0 0 1-.928-.428 6.158 6.158 0 0 1-2.462-3.318 4.491 4.491 0 0 1-.178-.571 5.541 5.541 0 0 1 .608-4.673 3.239 3.239 0 0 1 3.139-1.427c.214.036.392.107.606.143 0-.036.036-.036.036-.071a2.146 2.146 0 0 0-.464-.321 2.586 2.586 0 0 0-2.176-.143c-.357.143-.392.143-.606-.178a3.093 3.093 0 0 1-.5-.963 1.484 1.484 0 0 1 1.605-1.962c.107 0 .214.036.285.036a1.842 1.842 0 0 0-1.855-.25 7.339 7.339 0 0 1-.749-1.712 5.435 5.435 0 0 1 .571-4.566 11.554 11.554 0 0 1 2.39-2.711 7.179 7.179 0 0 1 1.819-1.07 2.757 2.757 0 0 1 1.855-.071v.714c-1.284.821-1.748 2.069-1.213 3.139.071-.25.143-.464.214-.678a2.681 2.681 0 0 1 1.32-1.712 2.524 2.524 0 0 1 1.605-.321 3.313 3.313 0 0 1 2.462 1.819c.107.214.25.428.357.606a2.74 2.74 0 0 0-.749-2.141 3.4 3.4 0 0 0-3.282-1 .809.809 0 0 1 .25-.642 1.749 1.749 0 0 1 1.677-.464c-.321-.5-.749-.464-1.177-.5a2.366 2.366 0 0 1 .357-1.32 4.211 4.211 0 0 1 3.461-2.283 6.073 6.073 0 0 1 4.852 1.534 9.951 9.951 0 0 1 1.427 1.57.946.946 0 0 1 .178.214 4 4 0 0 0-1.106-2.141 3.145 3.145 0 0 1 3.924.571c-.25.143-.464.285-.714.428a1.328 1.328 0 0 0-.642.678c.214-.107.357-.143.464-.214a6.808 6.808 0 0 1 3.568-.678 6.151 6.151 0 0 1 3.853 1.463 9.34 9.34 0 0 1 1.787 2.139 8.853 8.853 0 0 1 1.57 5.672.487.487 0 0 1-.143.392c-.25.178-.571.321-.892.535a2.653 2.653 0 0 0-.107-.606c-.036-.107-.107-.214-.178-.214a.453.453 0 0 0-.25.143c-.036.036-.036.071-.071.107-.428.606-.821 1.249-1.284 1.891a1.829 1.829 0 0 0-1.427-.963 3.565 3.565 0 0 1 1.035 1.57 16.09 16.09 0 0 1 .25 1.891l.214-.321c.535.285.714.785 1.106 1.213-.036-.321-.107-.642-.143-.963a6.5 6.5 0 0 0 2.5-1.534 3.091 3.091 0 0 1 .5 2.355 1.877 1.877 0 0 0-1.32-.071 4.042 4.042 0 0 1 2.24 2.317 5.876 5.876 0 0 1 .214 1.142 4.882 4.882 0 0 1-.036 1.249 3.732 3.732 0 0 1-.143.606 1.792 1.792 0 0 1-.178.464l-.428-.214c-.214-.107-.428-.214-.606-.285l.25.25c.178.178.392.392.606.642a3.058 3.058 0 0 1 .392.749 5.691 5.691 0 0 1 .321 1.891 2.34 2.34 0 0 1-.107 1.818Zm4.6-.928c-.285-.036-.571-.036-.678.321-.321-.071-.571-.143-.785-.178-.392-.107-.535-.178-.678-.107-.178.107-.178.357-.178.535-.071-.036-.143-.107-.214-.143a4.169 4.169 0 0 0-1.07-.5.7.7 0 0 1 .036-.285v-.392h1.142a1.439 1.439 0 0 0 .392 0c.107 0 .214-.036.321-.036a5.762 5.762 0 0 1 .785 0c.036 0 .036-.036 0-.071-.107-.036-.25-.107-.357-.143s-.25-.107-.357-.143-.25-.107-.357-.143-.285-.036-.392-.071c-.25-.036-.535-.036-.785-.071a2.016 2.016 0 0 0-.464 0 3.142 3.142 0 0 0-.071-.606c.428-.071.821-.143 1.249-.214.285-.071.606-.107.892-.178-.036.071-.178.25-.107.392.036.107.214.143.464.214a6.082 6.082 0 0 0 1 .107c-.143.428.071.535.357.678.535.285 1.07.642 1.605 1a1.061 1.061 0 0 1 .25.285c-.754-.108-1.396-.179-2.003-.251Z" fill="#2b590c"/><path d="M36.155 37.766a1.174 1.174 0 0 0-.464-.25.608.608 0 0 0-.25-.036h-.178a1.128 1.128 0 0 0-.892.606 1.589 1.589 0 0 0-.036 1.213 1.347 1.347 0 0 0 .821.714 1.112 1.112 0 0 0 1-.143 1.221 1.221 0 0 0 .5-1.035 1.389 1.389 0 0 0-.501-1.069ZM40.365 30.061h-.214a10.264 10.264 0 0 1-1.748-.392 37.07 37.07 0 0 0-3.318-.714 42.718 42.718 0 0 0-6.743-.642 32.983 32.983 0 0 0-6.493.5 19.653 19.653 0 0 0-3.175.785c-.821.25-1.641.571-2.462.821a16.9 16.9 0 0 0-2.64 1.035 5.871 5.871 0 0 0-1.106.714 5.326 5.326 0 0 0-.5.428l-.071.071a8.71 8.71 0 0 0 .357.856 18.144 18.144 0 0 0 1.142 2 15.422 15.422 0 0 0 1.177 1.784 3.82 3.82 0 0 0 .678.642 1.473 1.473 0 0 0 .392.25.035.035 0 0 1 .036.036c.036 0 .036.036.071.036.071.036.178.071.25.107a1.766 1.766 0 0 0 .464.143h.034a.131.131 0 0 1 .107.036c.107 0 .178.036.285.036a6.1 6.1 0 0 0 1.142 0c.892-.107 1.784-.285 2.676-.428.392-.071.821-.143 1.213-.214.178-.036.321-.071.5-.107a2.011 2.011 0 0 0 .428-.143 4.378 4.378 0 0 0 .928-.428l.071-.036c.036-.036.071-.036.107-.071a.626.626 0 0 0 .18-.144c.071-.071.143-.107.214-.178l.143-.143a7.305 7.305 0 0 0 1.177-2.426c.285-.892.5-1.855.749-2.747a.531.531 0 0 1 .963-.036 11.562 11.562 0 0 0 1.605 2.711 9.8 9.8 0 0 0 1.962 2.069 3.16 3.16 0 0 0 1.213.571 5.447 5.447 0 0 0 1.07.107c0 .036-.036.036-.036.071a.516.516 0 0 0-.071.25.661.661 0 0 0 .071.25c.036.036.036.071.071.107 0 .036.036.071.071.107.036.036.036.036.071.036a.125.125 0 0 1 .071.036h.219c.036 0 .071-.036.107-.036.036-.036.071-.036.107-.071a.035.035 0 0 0 .036-.036c.036-.036.071-.071.071-.107s.036-.071.036-.107v-.036a.27.27 0 0 1 .036-.143v-.178c0-.036-.036-.071-.036-.107-.036-.036-.036-.071-.071-.071a21.4 21.4 0 0 0 3.032-.428 29.093 29.093 0 0 0 1.677-.464c.285-.107.606-.214.928-.321h.036a2.779 2.779 0 0 0-.143-.749 5.1 5.1 0 0 0-.571-1.07 5.619 5.619 0 0 0 1.531-3.361.919.919 0 0 1-.107-.461ZM18.746 44.545a.777.777 0 0 0-.178-.285c-.036-.036-.107-.071-.143-.107s-.071-.036-.107-.071a.656.656 0 0 0-.714.071 1.012 1.012 0 0 0-.428.714.888.888 0 0 0 .25.678.708.708 0 0 0 .642.25.929.929 0 0 0 .642-.464.871.871 0 0 0 .036-.786ZM17.212 42.975c-.036-.071-.071-.107-.107-.178l-.071-.071c-.036 0-.036-.036-.071-.036a.383.383 0 0 0-.392.036.678.678 0 0 0-.25.392.537.537 0 0 0 .143.392.414.414 0 0 0 .357.143.43.43 0 0 0 .357-.25.58.58 0 0 0 .034-.428Z" fill="#769f35"/><circle cx="1.391" cy="1.391" r="1.391" transform="translate(19.352 11.902)" fill="#769f35"/><circle cx=".678" cy=".678" r=".678" transform="translate(18.46 15.077)" fill="#769f35"/><path d="M6.939 33.62c-.071.107-.143.25-.214.357a3.028 3.028 0 0 0-.321.785 1.336 1.336 0 0 0 0 .749l.107.428a2.328 2.328 0 0 0-.535.357.947.947 0 0 0-.214.178.131.131 0 0 1-.036-.107 7.594 7.594 0 0 1-.285-.963 1.571 1.571 0 0 1 .071-.571c0-.036.036-.036.036-.071a6.756 6.756 0 0 1 .321-.749c.143-.321.214-.928.392-1.249.285-.678.464-1.32.785-2 .285-.678.785-1.427 1.142-2.176.071.285.25.785.321 1a.185.185 0 0 1 .071.143 1.081 1.081 0 0 1 0 .749 7.928 7.928 0 0 1-.5 1.142c-.178.392-.392.785-.606 1.177-.107.178-.214.392-.321.571a.774.774 0 0 0-.214.25ZM44.042 25.486c0 .25-.25.357-.464.428-.285.107-.606.25-.892.357-.214.107-.178.357-.25.607a29.25 29.25 0 0 1-1.32 4.245c-.285.785-.5 1.534-.856 2.283a2.009 2.009 0 0 1-1.463.928c-.892.25-1.784.5-2.676.678a6.568 6.568 0 0 1-2.64.071 3.474 3.474 0 0 1-2.139-1.108 10.6 10.6 0 0 1-1-1.213c-.892-1.284-1.748-2.6-2.64-3.889a.974.974 0 0 0-.928-.464 1.126 1.126 0 0 0-1 .714c-.285.678-.571 1.356-.821 2.033a30.1 30.1 0 0 1-1.463 3.5 4.137 4.137 0 0 1-2.818 2.033 15.448 15.448 0 0 1-3.853.214 3.078 3.078 0 0 1-2.711-1.463c-.036-.036-.071-.071-.071-.107a36.2 36.2 0 0 1-2.926-4.958.888.888 0 0 0-.642-.535 7.141 7.141 0 0 1-.856-.143c-.107-.036-.321-.071-.357-.178a2.489 2.489 0 0 1-.321-1.142 17.068 17.068 0 0 1 3.675-1.213 33.228 33.228 0 0 1 6.493-1 58.005 58.005 0 0 1 6.1.071 6.155 6.155 0 0 0 2.141-.178c.892-.25 1.784-.5 2.676-.714a39.144 39.144 0 0 1 7.028-1.213 37.237 37.237 0 0 1 4.888 0c.678.036 1.391.178 2.176.285a6.164 6.164 0 0 0-.07 1.071Zm-27.97 1.748c-.785.143-1.57.392-2.355.606a2.546 2.546 0 0 0-1.391.963 1.625 1.625 0 0 0-.357 1.356 8.284 8.284 0 0 0 1 2.39 21.273 21.273 0 0 0 2.212 3.1 2.236 2.236 0 0 0 1.784.821 15.149 15.149 0 0 0 3.1-.214 9.574 9.574 0 0 0 .963-.25 3.22 3.22 0 0 0 1.855-1.57c.5-.928.821-1.926 1.249-2.854a7.912 7.912 0 0 0 .642-2.39 1.559 1.559 0 0 0-.892-1.712 5.044 5.044 0 0 0-2.248-.606 22.376 22.376 0 0 0-5.564.36Zm25.222-.535a1.777 1.777 0 0 0-1.177-1.605 5.844 5.844 0 0 0-2.212-.321 26.63 26.63 0 0 0-5.565.642 8.694 8.694 0 0 0-2.5.892 4.15 4.15 0 0 0-1.035.892 1.413 1.413 0 0 0-.143 1.5 7.916 7.916 0 0 0 1.143 2.176c.321.428.571.856.892 1.284.285.392.606.785.892 1.177a3.428 3.428 0 0 0 2.961 1.32 16.024 16.024 0 0 0 3.639-.535 2.123 2.123 0 0 0 1.213-1.146 15.889 15.889 0 0 0 1.784-5.066c.036-.107.178-.214.178-.321 0 0-.143-.071-.107-.071a6.314 6.314 0 0 0 .035-.818Z" fill="#3e423e"/><path d="M23.951 27.413a1.652 1.652 0 0 1 .821 1.819 9.495 9.495 0 0 1-.642 2.39 25.567 25.567 0 0 1-1.249 2.854 3.22 3.22 0 0 1-1.855 1.57 9.566 9.566 0 0 1-.963.25 15.15 15.15 0 0 1-3.1.214 2.407 2.407 0 0 1-1.784-.821 21.271 21.271 0 0 1-2.212-3.1 8.284 8.284 0 0 1-1-2.39 1.684 1.684 0 0 1 .285-1.427 2.694 2.694 0 0 1 1.427-1 18.831 18.831 0 0 1 2.355-.571 22.966 22.966 0 0 1 5.637-.392 4.753 4.753 0 0 1 2.28.604Zm-9.276.714a5.772 5.772 0 0 0-1.463.606c-.642.357-.749.714-.535 1.427a11.057 11.057 0 0 0 1.57 3.1c.392.606.856 1.177 1.32 1.784a1.889 1.889 0 0 0 1.106.678 7.7 7.7 0 0 0 2.711-.036 5.97 5.97 0 0 0 2.176-.571 1.751 1.751 0 0 0 .821-.785 12 12 0 0 0 .678-1.356c.392-.963.714-1.962 1.07-2.925a2.56 2.56 0 0 0 .143-1.249 1.172 1.172 0 0 0-.749-.928 6.8 6.8 0 0 0-2.283-.464 26.063 26.063 0 0 0-6.561.719ZM41.364 27.588a.988.988 0 0 1-.036.321 17.958 17.958 0 0 1-1.855 5.179 2.193 2.193 0 0 1-1.284 1.035 12.479 12.479 0 0 1-3.639.535 3.34 3.34 0 0 1-2.961-1.32c-.285-.392-.606-.785-.892-1.177-.321-.428-.571-.856-.892-1.284a9.08 9.08 0 0 1-1.142-2.176 1.5 1.5 0 0 1 .143-1.5 4.149 4.149 0 0 1 1.035-.892 6.992 6.992 0 0 1 2.5-.892 26.361 26.361 0 0 1 5.565-.642 5.218 5.218 0 0 1 2.212.321 1.842 1.842 0 0 1 1.282 1.603 3.739 3.739 0 0 1-.036.892c.036.036 0 .036 0-.003Zm-5.922-1.962a20.713 20.713 0 0 0-3.889.714 6.55 6.55 0 0 0-1.819.856 1.277 1.277 0 0 0-.535.963 2.61 2.61 0 0 0 .321 1.106c.143.321.357.606.535.928.464.678.892 1.356 1.356 2.033.178.25.392.5.606.749a2.755 2.755 0 0 0 2.248 1.035 10.608 10.608 0 0 0 3-.357 6.377 6.377 0 0 0 1.135-.465 1.464 1.464 0 0 0 .642-.749 18.184 18.184 0 0 0 1.463-4.031 10.825 10.825 0 0 0 .214-1.5.921.921 0 0 0-.678-1.07 8.274 8.274 0 0 0-1.07-.285 16.39 16.39 0 0 0-3.53.076Z" fill="#171c14"/><path d="M21.172 27.412a25.864 25.864 0 0 0-6.493.714 5.772 5.772 0 0 0-1.463.606c-.642.357-.749.714-.535 1.427a11.056 11.056 0 0 0 1.57 3.1c.392.606.856 1.177 1.32 1.784a1.889 1.889 0 0 0 1.106.678 7.7 7.7 0 0 0 2.711-.036 5.969 5.969 0 0 0 2.176-.571 1.751 1.751 0 0 0 .821-.785 12 12 0 0 0 .678-1.356c.392-.963.714-1.962 1.07-2.925a2.56 2.56 0 0 0 .143-1.249 1.348 1.348 0 0 0-.714-1.067 8.246 8.246 0 0 0-2.39-.32ZM39.01 25.522a19.274 19.274 0 0 0-3.568.107 20.721 20.721 0 0 0-3.889.714 6.551 6.551 0 0 0-1.819.856 1.277 1.277 0 0 0-.535.963 2.61 2.61 0 0 0 .321 1.106c.143.321.357.606.535.928.464.678.892 1.356 1.356 2.033.178.25.392.5.606.749a2.755 2.755 0 0 0 2.248 1.035 10.609 10.609 0 0 0 3-.357 6.378 6.378 0 0 0 1.134-.464 1.464 1.464 0 0 0 .642-.749 18.183 18.183 0 0 0 1.463-4.031 10.822 10.822 0 0 0 .214-1.5.921.921 0 0 0-.678-1.07 7.781 7.781 0 0 0-1.03-.32Z" fill="#3e423e"/><path d="M13.216 28.768a5.771 5.771 0 0 1 1.463-.606c.571-.143 1.177-.25 1.748-.357a2.043 2.043 0 0 1 .285.25 11.877 11.877 0 0 1 1 .892 37.113 37.113 0 0 1 3 3.282c.464.571.928 1.142 1.356 1.748.071.107.178.25.25.357a1.751 1.751 0 0 1-.821.785 5.62 5.62 0 0 1-2.176.571l-.861-1.285c-.25-.357-.5-.749-.785-1.106a31.7 31.7 0 0 0-2.533-2.818 16.033 16.033 0 0 0-1.391-1.284c-.178-.143-.392-.285-.535-.428ZM31.553 26.343a56.96 56.96 0 0 1 1.213-.321 24.653 24.653 0 0 1 4.067 3.425 21.415 21.415 0 0 1 2.283 2.818c-.036.036-.036.107-.071.143a1.464 1.464 0 0 1-.642.749 6.376 6.376 0 0 1-1.141.465 7.886 7.886 0 0 1-.892.178 26.973 26.973 0 0 0-2.426-3.318 21.122 21.122 0 0 0-1.782-1.927 20.717 20.717 0 0 0-2-1.605 6.853 6.853 0 0 1 1.391-.607Z" fill="#727572"/><path d="M4.904 35.474c0 .071.036.285.071.5a1.689 1.689 0 0 0 .428.856c.071-.071.071-.107.178-.178a1.648 1.648 0 0 1 .25-.25 1.717 1.717 0 0 1-.285-1.106 3.226 3.226 0 0 1 .214-.928c.392-1.177.892-2.319 1.391-3.461.285-.678.678-1.32 1.035-2.069a8.9 8.9 0 0 0 .285.892.908.908 0 0 1 .071.25.464.464 0 0 1-.107.321 39.88 39.88 0 0 0-2.033 4.1 2.137 2.137 0 0 0-.214 1.284c.036.285 0 .285.107.392.071-.071.178-.107.285-.214.107-.071.285-.107.392-.178a1.482 1.482 0 0 1-.036-.464 2.362 2.362 0 0 1 .357-1.106c.143-.285.392-.749.642-1.356.071-.143.107-.285.178-.428l.214-.428.107-.214c.285-.5.571-.963.856-1.463.25.036.5.036.749.071a.582.582 0 0 1 .464.392c.428.892.821 1.784 1.284 2.64a14.358 14.358 0 0 0 2.176 3.246 2.955 2.955 0 0 0 2.1 1 18.385 18.385 0 0 0 3.96-.107 6.688 6.688 0 0 0 2.711-.963 5.2 5.2 0 0 0 1.819-2.283 20.7 20.7 0 0 0 1.605-4.6 1.133 1.133 0 0 1 .107-.321.628.628 0 0 1 .571-.392c.285-.036.357.214.428.392a20.258 20.258 0 0 0 2.355 3.853 17.726 17.726 0 0 0 1.356 1.5 3.511 3.511 0 0 0 1.712.928 9.264 9.264 0 0 0 2 .214 11.331 11.331 0 0 0 3.175-.5 6.515 6.515 0 0 0 2.462-1.035c.571-.5.928-1.106 1.784-4.245.321-1.213.606-2.212.785-2.925.036-.321.143-.464.214-.5.071-.071.107-.071.571-.214.107-.036.143-.071.178-.071.678-.25.785-.428.821-1.142v-.678c0-.5-.143-.714-.642-.821a10.448 10.448 0 0 0-2.961-.321c-1.605 0-1.142-.036-1.819 0a43.024 43.024 0 0 0-6.671.714 44.146 44.146 0 0 0-5.17 1.357 5.2 5.2 0 0 1-1.962.214c-1.391-.071-2.747-.178-4.138-.178a41.751 41.751 0 0 0-6.671.571 34.5 34.5 0 0 0-5.316 1.463 4.023 4.023 0 0 1-.856.285 2.455 2.455 0 0 0-.285.107.419.419 0 0 0-.178.214c-.821 1.391-1.641 3.211-1.641 3.211a17.835 17.835 0 0 0-1.391 3.282 3.25 3.25 0 0 0-.072.89Zm4.067-7.064a17.068 17.068 0 0 1 3.675-1.213 33.23 33.23 0 0 1 6.493-1 58.011 58.011 0 0 1 6.1.071 6.154 6.154 0 0 0 2.141-.178c.892-.25 1.784-.5 2.676-.714a39.146 39.146 0 0 1 7.028-1.213 37.237 37.237 0 0 1 4.888 0c.678.036 1.32.143 2.1.25-.036.392-.071.714-.107 1.035 0 .25-.143.357-.357.428-.285.107-.606.25-.892.357a.708.708 0 0 0-.392.5 27.976 27.976 0 0 1-1.21 4.176 25.49 25.49 0 0 1-.963 2.283 1.917 1.917 0 0 1-1.32 1.07c-.892.25-1.784.5-2.676.678a6.568 6.568 0 0 1-2.64.071 3.474 3.474 0 0 1-2.141-1.106 10.6 10.6 0 0 1-1-1.213c-.892-1.284-1.748-2.6-2.64-3.889a.974.974 0 0 0-.928-.464 1.126 1.126 0 0 0-1 .713c-.285.678-.571 1.356-.821 2.034a30.107 30.107 0 0 1-1.463 3.5 4.137 4.137 0 0 1-2.818 2.033 15.448 15.448 0 0 1-3.853.214 3.078 3.078 0 0 1-2.711-1.463c-.036-.036-.071-.071-.071-.107a36.2 36.2 0 0 1-2.925-4.959.888.888 0 0 0-.642-.535 7.143 7.143 0 0 1-.856-.143c-.107-.036-.321-.071-.357-.178a1.783 1.783 0 0 1-.318-1.037ZM21.671 42.962a2.724 2.724 0 0 0 .321.928 3.044 3.044 0 0 0 2.141 1.177 3.24 3.24 0 0 0 1.07.036 3.3 3.3 0 0 0 1.5-.642 6.855 6.855 0 0 1-1.962-.036 5.109 5.109 0 0 1-2.39-.856c-.288-.25-.537-.464-.68-.607Z" fill="#171c14"/><path d="M22.634 45.138a4.951 4.951 0 0 0 .928.357c.25.071.357.071.428.178a.328.328 0 0 1 .036.428.9.9 0 0 1-.25.143 1.349 1.349 0 0 1-1.213-.285.705.705 0 0 1-.25-.357c-.071-.214-.036-.464.107-.535a1.148 1.148 0 0 0 .214.071Z" fill="#769f35"/><g fill="#fff"><path d="m13.68 68.355.214-.071v-2.247l-.214-.071c-.143-.036-.178-.107-.178-.214 0-.036.036-.107.071-.107.036-.036.071-.036.143-.036h1c.071 0 .107 0 .143.036s.071.071.071.107c0 .107-.071.178-.178.25l-.178.071v.856h1.213v-.856l-.178-.071c-.143-.036-.178-.107-.178-.25 0-.036 0-.107.071-.107.036-.036.071-.036.143-.036h1.035c.071 0 .107 0 .143.036a.131.131 0 0 1 .036.107.226.226 0 0 1-.178.214l-.214.071v2.247l.214.071c.071.036.107.036.143.071a.131.131 0 0 1 .036.107.185.185 0 0 1-.071.143.273.273 0 0 1-.178.071h-.963a.273.273 0 0 1-.178-.071.185.185 0 0 1-.071-.143c0-.036 0-.107.036-.107.036-.036.071-.036.143-.071l.178-.071v-.927h-1.22v.927l.178.071c.071.036.107.036.143.071a.131.131 0 0 1 .036.107.185.185 0 0 1-.071.143.273.273 0 0 1-.178.071h-.964a.273.273 0 0 1-.178-.071.185.185 0 0 1-.071-.143c0-.036 0-.107.036-.107.106-.035.141-.071.213-.071Z"/><path d="M18.674 67.678h-1.141a.638.638 0 0 0 .714.642.988.988 0 0 0 .321-.036.624.624 0 0 1 .178-.036c.107 0 .143.071.143.178a.185.185 0 0 1-.071.143 1.088 1.088 0 0 1-.785.214 1.3 1.3 0 0 1-.856-.285 1.157 1.157 0 0 1-.321-.856 1.275 1.275 0 0 1 .321-.928 1.182 1.182 0 0 1 .856-.357.839.839 0 0 1 .678.25.92.92 0 0 1 .25.714c.07.214-.037.357-.287.357Zm-1.142-.357h.856c0-.357-.143-.535-.392-.535a.324.324 0 0 0-.285.143.8.8 0 0 0-.178.392ZM19.317 68.391l.214-.071v-1.462l-.214-.036c-.107-.036-.178-.071-.178-.178 0-.071 0-.107.036-.143a.185.185 0 0 1 .143-.071 2.087 2.087 0 0 1 .464-.071.267.267 0 0 1 .321.321v.143a1.281 1.281 0 0 1 .25-.357.688.688 0 0 1 .357-.107c.178 0 .25.071.25.25a.553.553 0 0 1-.071.285.2.2 0 0 1-.178.107.131.131 0 0 1-.107-.036.176.176 0 0 0-.107-.036.439.439 0 0 0-.357.178v1.213l.214.071c.107.036.178.107.178.178a.185.185 0 0 1-.071.143.272.272 0 0 1-.178.071h-.966a.272.272 0 0 1-.178-.071.185.185 0 0 1-.071-.143c0-.036 0-.107.036-.107.07-.035.141-.035.213-.071ZM21.279 68.355v-2.532l-.178-.036c-.107-.036-.178-.071-.178-.178 0-.071 0-.107.036-.143a.185.185 0 0 1 .143-.071 2.086 2.086 0 0 1 .464-.071.286.286 0 0 1 .357.357v.892l.036-.036a.839.839 0 0 1 .606-.214.913.913 0 0 1 .678.285 1.132 1.132 0 0 1 .25.821 1.191 1.191 0 0 1-.357.963 1.382 1.382 0 0 1-.963.357 1.006 1.006 0 0 1-.642-.143c-.181-.037-.252-.144-.252-.251Zm.642-1.32v1.213a.385.385 0 0 0 .321.107c.392 0 .571-.25.571-.785a.741.741 0 0 0-.143-.535.439.439 0 0 0-.357-.178.507.507 0 0 0-.214.071.246.246 0 0 0-.177.107ZM24.239 66.144a.368.368 0 1 0-.285-.107.4.4 0 0 0 .285.107ZM26.736 67.678h-1.141a.638.638 0 0 0 .713.642.988.988 0 0 0 .321-.036.625.625 0 0 1 .178-.036c.107 0 .143.071.143.178a.185.185 0 0 1-.071.143 1.087 1.087 0 0 1-.785.214 1.3 1.3 0 0 1-.856-.285 1.157 1.157 0 0 1-.321-.856 1.275 1.275 0 0 1 .321-.928 1.182 1.182 0 0 1 .856-.357.839.839 0 0 1 .678.25.92.92 0 0 1 .25.714.273.273 0 0 1-.286.357Zm-1.142-.357h.856c0-.357-.143-.535-.392-.535a.324.324 0 0 0-.285.143.58.58 0 0 0-.178.392ZM27.736 68.141l.036.143a.9.9 0 0 0 .357.071c.25 0 .392-.071.392-.25q0-.161-.428-.321a2.445 2.445 0 0 1-.285-.107 2.053 2.053 0 0 1-.25-.143 1.208 1.208 0 0 1-.214-.214.672.672 0 0 1-.071-.285.642.642 0 0 1 .25-.535 1.171 1.171 0 0 1 .749-.178c.321 0 .535.036.606.143a.416.416 0 0 1 .071.25v.25a.169.169 0 0 1-.178.178.226.226 0 0 1-.214-.178l-.036-.143a.988.988 0 0 0-.321-.036q-.321 0-.321.214c0 .107.143.214.428.285a2.442 2.442 0 0 1 .285.107 2.052 2.052 0 0 1 .25.143l.214.214a.852.852 0 0 1 .071.321.678.678 0 0 1-.285.535 1.282 1.282 0 0 1-.785.214c-.321 0-.571-.036-.642-.143a.416.416 0 0 1-.071-.25v-.25a.168.168 0 0 1 .178-.178.2.2 0 0 1 .214.143Z"/><path d="M27.664 69.929a1.381 1.381 0 0 0-.928-.107.529.529 0 0 1-.25-.036 3.164 3.164 0 0 0-.606-.285.074.074 0 0 1 0-.143 1.5 1.5 0 0 1 .571-.036c.071 0 .107-.071.036-.107a1.57 1.57 0 0 0-1.07-.036.491.491 0 0 1-.392-.036h-.036a.765.765 0 0 1-.392-.678v-1.677a.286.286 0 0 0-.357-.357 2.411 2.411 0 0 0-.5.071c-.071.036-.107.036-.143.071s-.036.071-.036.143a.169.169 0 0 0 .178.178l.214.036v1.891a1.42 1.42 0 0 1-.321.749.272.272 0 0 1-.178.071c-.143.036-.321.071-.464.107-.107.036-.071.214.036.178h.111c.036 0 .071.036.036.071a3.453 3.453 0 0 0-.642 1.106.08.08 0 0 0 .143.071 2.95 2.95 0 0 1 .25-.464.109.109 0 0 1 .143 0c0 .036.036.071.036.107a.077.077 0 0 0 .143-.036.321.321 0 0 0-.036-.178.568.568 0 0 1 .107-.464 3.22 3.22 0 0 1 .321-.357c.071-.071.178 0 .178.107a3.238 3.238 0 0 0-.107.821.054.054 0 0 0 .107 0 5.214 5.214 0 0 1 .178-.714.088.088 0 0 1 .143-.036.035.035 0 0 1 .036.036c.036.036.071 0 .071-.036-.036-.036-.036-.071-.071-.107a.22.22 0 0 1-.036-.25.6.6 0 0 1 .071-.178.261.261 0 0 1 .392-.107 1.106 1.106 0 0 1 .214.143.2.2 0 0 1 .107.178 1.114 1.114 0 0 0 .107.749c.036.036.107.036.107-.036a2.7 2.7 0 0 1 .036-.535.213.213 0 0 1 .285-.143c.071.036.143.036.178.071a.476.476 0 0 1 .214.178 2.657 2.657 0 0 1 .392.856c0 .071.143.071.143 0a1.387 1.387 0 0 0-.071-.535c-.036-.071.036-.107.107-.071a4.124 4.124 0 0 1 1 .928c.036.071.143 0 .107-.071a2.726 2.726 0 0 0-.606-.821.088.088 0 0 1 .036-.143 1.948 1.948 0 0 1 .642.036c.102-.034.139-.141.066-.173Z"/></g><path d="M16.463 64.896c-.036 0-.036-.036-.071-.036a.419.419 0 0 1-.357-.392c0-.143-.036-.285-.036-.428 0-.892.071-1.748.143-2.64a5.921 5.921 0 0 1 .107-.785c.071-.357.107-.714.214-1.07a.8.8 0 0 0 0-.642c0-.036 0-.071-.036-.071a.6.6 0 0 1 .357-.678.774.774 0 0 1 .928.392.755.755 0 0 1-.178.892.309.309 0 0 0-.107.214c0 .607-.071 1.249-.036 1.855 0 .535.036 1.106.071 1.641a10.128 10.128 0 0 0 .214 1.106.444.444 0 0 1-.285.535l-.214.107c0 .071.036.143.036.214s.036.143.036.25a.309.309 0 0 1-.321.392c-.25 0-.357-.071-.392-.321-.036-.178-.036-.357-.071-.535Zm.928-.464c-.036-.143-.036-.25-.071-.392a9.178 9.178 0 0 1-.214-2.426c.036-.749.071-1.534.071-2.283v-.143a.113.113 0 0 0-.214-.071c-.036.071-.107.143-.107.214a5.688 5.688 0 0 0-.214 1.07c-.036.5-.107 1.035-.143 1.534l-.107 2.248a.988.988 0 0 0 .036.321 1.031 1.031 0 0 0 .962-.072Zm-.25-5.958c-.25-.036-.357.071-.392.392.392-.285.606-.107.785.178a.454.454 0 0 0-.393-.57Zm-.142 6.422a1.512 1.512 0 0 0-.178.071.678.678 0 0 0 .107.5c.106-.179.034-.357.071-.571Z" fill="#730173"/><path d="M16.391 64.504a1 1 0 0 0 1-.071c-.036-.143-.036-.25-.071-.392a9.179 9.179 0 0 1-.214-2.426c.036-.749.071-1.534.071-2.283v-.143a.113.113 0 0 0-.214-.071c-.036.071-.107.143-.107.214a5.688 5.688 0 0 0-.214 1.07c-.036.5-.107 1.035-.143 1.534l-.107 2.247c-.036.072-.001.179-.001.321Z" fill="#e5ace1"/><path d="M17.497 59.046a.435.435 0 0 0-.357-.571c-.25-.036-.357.071-.392.392.392-.28.571-.106.749.179Z" fill="#efcbee"/><path d="M16.926 65.502c.107-.178.036-.357.071-.607a1.5 1.5 0 0 0-.178.071.735.735 0 0 0 .107.536Z" fill="#774276"/><path d="M16.141 60.437a12.774 12.774 0 0 1 .394-1.249 1.79 1.79 0 0 1-.071.428l-.214 1.07c-.036.25-.071.535-.107.785-.071.856-.143 1.748-.143 2.64a1.737 1.737 0 0 0 .036.428.364.364 0 0 0 .357.392c.036 0 .036 0 .071.036a.035.035 0 0 1 .036.036c.036.178.036.392.071.571 0 .071.036.107.036.143s-.036.036-.036.071c-.036.036-.036.036-.071.036h-.143c-.107-.036-.214-.071-.25-.178a1.213 1.213 0 0 1-.036-.357.241.241 0 0 0-.143-.214c-.107 0-.143 0-.214-.071l-.036-.036h-.036l-.036-.036-.036-.036c0-.036-.036-.071-.036-.107v-.607c0-.143.036-.285.036-.428.071-.5.107-.963.214-1.427a11.931 11.931 0 0 1 .357-1.89Z" fill="#af68aa"/><path d="M27.629 59.223a.347.347 0 0 0-.321-.036c-.107.036-.178.143-.25.214a.688.688 0 0 0-.107.357.077.077 0 0 0 .071.071c.036 0 .071-.036.107-.071 0-.071.036-.107.036-.143v-.036a.777.777 0 0 1 .178-.107.162.162 0 0 1 .178 0c.036 0 .036 0 .071.036a.035.035 0 0 1 .036.036v.25c0 .036.071.071.107.071s.036-.036.036-.071v-.107a.351.351 0 0 0-.142-.464Z" fill="#efcbee"/><path d="M27.45 59.758a.163.163 0 0 0-.178.143 2.706 2.706 0 0 0-.107.571c-.071.571-.107 1.142-.143 1.712a21.935 21.935 0 0 0 0 2.176 4.876 4.876 0 0 0 .25 1.605c.036.071.036.107.071.178a1.17 1.17 0 0 0 .678-.143c0-.107-.036-.214-.036-.321a22.261 22.261 0 0 1-.464-4.352v-1.32a.3.3 0 0 1-.071-.249Z" fill="#e5ace1"/><path d="M27.736 66.858v-.321q-.268 0 0 .321Z" fill="#774276"/><path d="M26.665 64.503a5.159 5.159 0 0 0 .321 1.641.74.74 0 0 0 .214.357.273.273 0 0 1 .071.178 1.132 1.132 0 0 0 .107.321.077.077 0 0 0 .071.071.223.223 0 0 1-.285-.036c-.143-.143-.071-.357-.25-.464-.143-.071-.285-.036-.392-.143a.57.57 0 0 1-.178-.357l-.107-.642v-.678c.036-.392.036-.785.071-1.213.036-.464.071-.892.143-1.356s.143-.892.25-1.356a3.507 3.507 0 0 1 .178-.571c0-.036.036-.107.036-.143a1.213 1.213 0 0 0-.036.357l-.107 1.284a14.383 14.383 0 0 0-.107 2.75Z" fill="#af68aa"/><path d="M26.701 61.791a17.148 17.148 0 0 0-.036 2.711 5.159 5.159 0 0 0 .321 1.641.74.74 0 0 0 .214.357.272.272 0 0 1 .071.178 1.134 1.134 0 0 0 .107.321.3.3 0 0 0 .392.178c.178-.036.25-.143.25-.357a1.791 1.791 0 0 0-.071-.428c.036-.036.036-.036.071-.036a.322.322 0 0 0 .214-.214.613.613 0 0 0 .036-.285 1.182 1.182 0 0 0-.143-.535 4.478 4.478 0 0 1-.143-1.177 12.038 12.038 0 0 0-.143-1.249 14.207 14.207 0 0 1-.107-2.64 1.5 1.5 0 0 1 .071-.178.679.679 0 0 0 .178-.678c-.107-.464-.392-.606-.856-.464a.726.726 0 0 0-.464.749 1 1 0 0 0 .178.392c-.036.143-.036.285-.071.428.002.466-.035.894-.069 1.286Zm1.035 5.066q-.268-.321 0-.321Zm-.464-7.635a.409.409 0 0 1 .428.143.484.484 0 0 1 .036.535.443.443 0 0 0-.285-.428.428.428 0 0 0-.464.464.59.59 0 0 1 .284-.713Zm-.285 2.961c.036-.571.071-1.142.143-1.712.036-.178.071-.357.107-.571.036-.071.071-.143.178-.143 0 .071.036.143.036.25v1.32a22.26 22.26 0 0 0 .464 4.352.988.988 0 0 1 .036.321 1.115 1.115 0 0 1-.678.143c-.036-.071-.036-.107-.071-.178a5.025 5.025 0 0 1-.25-1.605c.034-.713.034-1.427.034-2.176Z" fill="#730173"/></g></svg>