<?xml version="1.0" encoding="utf-8"?>
<!-- Generator: Adobe Illustrator 26.4.1, SVG Export Plug-In . SVG Version: 6.00 Build 0)  -->
<svg version="1.1" id="Layer_1" xmlns="http://www.w3.org/2000/svg" xmlns:xlink="http://www.w3.org/1999/xlink" x="0px" y="0px"
	 viewBox="0 0 1920 556" style="enable-background:new 0 0 1920 556;" xml:space="preserve">
<style type="text/css">
	.st0{fill:#FF6D00;}
	.st1{fill:#3A3A3A;}
</style>
<g>
	<polygon class="st0" points="380.47,166.33 311.28,166.33 298.34,91.51 380.47,91.51 	"/>
	<polygon class="st0" points="246.11,326.44 188.67,316.95 163.97,251.63 235.41,251.63 	"/>
	<g>
		<path class="st1" d="M583.26,26.92c0.52-4.66,5.17-8.29,9.32-8.29h8.29c2.58,0,7.25,2.07,8.79,5.17l120.08,223.6h1.04
			l120.08-223.6c1.56-3.11,6.21-5.17,8.79-5.17h8.29c4.14,0,8.79,3.62,9.31,8.29l58.48,347.82c1.04,6.73-3.62,11.39-9.83,11.39
			h-61.08c-4.66,0-9.31-4.14-9.83-8.29l-23.29-159.93h-1.04l-86.96,167.7c-1.56,3.11-6.21,5.69-8.79,5.69h-9.31
			c-3.11,0-7.25-2.58-8.8-5.69l-87.47-167.7h-1.04l-22.77,159.93c-0.52,4.14-4.66,8.29-9.84,8.29h-61.08
			c-6.21,0-10.87-4.66-9.83-11.39L583.26,26.92z"/>
		<path class="st1" d="M981.29,336.95l24.33-42.96c4.14-6.73,13.98-5.69,17.6-3.11c2.07,1.04,39.33,28.46,73.5,28.46
			c20.71,0,35.71-12.94,35.71-31.06c0-21.73-18.12-38.31-53.31-52.27c-44.51-17.6-100.41-52.27-100.41-114.39
			c0-51.24,39.85-103,119.56-103c53.83,0,95.23,27.44,110.77,38.82c6.21,3.62,5.17,12.94,3.11,16.56l-26.4,39.85
			c-3.62,5.69-12.94,10.35-17.6,6.73c-4.66-2.59-42.44-31.06-74.02-31.06c-18.63,0-32.61,12.42-32.61,26.4
			c0,19.15,15.52,33.64,56.42,50.21c40.37,16.04,104.56,47.62,104.56,118.01c0,53.31-46.06,107.14-122.15,107.14
			c-67.29,0-104.56-27.95-116.46-39.85C978.69,346.26,977.15,344.2,981.29,336.95z"/>
		<path class="st1" d="M1285.1,27.95c0-5.17,4.66-9.31,9.83-9.31h12.94l206.52,198.75h0.52V33.65c0-5.17,4.14-9.83,9.83-9.83h62.11
			c5.17,0,9.83,4.66,9.83,9.83v348.33c0,5.17-4.66,9.31-9.83,9.31h-8.29c-1.56,0-5.69-1.56-6.73-2.58L1367.4,183.24h-0.52V376.3
			c0,5.17-4.14,9.83-9.83,9.83h-61.6c-5.17,0-9.83-4.66-9.83-9.83L1285.1,27.95z"/>
		<path class="st1" d="M1685.72,33.65c0-5.17,4.14-9.83,9.83-9.83h61.6c5.17,0,9.83,4.66,9.83,9.83v276.39h123.19
			c5.69,0,9.83,4.66,9.83,9.83v56.42c0,5.17-4.14,9.83-9.83,9.83h-194.62c-5.69,0-9.83-4.66-9.83-9.83L1685.72,33.65L1685.72,33.65z
			"/>
	</g>
	<path class="st1" d="M53.03,456.5c19.19,0,34.54,15.45,34.54,34.63c0,19.19-15.35,34.44-34.54,34.44s-34.44-15.25-34.44-34.44
		C18.6,471.95,33.85,456.5,53.03,456.5z M53.03,510.22c10.55,0,19.19-8.63,19.19-19.09c0-10.55-8.63-19.28-19.19-19.28
		c-10.46,0-19.09,8.73-19.09,19.28C33.95,501.59,42.58,510.22,53.03,510.22z"/>
	<path class="st1" d="M116.16,459.28c0-0.96,0.77-1.83,1.83-1.83h28.69c11.51,0,20.91,9.31,20.91,20.72
		c0,8.83-5.85,15.93-14.2,19.28l13.14,24.36c0.67,1.25,0,2.78-1.63,2.78h-12.76c-0.77,0-1.35-0.48-1.53-0.86l-12.76-25.43h-6.62
		v24.46c0,0.96-0.86,1.83-1.83,1.83h-11.41c-1.05,0-1.83-0.86-1.83-1.83V459.28z M145.41,486.14c3.94,0,7.29-3.64,7.29-7.67
		c0-4.03-3.36-7.29-7.29-7.29h-14.2v14.97h14.2V486.14z"/>
	<path class="st1" d="M197.41,459.28c0-0.96,0.86-1.83,1.83-1.83h11.51c0.96,0,1.83,0.86,1.83,1.83v63.51
		c0,0.96-0.86,1.83-1.83,1.83h-11.51c-0.96,0-1.83-0.86-1.83-1.83V459.28z"/>
	<path class="st1" d="M275.69,456.6c8.06,0,16.88,3.36,23.4,9.01c0.86,0.67,0.96,1.83,0.2,2.59l-7.58,8.06
		c-0.77,0.67-1.83,0.67-2.59,0.1c-3.64-3.36-7.87-4.61-12.57-4.61c-10.46,0-18.89,8.83-18.89,19.38c0,10.46,8.53,19.09,18.99,19.09
		c2.78,0,5.66-0.38,8.53-1.53v-5.56h-6.04c-1.05,0-1.83-0.77-1.83-1.73v-9.5c0-1.05,0.77-1.83,1.83-1.83h19.28
		c0.96,0,1.73,0.86,1.73,1.83l0.1,25.81c0,0.48-0.38,1.25-0.77,1.53c0,0-9.88,6.24-23.8,6.24c-19.09,0-34.44-15.15-34.44-34.34
		C241.25,471.95,256.6,456.6,275.69,456.6z"/>
	<path class="st1" d="M330.37,459.28c0-0.96,0.86-1.83,1.83-1.83h11.51c0.96,0,1.83,0.86,1.83,1.83v63.51
		c0,0.96-0.86,1.83-1.83,1.83H332.2c-0.96,0-1.83-0.86-1.83-1.83V459.28z"/>
	<path class="st1" d="M378.9,458.23c0-0.96,0.86-1.73,1.83-1.73h2.4l38.28,36.84h0.1v-34.06c0-0.96,0.77-1.83,1.83-1.83h11.51
		c0.96,0,1.83,0.86,1.83,1.83v64.56c0,0.96-0.86,1.73-1.83,1.73h-1.53c-0.28,0-1.05-0.28-1.25-0.48L394.18,487h-0.1v35.79
		c0,0.96-0.77,1.83-1.83,1.83h-11.41c-0.96,0-1.83-0.86-1.83-1.83L378.9,458.23z"/>
	<path class="st1" d="M461.5,522.11l30.02-64.56c0.28-0.58,0.96-1.05,1.63-1.05h0.96c0.67,0,1.35,0.48,1.63,1.05l30.02,64.56
		c0.58,1.25-0.2,2.49-1.63,2.49h-10.64c-1.73,0-2.49-0.58-3.36-2.4l-3.46-7.58h-26.09l-3.46,7.67c-0.48,1.15-1.53,2.3-3.46,2.3
		h-10.56C461.69,524.6,460.92,523.36,461.5,522.11z M500.93,501.59l-7.29-15.83h-0.1l-7.2,15.83H500.93z"/>
	<path class="st1" d="M550.62,459.28c0-0.96,0.77-1.83,1.83-1.83h11.41c0.96,0,1.83,0.86,1.83,1.83v51.22h22.83
		c1.05,0,1.83,0.86,1.83,1.83v10.46c0,0.96-0.77,1.83-1.83,1.83h-36.07c-1.05,0-1.83-0.86-1.83-1.83L550.62,459.28L550.62,459.28z"
		/>
	<path class="st1" d="M650.96,515.49l4.51-7.97c0.77-1.25,2.59-1.05,3.26-0.58c0.38,0.2,7.29,5.27,13.62,5.27
		c3.84,0,6.62-2.4,6.62-5.75c0-4.03-3.36-7.1-9.88-9.69c-8.25-3.26-18.61-9.69-18.61-21.2c0-9.5,7.38-19.09,22.15-19.09
		c9.98,0,17.65,5.09,20.52,7.2c1.15,0.67,0.96,2.4,0.58,3.08l-4.89,7.38c-0.67,1.05-2.4,1.91-3.26,1.25
		c-0.86-0.48-7.87-5.75-13.72-5.75c-3.46,0-6.04,2.3-6.04,4.89c0,3.54,2.88,6.24,10.46,9.31c7.48,2.98,19.38,8.83,19.38,21.87
		c0,9.88-8.53,19.86-22.64,19.86c-12.47,0-19.38-5.17-21.59-7.38C650.48,517.22,650.19,516.84,650.96,515.49z"/>
	<path class="st1" d="M724.35,459.28c0-0.96,0.77-1.83,1.83-1.83h39.71c1.05,0,1.83,0.86,1.83,1.83v10.46
		c0,0.96-0.77,1.83-1.83,1.83h-26.57v11.89h21.87c0.96,0,1.83,0.86,1.83,1.83v10.46c0,1.05-0.86,1.83-1.83,1.83h-21.87v12.95h26.57
		c1.05,0,1.83,0.86,1.83,1.83v10.46c0,0.96-0.77,1.83-1.83,1.83h-39.71c-1.05,0-1.83-0.86-1.83-1.83V459.28z"/>
	<path class="st1" d="M797.54,459.28c0-0.96,0.77-1.83,1.83-1.83h39.71c1.05,0,1.83,0.86,1.83,1.83v10.46
		c0,0.96-0.77,1.83-1.83,1.83H812.5v11.89h21.87c0.96,0,1.83,0.86,1.83,1.83v10.46c0,1.05-0.86,1.83-1.83,1.83H812.5v12.95h26.57
		c1.05,0,1.83,0.86,1.83,1.83v10.46c0,0.96-0.77,1.83-1.83,1.83h-39.71c-1.05,0-1.83-0.86-1.83-1.83V459.28z"/>
	<path class="st1" d="M870.73,459.28c0-0.96,0.77-1.83,1.73-1.83h23.4c18.51,0,33.68,15.07,33.68,33.48
		c0,18.61-15.15,33.68-33.68,33.68h-23.4c-0.96,0-1.73-0.86-1.73-1.83V459.28z M894.91,510.42c10.84,0,18.71-8.53,18.71-19.47
		c0-10.84-7.87-19.38-18.71-19.38h-9.21v38.85H894.91z"/>
	<path class="st1" d="M958.22,459.28c0-0.96,0.77-1.83,1.83-1.83h22.35c11.32,0,20.62,7.77,20.62,17.84
		c0,7.38-6.62,12.76-11.13,15.15c5.09,2.11,12.86,6.82,12.86,15.63c0,10.74-9.5,18.51-20.91,18.51h-23.8
		c-1.05,0-1.83-0.86-1.83-1.83L958.22,459.28L958.22,459.28z M980.67,484.71c3.64,0,6.72-3.08,6.72-6.9s-3.08-6.52-6.72-6.52h-7.48
		v13.44h7.48V484.71z M981.92,510.89c3.74,0,6.9-3.08,6.9-7c0-3.84-4.12-6.72-7.87-6.72h-7.77v13.72H981.92z"/>
	<path class="st1" d="M1025.27,522.11l30.02-64.56c0.28-0.58,0.96-1.05,1.63-1.05h0.96c0.67,0,1.35,0.48,1.63,1.05l30.02,64.56
		c0.58,1.25-0.2,2.49-1.63,2.49h-10.64c-1.73,0-2.49-0.58-3.36-2.4l-3.46-7.58h-26.09l-3.46,7.67c-0.48,1.15-1.53,2.3-3.46,2.3
		h-10.55C1025.47,524.6,1024.71,523.36,1025.27,522.11z M1064.7,501.59l-7.29-15.83h-0.1l-7.2,15.83H1064.7z"/>
	<path class="st1" d="M1114.3,458.23c0-0.96,0.86-1.73,1.83-1.73h2.4l38.28,36.84h0.1v-34.06c0-0.96,0.77-1.83,1.83-1.83h11.51
		c0.96,0,1.83,0.86,1.83,1.83v64.56c0,0.96-0.86,1.73-1.83,1.73h-1.53c-0.28,0-1.05-0.28-1.25-0.48L1129.57,487h-0.1v35.79
		c0,0.96-0.77,1.83-1.83,1.83h-11.41c-0.96,0-1.83-0.86-1.83-1.83L1114.3,458.23z"/>
	<path class="st1" d="M1205.53,459.76c0-1.25,0.96-2.3,2.3-2.3h11.22c1.25,0,2.3,1.05,2.3,2.3v25.23l21.3-26.57
		c0.38-0.48,1.25-0.96,1.83-0.96h12.09c1.83,0,2.78,2.11,1.73,3.54l-22.45,28.11l24.46,31.85c1.05,1.44,0,3.54-1.83,3.54h-13.24
		c-0.67,0-1.53-0.38-1.73-0.67l-22.17-30.12v28.59c0,1.25-1.05,2.3-2.3,2.3h-11.22c-1.35,0-2.3-1.05-2.3-2.3L1205.53,459.76
		L1205.53,459.76z"/>
	<path class="st1" d="M1321.41,515.49l4.51-7.97c0.77-1.25,2.59-1.05,3.26-0.58c0.38,0.2,7.29,5.27,13.62,5.27
		c3.84,0,6.62-2.4,6.62-5.75c0-4.03-3.36-7.1-9.88-9.69c-8.25-3.26-18.61-9.69-18.61-21.2c0-9.5,7.38-19.09,22.17-19.09
		c9.98,0,17.65,5.09,20.52,7.2c1.15,0.67,0.96,2.4,0.58,3.08l-4.89,7.38c-0.67,1.05-2.4,1.91-3.26,1.25
		c-0.86-0.48-7.87-5.75-13.72-5.75c-3.46,0-6.04,2.3-6.04,4.89c0,3.54,2.88,6.24,10.46,9.31c7.48,2.98,19.38,8.83,19.38,21.87
		c0,9.88-8.53,19.86-22.64,19.86c-12.47,0-19.38-5.17-21.59-7.38C1320.93,517.22,1320.64,516.84,1321.41,515.49z"/>
	<path class="st1" d="M1394.8,459.28c0-0.96,0.86-1.83,1.83-1.83h11.51c0.96,0,1.83,0.86,1.83,1.83v63.51
		c0,0.96-0.86,1.83-1.83,1.83h-11.51c-0.96,0-1.83-0.86-1.83-1.83V459.28z"/>
	<path class="st1" d="M1443.33,458.23c0-0.96,0.86-1.73,1.83-1.73h2.4l38.28,36.84h0.1v-34.06c0-0.96,0.77-1.83,1.83-1.83h11.51
		c0.96,0,1.83,0.86,1.83,1.83v64.56c0,0.96-0.86,1.73-1.83,1.73h-1.53c-0.28,0-1.05-0.28-1.25-0.48L1458.6,487h-0.1v35.79
		c0,0.96-0.77,1.83-1.83,1.83h-11.41c-0.96,0-1.83-0.86-1.83-1.83L1443.33,458.23z"/>
	<path class="st1" d="M1564.3,456.5c9.6,0,16.7,2.98,23.22,8.92c0.86,0.77,0.86,1.91,0.1,2.68l-7.48,7.77
		c-0.67,0.67-1.73,0.67-2.4,0c-3.54-3.16-8.25-4.89-12.95-4.89c-10.84,0-18.81,9.01-18.81,19.76c0,10.64,8.06,19.47,18.89,19.47
		c4.51,0,9.4-1.63,12.86-4.61c0.67-0.58,1.91-0.58,2.49,0.1l7.48,7.97c0.67,0.67,0.58,1.91-0.1,2.59
		c-6.52,6.33-14.77,9.31-23.31,9.31c-19.19,0-34.63-15.25-34.63-34.44C1529.67,471.95,1545.12,456.5,1564.3,456.5z"/>
	<path class="st1" d="M1616.1,459.28c0-0.96,0.77-1.83,1.83-1.83h39.71c1.05,0,1.83,0.86,1.83,1.83v10.46
		c0,0.96-0.77,1.83-1.83,1.83h-26.57v11.89h21.87c0.96,0,1.83,0.86,1.83,1.83v10.46c0,1.05-0.86,1.83-1.83,1.83h-21.87v12.95h26.57
		c1.05,0,1.83,0.86,1.83,1.83v10.46c0,0.96-0.77,1.83-1.83,1.83h-39.71c-1.05,0-1.83-0.86-1.83-1.83V459.28z"/>
	<path class="st0" d="M1721.05,474.34c0-10.08,6.72-15.35,8.92-17.16c0.67-0.48,1.35-0.67,2.11,0.2l1.44,1.44
		c0.67,0.77,0.48,1.63-0.1,2.11c-1.05,0.77-6.72,4.99-6.82,11.51c0,0,1.63-0.67,3.84-0.67c3.74,0,6.9,2.98,6.9,6.82
		c0,3.74-3.16,6.9-7.58,6.9C1726.13,485.47,1721.05,482.69,1721.05,474.34z"/>
	<path class="st0" d="M1767.57,514.44c4.51-1.44,17.26-5.85,19.28-15.73c-2.49,1.05-6.52,1.91-9.11,1.91
		c-9.01,0-19.09-6.62-19.09-20.82c0-12.09,9.98-21.97,21.97-21.97c14.87,0,23.12,11.13,23.12,26.09c0,28.2-23.4,39.62-32.23,42.21
		c-1.44,0.38-2.49-0.2-2.98-1.53l-2.78-7.38C1765.37,516.07,1765.66,515.01,1767.57,514.44z M1790.02,480.28
		c0-4.99-4.12-9.21-9.21-9.21c-5.09,0-9.21,4.22-9.21,9.21c0,5.09,4.12,9.31,9.21,9.31C1785.9,489.6,1790.02,485.37,1790.02,480.28z
		"/>
	<path class="st0" d="M1836.07,514.44c4.51-1.44,17.26-5.85,19.28-15.73c-2.49,1.05-6.52,1.91-9.11,1.91
		c-9.01,0-19.09-6.62-19.09-20.82c0-12.09,9.98-21.97,21.97-21.97c14.87,0,23.12,11.13,23.12,26.09c0,28.2-23.4,39.62-32.23,42.21
		c-1.44,0.38-2.49-0.2-2.98-1.53l-2.78-7.38C1833.86,516.07,1834.14,515.01,1836.07,514.44z M1858.51,480.28
		c0-4.99-4.12-9.21-9.21-9.21s-9.21,4.22-9.21,9.21c0,5.09,4.12,9.31,9.21,9.31S1858.51,485.37,1858.51,480.28z"/>
	<g>
		<path class="st1" d="M163.06,135.57h8c0.68,0,1.22-0.54,1.28-1.09l2.98-20.94h0.14l11.45,21.96c0.2,0.41,0.74,0.74,1.15,0.74h1.22
			c0.33,0,0.95-0.33,1.15-0.74l11.39-21.96h0.14l3.05,20.94c0.07,0.54,0.68,1.09,1.28,1.09h8c0.82,0,1.42-0.61,1.28-1.49
			l-7.66-45.53c-0.06-0.61-0.68-1.09-1.22-1.09h-1.09c-0.33,0-0.95,0.27-1.15,0.68l-15.72,29.28h-0.14l-15.72-29.28
			c-0.2-0.41-0.82-0.68-1.15-0.68h-1.09c-0.54,0-1.15,0.47-1.22,1.09l-7.66,45.53C161.64,134.96,162.24,135.57,163.06,135.57z"/>
		<path class="st1" d="M526.06,125.18c-2.35-3.05-18.23-22.01-21.02-26.66c-2.43-4.06-9.35-18.14-21.09-22.59
			c-11.74-4.45-8.19-21.93-8.8-26.76c-0.62-4.82-5.83-20.89-15.2-24.6c-9.4-3.7-22.73-4.94-23.23,4.45c0,0-2.22,3.46-1.48,5.19
			c0.74,1.73-1.36,4.57-1.85,6.05c-0.49,1.48-0.12,3.58-0.12,4.45c0,0.86-3.46,5.06-3.58,5.93c-0.12,0.86,1.85,0.62,1.85,1.36
			c0,0.74-1.25,2.84-1.86,3.83c-0.62,0.99,0.74,1.73,0.49,2.1c-0.25,0.37-0.49,1.36,0,1.85s-0.62,3.58,0.49,5.19
			c1.11,1.61,3.95,1.48,6.05,3.21c2.1,1.73,3.7,6.3-0.86,6.42c-4.57,0.12-9.4-0.12-13.23,0.49c-3.27,0.53-9.58-5.29-11.63-6.73
			c-0.23-0.54-0.72-0.95-1.32-1.07C266.06,38.61,136.91,67,135.62,67.29c-0.48,0.11-0.88,0.42-1.14,0.82
			c-1.43,0.73-8.51,7.56-12.03,6.99c-3.83-0.62-8.66-0.37-13.23-0.49c-4.57-0.12-2.96-4.69-0.86-6.42c2.1-1.73,4.94-1.61,6.05-3.21
			c1.11-1.61,0-4.69,0.49-5.19c0.49-0.49,0.25-1.48,0-1.85s1.11-1.11,0.49-2.1c-0.62-0.99-1.86-3.09-1.86-3.83s1.98-0.49,1.85-1.36
			c-0.12-0.86-3.58-5.06-3.58-5.93c0-0.86,0.37-2.96-0.12-4.45c-0.49-1.48-2.59-4.32-1.85-6.05c0.74-1.73-1.48-5.19-1.48-5.19
			c-0.49-9.4-13.84-8.16-23.24-4.45c-9.37,3.7-14.58,19.77-15.2,24.6c-0.62,4.82,2.94,22.3-8.8,26.76
			c-11.74,4.45-18.66,18.52-21.09,22.59c-2.79,4.66-18.67,23.62-21.02,26.66c-1.74,2.25,0.79,6.36,1.48,7.16
			c1.58,1.85,28.44,27.19,32.13,28.86c2.14,0.96,4.83,4.14,6.43,5.99c1.61,1.85,5.8,2.72,5.8,2.72s-1.61,1.11-9.52,14.46
			s-1.73,29.41,0.99,36.08c2.72,6.67,6.46,45.16,6.35,52c-0.12,7.64,1.19,12.26-0.67,18.2c-1.85,5.93-1.53,19.14,2.84,31.87
			c2.24,6.52,0.72,23.29-2.47,30.87c-3.93,9.32,3.58,15.37,6.43,16.61c2.84,1.23,9.03,14.71,12.61,16.93
			c3.58,2.22,12.36,1.11,15.7-1.85c3.33-2.96-6.3-3.83-8.41-8.29c-2.1-4.45-7.4-18.6-8.26-20.94c-0.86-2.35-0.63-8.8-1.37-12.77
			c-0.74-3.95,1.48-31.66,1.61-38.47c0.12-6.8,0.64-9.77,3.41-17.4c2.63-7.27,2.22-14.62,2.56-19.44c0.3-4.33,4.67-31.75,6.33-42.63
			s6.98-0.49,8.95,3.58c1.98,4.07,21.62,34.35,24.48,37.07c2.84,2.72,5.68,10.88,3.95,16.56c-1.73,5.68-3.21,12.37-2.59,18.93
			c0.62,6.56,8.16,33.6,8.41,39.03c0.25,5.43-1.73,6.54-5.31,12.24c-3.58,5.68,3.46,10.63,7.29,11.74s9.4,13.97,12.48,17.79
			s9.4,1.11,15.57,0c6.17-1.11-3.7-8.9-7.79-11.37s-5.24-13.37-5.61-15.97c-0.37-2.59-3.05-8.5-2.89-10.22
			c0.16-1.73-1.15-8.04-2.01-12.36c-0.53-2.67-0.69-9.18-0.68-15.4c1.59,2.54,3.3,5.03,5.16,7.41c9.04,11.6,20.89,20.6,34.26,26.02
			l85.61,34.75c0.22,0.09,0.46,0.14,0.69,0.14s0.47-0.05,0.7-0.14l85.12-34.71c13.36-5.45,25.18-14.45,34.18-26.01
			c1.74-2.24,3.36-4.56,4.87-6.95c0,6.08-0.16,12.3-0.68,14.89c-0.86,4.32-2.17,10.63-2.01,12.36c0.16,1.73-2.52,7.63-2.89,10.22
			c-0.37,2.59-1.52,13.5-5.61,15.97c-4.07,2.47-13.97,10.26-7.79,11.37c6.17,1.11,12.48,3.83,15.57,0
			c3.09-3.83,8.66-16.68,12.48-17.79c3.83-1.11,10.88-6.05,7.29-11.74c-3.58-5.68-5.56-6.79-5.31-12.24s7.79-32.49,8.41-39.03
			c0.62-6.54-0.86-13.24-2.59-18.93c-1.73-5.68,1.11-13.84,3.95-16.56c2.84-2.72,22.49-33,24.48-37.07
			c1.98-4.07,7.29-14.46,8.95-3.58c1.67,10.88,6.04,38.29,6.33,42.63c0.33,4.82-0.07,12.16,2.56,19.44
			c2.75,7.63,3.28,10.61,3.41,17.4c0.12,6.79,2.35,34.5,1.61,38.47c-0.74,3.96-0.51,10.41-1.37,12.77
			c-0.86,2.35-6.16,16.5-8.26,20.94c-2.1,4.45-11.74,5.31-8.41,8.29c3.33,2.98,12.11,4.07,15.7,1.85
			c3.58-2.22,9.77-15.7,12.61-16.93c2.84-1.23,10.36-7.27,6.43-16.61c-3.19-7.57-4.72-24.35-2.47-30.87
			c4.37-12.73,4.69-25.93,2.84-31.87c-1.85-5.93-0.54-10.56-0.67-18.2c-0.11-6.84,3.63-45.33,6.35-52
			c2.72-6.67,8.9-22.73,0.99-36.08c-7.9-13.35-9.52-14.46-9.52-14.46s4.2-0.86,5.8-2.72c1.61-1.85,4.3-5.03,6.43-5.99
			c3.68-1.67,30.55-27.01,32.13-28.86C525.26,131.54,527.79,127.44,526.06,125.18z M73.53,148.79c-2.84,8.9-5.29,11.04-8.37,8.45
			c-3.09-2.59-6.11-5.25-11.04-11.05c-2.54-2.99-12.83-12.98-13.71-13.84c-0.86-0.86-3.24-4.42-1.11-7.04
			c2.1-2.58,11.95-12.84,14.84-16.7c2.46-3.27,6.99-11.85,11.02,0.75c1.96,6.16,5.53,13.13,6.15,15.19
			C71.3,124.57,76.37,139.89,73.53,148.79z M134.18,217.13c-0.48-0.58-0.9-1.09-1.21-1.48c-2.72-3.33-17.05-27.07-17.3-43.88
			c-0.25-16.81,6.3-23.98,16.68-35.47c0.72-0.8,1.32-1.61,1.83-2.42V217.13z M134.18,117.49c-2.01-4.04-4.72-6.93-5.31-7.52
			c-1.36-1.36-3.43-7.31-0.59-12.62c1.06-1.99,3.4-4.14,5.9-6.04V117.49z M400.17,267.54c0,31.98-19.52,61.46-48.57,73.36
			l-78.18,32.07c-0.3,0.12-0.62,0.19-0.94,0.19s-0.63-0.06-0.94-0.19l-78.62-32.11c-29.12-11.89-48.68-41.39-48.68-73.41V80.47
			c0-1.15,0.8-2.15,1.93-2.41c1.19-0.27,119.97-26.54,252.03-0.01c1.15,0.23,1.99,1.25,1.99,2.42v187.07H400.17z M411.16,91.51
			c2.4,1.85,4.61,3.91,5.64,5.84c2.84,5.31,0.77,11.26-0.59,12.62c-0.57,0.57-3.08,3.25-5.05,7.03V91.51z M412.11,215.65
			c-0.26,0.31-0.59,0.72-0.95,1.16V134.3c0.46,0.68,0.98,1.35,1.57,2.01c10.39,11.5,16.93,18.66,16.68,35.47
			C429.16,188.58,414.82,212.32,412.11,215.65z M504.67,132.36c-0.86,0.86-11.15,10.85-13.69,13.84c-4.94,5.8-7.95,8.45-11.04,11.05
			c-3.09,2.61-5.53,0.44-8.37-8.45c-2.84-8.9,2.22-24.23,2.22-24.23c0.62-2.06,4.19-9.03,6.15-15.19
			c4.03-12.62,8.57-4.04,11.02-0.75c2.89,3.85,12.74,14.1,14.84,16.7C507.91,127.92,505.54,131.49,504.67,132.36z"/>
		<path class="st1" d="M371.27,297.19h-16.13v-36.18c0-0.68-0.61-1.28-1.28-1.28h-8.06c-0.74,0-1.28,0.61-1.28,1.28v44.86
			c0,0.68,0.54,1.28,1.28,1.28h25.48c0.74,0,1.28-0.61,1.28-1.28v-7.38C372.55,297.79,372.01,297.19,371.27,297.19z"/>
		<path class="st1" d="M279.3,254.44h8.06c0.74,0,1.28-0.61,1.28-1.28v-25.28h0.06l26.76,26.9c0.14,0.14,0.68,0.33,0.88,0.33h1.09
			c0.68,0,1.28-0.54,1.28-1.22v-45.6c0-0.68-0.61-1.28-1.28-1.28h-8.13c-0.74,0-1.28,0.61-1.28,1.28v24.06h-0.06l-27.03-26.02h-1.69
			c-0.68,0-1.28,0.54-1.28,1.22l0.06,45.6C278,253.82,278.62,254.44,279.3,254.44z"/>
		<path class="st1" d="M242.25,157.19c4.14,0,9.08,3.73,9.69,4.06c0.61,0.47,1.83-0.14,2.31-0.88l3.46-5.21
			c0.27-0.47,0.41-1.69-0.41-2.17c-2.04-1.49-7.46-5.09-14.5-5.09c-10.43,0-15.66,6.78-15.66,13.48c0,8.13,7.32,12.67,13.15,14.98
			c4.61,1.83,6.98,4,6.98,6.84c0,2.37-1.96,4.06-4.68,4.06c-4.47,0-9.35-3.59-9.62-3.73c-0.47-0.33-1.77-0.47-2.31,0.41l-3.19,5.62
			c-0.54,0.95-0.33,1.22,0.33,1.9c1.56,1.56,6.43,5.22,15.25,5.22c9.97,0,15.99-7.05,15.99-14.03c0-9.21-8.4-13.35-13.68-15.45
			c-5.35-2.17-7.38-4.06-7.38-6.57C237.98,158.82,239.82,157.19,242.25,157.19z"/>
		<path class="st1" d="M211.18,73.9l184.03,184.03V82.49C324.37,68.54,257.57,69.8,211.18,73.9z M320.4,120.11
			c0.37,0.22,4.58,3.74,6.06,6.73c0.44,0.88,0.17-1.89,0.3-1.79c1.67,1.42,4.67,5.58,5.58,8.29c0.06,0.19,0.12-0.11,0.2-0.54
			c-0.89-2.17-1.64-4.27-1.95-5.64c-0.15-0.68,2.98,1.85,2.63,1.22c-1.88-3.43-3.3-8.13-3.16-11.11c0.01-0.22,2.56,2.62,2.07,1.36
			c-1.63-4.29-1.26-10.47-1.15-11.05c0.14-0.63,2.14,2.4,2.17,1.98c0.52-5.15,3.89-11.88,3.89-11.88h0.23c0,0,3.54,6.76,4.01,11.9
			c0.04,0.42,2.06-2.58,2.19-1.95c0.11,0.57,0.42,6.77-1.25,11.04c-0.49,1.26,2.09-1.57,2.09-1.33c0.1,3-1.37,7.68-3.27,11.09
			c-0.35,0.63,2.8-1.89,2.64-1.21c-0.32,1.4-1.1,3.53-2.04,5.74c0.06,0.33,0.11,0.53,0.17,0.37c0.91-2.69,3.91-6.87,5.58-8.29
			c0.12-0.11-0.14,2.67,0.3,1.78c1.49-2.99,5.71-6.51,6.06-6.73c0.41-0.23-0.23,2.32,0.01,2.14c3.01-2.27,9.11-4.31,9.11-4.31
			s-2.58,5.89-5.11,8.69c-0.21,0.23,2.41-0.17,2.14,0.21c-0.25,0.35-4.14,4.22-7.24,5.45c-0.91,0.36,1.86,0.35,1.75,0.46
			c-1.56,1.53-5.98,4.15-8.74,4.82c-0.2,0.05,0.12,0.15,0.56,0.26c1.48-0.41,3.05-0.65,3.94-0.62c0.11,0-1.3,1.28-0.67,1.04
			c2.12-0.83,5.87-0.67,6.15-0.62c0.31,0.06-1.19,1.07-0.98,1.09c2.57,0.23,6.58,2,6.58,2s-4,1.79-6.57,2.04
			c-0.21,0.02,1.3,1.01,0.98,1.09c-0.28,0.06-4.03,0.23-6.15-0.57c-0.63-0.23,0.79,1.03,0.68,1.04c-1.49,0.06-4.91-0.64-6.63-1.58
			c-0.16-0.09,0.1,0.3,0.35,0.67c0.88,0.43,1.67,0.93,2.09,1.3c0.06,0.06-1.42,0.14-0.93,0.3c1.7,0.56,3.89,2.52,4.04,2.69
			c0.16,0.2-1.25,0.06-1.14,0.17c1.43,1.42,3,4.5,3,4.5s-3.32-0.91-5.01-2.04c-0.14-0.09,0.27,1.26,0.05,1.15
			c-0.2-0.11-2.57-1.86-3.45-3.42c-0.26-0.46-0.04,1.01-0.11,0.96c-0.94-0.7-2.67-2.85-3.24-4.27c-0.1-0.26-0.11,1.31-0.28,1.1
			c-0.77-0.98-1.53-3.09-1.85-4.25h-0.07c-0.31,1.16-1.09,3.3-1.85,4.27c-0.17,0.21-0.17-1.36-0.28-1.1
			c-0.57,1.42-2.3,3.56-3.24,4.27c-0.07,0.05,0.15-1.42-0.11-0.96c-0.89,1.56-3.25,3.31-3.45,3.42c-0.22,0.11,0.2-1.23,0.05-1.15
			c-1.68,1.12-5.01,2.04-5.01,2.04s1.56-3.08,3-4.5c0.12-0.11-1.3,0.02-1.14-0.17c0.15-0.17,2.35-2.14,4.04-2.69
			c0.49-0.16-0.99-0.23-0.93-0.3c0.42-0.37,1.21-0.86,2.09-1.3c0.25-0.37,0.51-0.75,0.35-0.67c-1.7,0.93-5.14,1.64-6.63,1.58
			c-0.11,0,1.3-1.27,0.68-1.04c-2.12,0.82-5.87,0.63-6.15,0.57c-0.31-0.06,1.19-1.06,0.98-1.09c-2.56-0.26-6.57-2.04-6.57-2.04
			s4.01-1.77,6.58-2c0.21-0.02-1.28-1.03-0.98-1.09c0.28-0.06,4.03-0.21,6.15,0.62c0.63,0.25-0.78-1.04-0.67-1.04
			c0.89-0.02,2.46,0.22,3.94,0.62c0.43-0.11,0.75-0.21,0.56-0.26c-2.77-0.67-7.19-3.28-8.74-4.82c-0.11-0.11,2.67-0.1,1.75-0.46
			c-3.11-1.22-6.99-5.1-7.24-5.45c-0.27-0.38,2.33,0.02,2.14-0.21c-2.53-2.8-5.11-8.69-5.11-8.69s6.09,2.05,9.11,4.31
			C320.64,122.44,320.01,119.87,320.4,120.11z"/>
		<path class="st1" d="M149.16,267.45c0,30.03,18.33,57.71,45.6,68.84l77.7,31.72l66.91-27.44L149.16,150.37L149.16,267.45
			L149.16,267.45z M193.01,273.39c0.37,0.22,4.56,3.73,6.05,6.71c0.43,0.88,0.17-1.89,0.3-1.78c1.67,1.41,4.66,5.57,5.56,8.25
			c0.06,0.19,0.12-0.11,0.2-0.53c-0.89-2.17-1.64-4.26-1.94-5.62c-0.15-0.68,2.96,1.85,2.62,1.22c-1.86-3.42-3.28-8.09-3.16-11.08
			c0.01-0.22,2.54,2.61,2.07,1.35c-1.62-4.26-1.26-10.45-1.14-11.02c0.14-0.63,2.12,2.38,2.17,1.96c0.52-5.14,3.88-11.84,3.88-11.84
			h0.23c0,0,3.53,6.73,4,11.87c0.04,0.42,2.06-2.58,2.19-1.95c0.11,0.57,0.42,6.76-1.23,11c-0.48,1.25,2.07-1.56,2.09-1.33
			c0.1,2.99-1.37,7.66-3.26,11.05c-0.35,0.63,2.79-1.88,2.63-1.2c-0.32,1.4-1.1,3.52-2.03,5.72c0.06,0.33,0.11,0.53,0.17,0.37
			c0.91-2.69,3.9-6.84,5.56-8.25c0.12-0.1-0.14,2.65,0.3,1.78c1.48-2.98,5.68-6.48,6.05-6.71c0.39-0.23-0.23,2.32,0.01,2.14
			c3.01-2.26,9.08-4.3,9.08-4.3s-2.57,5.87-5.09,8.66c-0.21,0.23,2.4-0.17,2.12,0.21c-0.25,0.35-4.12,4.21-7.21,5.42
			c-0.91,0.36,1.86,0.35,1.74,0.46c-1.56,1.53-5.96,4.14-8.72,4.8c-0.2,0.05,0.12,0.15,0.56,0.26c1.48-0.41,3.05-0.65,3.93-0.62
			c0.11,0-1.28,1.27-0.67,1.04c2.11-0.82,5.84-0.67,6.12-0.61c0.31,0.06-1.17,1.06-0.98,1.09c2.56,0.23,6.56,2,6.56,2
			s-3.99,1.78-6.54,2.04c-0.21,0.02,1.28,1.01,0.98,1.07c-0.28,0.06-4.01,0.23-6.12-0.57c-0.63-0.23,0.78,1.03,0.67,1.03
			c-1.48,0.06-4.9-0.64-6.61-1.58c-0.16-0.09,0.1,0.3,0.35,0.67c0.86,0.43,1.65,0.93,2.09,1.3c0.06,0.06-1.42,0.14-0.93,0.3
			c1.69,0.56,3.88,2.51,4.03,2.69c0.16,0.2-1.25,0.06-1.14,0.17c1.43,1.42,2.99,4.48,2.99,4.48s-3.31-0.91-4.99-2.03
			c-0.14-0.09,0.27,1.26,0.05,1.15c-0.2-0.11-2.56-1.86-3.45-3.41c-0.26-0.46-0.04,1.01-0.11,0.96c-0.93-0.7-2.65-2.84-3.22-4.25
			c-0.1-0.26-0.11,1.31-0.28,1.1c-0.77-0.98-1.53-3.09-1.85-4.24h-0.07c-0.31,1.15-1.09,3.28-1.85,4.26
			c-0.17,0.21-0.17-1.36-0.28-1.1c-0.57,1.41-2.3,3.54-3.22,4.25c-0.07,0.05,0.15-1.42-0.11-0.96c-0.89,1.54-3.24,3.3-3.45,3.41
			c-0.22,0.11,0.2-1.23,0.05-1.15c-1.68,1.12-4.99,2.03-4.99,2.03s1.56-3.06,2.99-4.48c0.11-0.11-1.28,0.02-1.14-0.17
			c0.15-0.17,2.33-2.14,4.03-2.69c0.49-0.16-0.99-0.23-0.93-0.3c0.42-0.37,1.21-0.86,2.09-1.3c0.25-0.37,0.51-0.75,0.35-0.67
			c-1.7,0.93-5.12,1.63-6.61,1.58c-0.11,0,1.3-1.27,0.67-1.03c-2.12,0.8-5.85,0.63-6.14,0.57c-0.31-0.06,1.19-1.06,0.98-1.07
			c-2.56-0.26-6.54-2.04-6.54-2.04s4-1.75,6.56-2c0.21-0.02-1.28-1.03-0.98-1.09c0.28-0.06,4.01-0.21,6.12,0.61
			c0.62,0.25-0.78-1.04-0.67-1.04c0.89-0.02,2.45,0.22,3.93,0.62c0.43-0.11,0.75-0.21,0.56-0.26c-2.75-0.67-7.16-3.27-8.72-4.8
			c-0.11-0.11,2.65-0.1,1.74-0.46c-3.1-1.21-6.96-5.08-7.21-5.42c-0.27-0.38,2.33,0.02,2.12-0.21c-2.52-2.79-5.09-8.66-5.09-8.66
			s6.08,2.04,9.08,4.3C193.24,275.71,192.61,273.16,193.01,273.39z"/>
	</g>
</g>
</svg>
