<svg xmlns="http://www.w3.org/2000/svg" width="391" height="52" fill="none"><g fill="#00473B" clip-path="url(#a)"><path d="M301.14 22.918c-3.623-.69-5.165-1.788-5.165-3.53 0-1.574 1.365-2.775 3.186-2.775 1.644 0 3.112 1.099 4.756 3.502.548.791 1.031 1.164 1.644 1.164.483 0 1.199-.447 2.258-1.407 1.848-1.685 2.22-2.747.269-4.218-2.322-1.713-5.676-2.542-8.62-2.542-5.676 0-10.33 3.091-10.33 8.064 0 4.219 2.638 6.519 8.695 7.683 3.836.791 5.341 1.853 5.341 3.743 0 1.751-1.365 2.98-3.39 2.98-2.118 0-4.069-1.918-5.546-4.05-.613-.895-1.059-1.37-1.607-1.37-.715 0-1.468.792-2.294 1.649-1.784 1.816-2.462 2.85-.549 4.46 2.397 1.956 6.466 2.85 9.577 2.85 5.853 0 10.646-3.12 10.646-8.372 0-4.386-2.601-6.658-8.862-7.822zm26.947 9.498c-1.644 1.267-3.251 1.919-4.895 1.919-.994 0-2.053-.27-2.768-.82-.511-.345-.818-.717-.818-1.062 0-.27.205-.41.483-.586.688-.512 2.193-.997 3.66-1.341 1.338-.27 2.666-.512 3.864-.82 1.673-.41 2.564-1.34 2.564-2.85 0-4.115-4.068-7.645-9.103-7.645s-9.921 4.219-9.856 10.123c.065 5.587 4.617 9.806 10.163 9.806 3.418 0 6.911-1.676 8.722-4.181.613-.857.65-1.51 0-2.263-.65-.792-1.198-.857-2.016-.27zm-10.06-3.12c-.65 0-.957-1.443-.957-2.607 0-2.226 1.44-3.604 3.149-3.604s3.354 1.611 3.354 2.71c0 .55-.511.792-1.199 1.062-1.337.55-2.666 1.303-3.52 1.955-.381.242-.65.485-.818.485zm30.45 3.12c-1.644 1.267-3.251 1.919-4.896 1.919-.994 0-2.052-.27-2.768-.82-.511-.345-.817-.717-.817-1.062 0-.27.204-.41.483-.586.687-.512 2.192-.997 3.66-1.341 1.337-.27 2.666-.512 3.864-.82 1.672-.41 2.564-1.34 2.564-2.85 0-4.115-4.069-7.645-9.104-7.645s-9.92 4.219-9.855 10.123c.065 5.587 4.616 9.806 10.162 9.806 3.418 0 6.911-1.676 8.722-4.181.613-.857.651-1.51 0-2.263-.65-.792-1.198-.857-2.015-.27zm-10.06-3.12c-.651 0-.957-1.443-.957-2.607 0-2.226 1.44-3.604 3.149-3.604s3.353 1.611 3.353 2.71c0 .55-.511.792-1.198 1.062-1.338.55-2.666 1.303-3.521 1.955-.38.242-.65.485-.817.485zm33.933 6.445c-.79-.513-.994-1.062-.994-2.543V15.086c0-1.509-.483-2.058-1.812-2.058h-4.691c-1.3 0-1.811.689-1.811 1.471 0 .55.241.997.957 1.444 1.031.512 1.337 1.136 1.3 2.607v.447c0 .484-.167.717-.483.717-.241 0-.511-.065-.789-.14-.549-.102-1.505-.242-2.258-.242-5.675 0-9.716 4.703-9.716 10.672 0 5.178 3.39 9.052 7.97 9.052 1.951 0 3.418-.754 4.449-2.058.446-.512.92-.447 1.059.242.14.894.548 1.369 1.57 1.369h4.617c1.133 0 1.57-.69 1.57-1.471 0-.55-.242-.96-.957-1.407zm-7.051-4.6c0 1.918-1.198 3.054-2.805 3.054-2.536 0-4.171-3.12-4.171-6.24 0-2.849 1.505-4.935 3.697-4.972 1.988-.037 3.316 1.303 3.316 4.079zm20.046-4.424c-3.418-1.099-4.515-1.574-4.515-2.673 0-.959.892-1.676 2.016-1.676s2.295.615 3.558 1.75c1.133 1.025 1.746 1.547 2.22 1.547.446 0 .817-.27 1.096-.922.994-2.123.892-3.017-.613-4.014-1.161-.857-3.558-1.61-5.991-1.61-5.026 0-8.556 2.607-8.556 6.313 0 2.85 1.812 4.526 6.057 5.867 2.805.922 3.966 1.676 3.966 2.812 0 .894-.957 1.714-2.192 1.714-1.096 0-2.359-.615-3.836-2.059-1.097-.996-1.607-1.573-2.295-1.573s-1.031.586-1.3 1.303c-1.022 1.993-.892 3.092.408 4.014s3.763 1.611 6.67 1.648c5.239 0 8.927-2.57 8.927-6.481 0-2.878-1.747-4.703-5.648-5.932zM217.38 37.147c0-.55-.241-.96-.956-1.406-.818-.513-.994-1.062-.994-2.543l.037-11.426c0-1.508-.409-2.058-1.812-2.058h-4.207l-.511-.037c-1.264 0-1.784.689-1.784 1.471-.037.512.204.96.92 1.37 1.031.549 1.3 1.135 1.3 2.607V31.4c0 1.574-1.161 2.71-2.944 2.71-1.682 0-2.564-.996-2.536-2.747l.065-9.778c.037-1.341-.548-1.89-1.812-1.89h-4.245l-.483-.038c-1.133 0-1.607.69-1.607 1.472 0 .512.205.959.855 1.406.919.512 1.161 1.099 1.161 2.57v8.13c0 4.18 2.536 5.904 6.159 5.932 1.811.037 3.52-.792 4.486-2.198.381-.55.92-.382 1.059.168.242 1.033.585 1.443 1.57 1.443h4.654c1.133 0 1.607-.69 1.607-1.471zm.809-7.822c.065 5.587 4.616 9.805 10.162 9.805 3.418 0 6.911-1.676 8.722-4.18.613-.858.65-1.51 0-2.264-.65-.791-1.198-.857-2.016-.27-1.644 1.267-3.251 1.919-4.895 1.919-.994 0-2.053-.27-2.768-.82-.511-.345-.817-.717-.817-1.062 0-.27.204-.41.483-.586.687-.512 2.192-.997 3.659-1.341 1.338-.27 2.666-.512 3.865-.82 1.672-.41 2.563-1.34 2.563-2.85 0-4.115-4.068-7.645-9.103-7.645-5.034 0-9.92 4.219-9.855 10.123zm12.354-3.53c0 .55-.511.792-1.198 1.062-1.338.55-2.666 1.303-3.521 1.955-.381.242-.65.485-.817.485-.651 0-.957-1.444-.957-2.608 0-2.226 1.44-3.604 3.149-3.604s3.353 1.611 3.353 2.71zm8.035 3.53c.065 5.587 4.617 9.805 10.162 9.805 3.419 0 6.911-1.676 8.723-4.18.613-.858.65-1.51 0-2.264-.651-.791-1.199-.857-2.016-.27-1.644 1.267-3.251 1.919-4.895 1.919-.994 0-2.053-.27-2.769-.82-.51-.345-.817-.717-.817-1.062 0-.27.204-.41.483-.586.687-.512 2.192-.997 3.66-1.341 1.338-.27 2.666-.512 3.864-.82 1.672-.41 2.564-1.34 2.564-2.85 0-4.115-4.069-7.645-9.103-7.645-5.035 0-9.921 4.219-9.856 10.123zm12.354-3.53c0 .55-.51.792-1.198 1.062-1.338.55-2.666 1.303-3.52 1.955-.381.242-.651.485-.818.485-.65 0-.957-1.444-.957-2.608 0-2.226 1.44-3.604 3.149-3.604s3.354 1.611 3.354 2.71zm29.298 9.74c-.65-.549-1.059-1.47-1.263-2.774l-1.236-8.065c-.585-3.734-2.498-5.42-5.61-5.42-1.951 0-3.623.96-4.589 2.3-.344.485-.687.383-.818-.064-.306-1.267-.715-1.788-1.746-1.788h-4.003l-.483-.038c-1.134 0-1.607.69-1.607 1.472 0 .512.204.959.854 1.406.892.512 1.161 1.099 1.161 2.57v8.064c0 1.472-.204 2.021-.994 2.543-.715.447-.956.856-.956 1.406 0 .791.445 1.471 1.569 1.471h6.809c1.264 0 1.784-.717 1.784-1.508 0-.55-.27-.997-1.059-1.444-.892-.512-1.133-1.099-1.096-2.57v-6.76c0-1.202.956-2.021 2.322-2.021 1.505 0 2.462.856 2.666 2.774l.957 8.065c.269 2.542 1.44 3.464 3.864 3.464h2.972c.994 0 1.468-.614 1.468-1.406 0-.69-.306-1.201-.994-1.676zm-72.194 5.216c-.446-.177-.79-.103-1.069.382-.037.065-.083.14-.13.214 0 .018-.018.028-.028.046a3.9 3.9 0 0 1-1.374 1.257c-.019 0-.028.02-.047.028-.111.066-.241.121-.371.177-.038.019-.075.028-.103.047-.13.056-.269.102-.408.149-.028.01-.065.018-.093.028a8 8 0 0 1-.567.158c-.037 0-.074.019-.111.019a8 8 0 0 1-.753.12q-.25.03-.529.057c-.074 0-.158.009-.242.018-.26.019-.538.028-.826.028-2.155 0-4.338-.754-6.28-1.741h-.009c-2.592-1.332-4.747-3.083-5.834-4.051a.814.814 0 0 1 .056-1.267c1.589-1.173 4.896-4.283 4.896-9.87 0-7.888-5.815-13.55-13.72-13.55-7.32 0-13.033 5.662-13.033 12.935s5.75 13.167 13.618 13.167c1.189 0 2.146-.14 2.768-.26.483-.093.975.084 1.3.447l1.932 2.207c3.92 4.581 7.59 6.714 11.863 6.835 2.201.065 4.477-.205 6-1.276 2.88-2.16 4.023-5.904 3.103-6.304zm-23.297-7.068a1.75 1.75 0 0 1-1.96.717c-7.608-2.16-10.348-9.648-5.787-16.027a1.75 1.75 0 0 1 1.895-.689c7.589 1.946 10.292 9.443 5.852 15.999m-76.486-10.84c.511.484.789.857 1.096 1.648a168 168 0 0 0 5.573 13.27c.381.717.344 1.202-.269 1.714l-.158.14-.437.363-.353.298c-.706.54-1.625.922-2.666.633-.464-.13-.956-.298-1.393-.53-.604-.27-1.04-.112-1.588.595-.595.736-.734 1.37 0 2.189.761.875 2.47 2.197 4.012 2.728.019 0 .028.01.047.019.093.028.195.065.288.093l.306.084c3.419.763 5.825-2.505 6.865-4.293.074-.13.139-.27.214-.41.065-.13.139-.27.204-.41.093-.177.177-.354.269-.53l.279-.587c.093-.196.177-.382.269-.578.093-.205.186-.419.279-.633q.128-.279.242-.559c.139-.326.278-.652.418-.987.028-.074.065-.149.093-.223a148 148 0 0 0 4.245-11.697c.093-.297.185-.549.269-.782.223-.577.437-.959.66-1.257q.178-.222.371-.4c.548-.485.715-.922.715-1.444 0-.717-.548-1.369-1.542-1.369h-4.691c-.891 0-1.402.587-1.402 1.406 0 .718.511 1.24.919 1.612.892.717.892 1.303.586 2.365-.548 2.058-1.338 4.256-2.36 6.723-.139.345-.279.513-.436.513-.158 0-.316-.168-.493-.513 0 0 0-.018-.009-.028-.13-.27-.251-.54-.372-.8l-.139-.308c-.074-.167-.149-.326-.214-.493-.055-.13-.111-.252-.157-.382-.056-.13-.112-.26-.158-.382-.056-.14-.121-.289-.177-.428-.037-.084-.065-.177-.102-.261a48 48 0 0 1-.901-2.496s-.028-.084-.047-.13c-.111-.345-.223-.68-.325-1.024a.3.3 0 0 0-.037-.103c-.353-1.164-.576-1.704.585-2.468.753-.41 1.059-.754 1.059-1.369 0-.996-.548-1.443-1.848-1.443H109.2c-1.096 0-1.709.615-1.709 1.471 0 .55.241 1.034.752 1.407zm42.553-6.584c.919.512 1.161 1.136 1.161 2.57v14.612c0 1.47-.167 2.02-.994 2.542-.715.447-.957.857-.957 1.406 0 .791.483 1.471 1.607 1.471h6.772c1.161 0 1.644-.689 1.644-1.471 0-.55-.241-.96-.994-1.443-.817-.485-1.031-1.062-.994-2.543V15.188c0-1.303-.613-1.788-1.607-1.788h-4.895c-1.133-.037-1.57.69-1.607 1.444 0 .55.204.996.854 1.406zm-11.621 10.086c-.511 0-1.644-.27-3.112-.27-3.455 0-7.292 2.467-7.292 6.686s3.214 6.518 6.466 6.518c2.052 0 3.901-.512 5.443-1.573.483-.345.752-.373 1.235.037 1.134 1.033 2.36 1.443 3.865 1.443 1.783.065 3.186-.791 3.186-1.853 0-.55-.205-.96-.688-1.406-.789-.717-1.263-1.676-1.542-3.501l-.715-6.035c-.613-4.935-3.697-6.76-9.372-6.76-2.221 0-5.026.41-6.196.959-1.366.614-1.468 1.713-.548 4.013.446 1.034 1.059 1.406 2.09.792 1.44-.922 3.288-2.226 4.923-2.226 1.746 0 2.768 1.304 2.768 2.645 0 .382-.167.55-.511.55zm1.263 4.497.307 2.058c.242 1.509-.892 2.543-2.703 2.543-1.951 0-3.01-1.788-3.01-3.4 0-1.368.957-2.849 3.01-2.849 1.709 0 2.192.512 2.396 1.648M97.617 39.42c5.75 0 10.125-4.218 10.125-9.918s-4.208-10.122-9.819-10.122c-5.991 0-10.404 4.32-10.404 10.15s4.413 9.88 10.098 9.88zm-.892-16.017c2.6 0 4.821 4.46 4.821 8.334 0 2.263-1.263 3.707-3.01 3.707-2.6 0-4.82-4.46-4.82-8.13 0-2.402 1.263-3.911 3.009-3.911M63.517 35.918c-.716.381-.957.856-.957 1.406 0 .82.51 1.546 1.681 1.546h7.729c1.365.037 1.95-.652 1.95-1.472 0-.586-.241-1.061-1.059-1.443-1.198-.615-1.504-1.239-1.504-2.71v-3.157c0-.614.306-.82.854-.857 1.914-.065 3.084 1.1 4.273 3.53.65 1.303 1.133 2.57 1.57 3.669.79 1.816 1.607 2.44 3.595 2.44h4.106c1.235 0 1.746-.55 1.746-1.509 0-.857-.344-1.304-1.022-1.75-.817-.513-1.44-1.24-2.434-3.12l-.891-1.677c-.855-1.676-1.71-2.644-2.945-3.361-.344-.205-.27-.512.037-.69 2.601-1.368 4.552-3.119 4.552-6.108 0-4.424-3.353-6.929-7.905-6.929H64.195c-1.161 0-1.644.69-1.644 1.509-.038.587.204 1.034.891 1.443 1.06.587 1.338 1.202 1.338 2.673v13.894c0 1.471-.242 2.095-1.263 2.673m8.964-18.28h1.541c2.118 0 3.623 1.573 3.623 3.706s-1.848 3.846-4.486 3.846h-1.032c-.547 0-.752-.205-.752-.857l-.037-5.522c0-.857.204-1.164 1.133-1.164zM48.032 17.638c-.511-.857-1.56-2.021-2.75-2.962-.966-.763-1.997-1.685-2.499-2.207a.454.454 0 0 1-.037-.596l.167-.223a.505.505 0 0 0-.074-.68c-.622-.53-1.886-1.648-2.647-2.254-1.004-.8-2.936-2.15-3.363-2.924-.418-.754-.947-2.002-2.23-2.616-.37-.187-1.188-.69-2.145-.699-.948-.01-1.941.354-3.316.233-1.04-.093-2.518-.522-3.39-1.295-.15-.13-.39-.018-.372.177.037.42.13.978.4 1.444.064.102-.029.233-.15.205-.984-.242-3.836-1.118-4.904-3.148-.065-.12-.242-.102-.27.037-.167.801-.455 2.608-.065 4.033.038.12-.074.242-.195.223-.836-.112-3.39-.372-5.573.233-.13.037-.149.223-.028.28.214.102.52.25.743.549.065.084 0 .205-.102.195-1.012-.01-3.762.317-6.047 2.282-.065.056-.056.167.028.205 0 0 .223.093.4.177.26.13.101.326.055.353-1.17.69-5.49 3.493-7.71 8.447-2.424 5.4-2.146 9.768-1.514 12.99a.203.203 0 0 0 .325.121l.13-.102c.13-.121.316 0 .316.121-.037.754-.065 2.71.548 4.47.046.14.214.196.334.121l.446-.251c.13-.075.279.009.298.149.065.614.232 2.216 1.068 3.65a.175.175 0 0 0 .278.037l.242-.242c.102-.102.288-.074.344.065.557 1.332 3.725 7.068 10.487 7.916.167.018.27-.196.13-.307-.734-.596-2.415-1.919-2.991-2.468a.18.18 0 0 1 0-.261c.065-.056.14-.14.214-.214a.205.205 0 0 0-.028-.307c-.465-.326-1.719-1.304-2.471-2.748-.056-.102-.047-.279.093-.279h.204c.186-.028.195-.195.084-.344a6.2 6.2 0 0 1-.716-1.37c-.018-.055.047-.102.093-.065.548.494 2.09 2.105 4.431 2.738.167.047.288.252.344.373.371.754 1.728 3.185 4.264 5.736 3.26 3.269 7.867 4.628 10.236 4.936 1.254.167 3.976.288 4.71.39.074.01.195-.102.12-.25-.26-.56-1.393-2.087-3.715-2.757-.102-.028-.112-.177 0-.214.232-.084.409-.093.826-.382.14-.093.205-.26.028-.354-.64-.326-1.82-.94-2.517-1.471-.102-.075-.065-.233.056-.261.102-.028.223-.075.353-.121.27-.093.27-.335.046-.475-.752-.447-2.508-1.509-3.567-2.57-.436-.438-.371-.606-.195-.615.437-.018 1.533.14 2.48.307 1.802.326 4.645 1.23 6.66 3.195.13.12.335.102.419-.056l.26-.457c.093-.167.325-.186.455-.037.371.447 1.105 1.285 1.811 1.872.883.736 2.164 1.956 2.666 3.148.084.204.381.204.474 0 .297-.708.715-2.412.093-4.126a.305.305 0 0 1 .39-.4c.065.028.14.055.195.084.084.046.214-.02.204-.112-.111-.69-.538-2.496-1.876-3.995a.21.21 0 0 1 .037-.317c.074-.046.167-.112.26-.158a.24.24 0 0 0 .065-.373c-.25-.279-.678-.726-1.087-1.024-.093-.075-.037-.224.084-.205.697.102 1.69.447 3.149 1.294 1.142.671 2.23 1.993 2.722 2.58.167.196.538.037.483-.214-.316-1.304-.883-4.321-3.354-6.305a.091.091 0 0 1 .038-.158c.111-.018.278-.046.464-.074a.294.294 0 0 0 .195-.447c-.39-.587-1.375-1.565-3.01-2.515a.114.114 0 0 1 0-.195l.28-.168c.203-.13.203-.382.027-.484a65 65 0 0 0-2.508-1.378c-.102-.047-.12-.177-.056-.261l.14-.158c.13-.159.157-.354 0-.438a21 21 0 0 0-1.515-.764c-.826-.354-2.35-1.08-2.182-2.691.167-1.611 1.56-1.816 2.182-1.518.623.307 1.7 1.09 2.118 2.17.381.996.39 1.993 1.468 2.076 1.235.094 3.957-.744 4.784-1.685 1.105-1.257 1.03-2.57 1.114-3.325.084-.754.01-.968.437-1.285s.957-1.192 1.19-2.328c.24-1.136.473-1.732.9-2.216.502-.568.613-.894.102-1.76zm-26.298-9.88c.168-1.044 1.152-1.49 1.802-1.593.706-.112 1.329.074 2.453.558.594.261 1.57.587 2.387.634.214.009.418.102.492.298.13.363.28 1.033.13 1.713-.25 1.108-.947 1.471-1.189 1.388-.232-.084-.529-.578-.808-1.08-.27-.503-.799-1.323-1.31-1.863-.492-.521-.91-.82-1.486-.81-.501 0-1.384.14-1.746.81-.223.42-.26.96-.25 1.304 0 .102-.14.149-.196.056a2.04 2.04 0 0 1-.279-1.407zm3.094 5.922c-.168.195-.437.363-.771.046-.381-.363-.836-.82-1.17-1.648a4.7 4.7 0 0 1-.27-.875c-.019-.084.084-.13.14-.066.157.178.426.457.872.792.8.605 1.273.717 1.403.996.13.27-.046.569-.214.764zm-5.35-3.986c-.168.587-.623 1.77-.567 3.008.065 1.267.399 2.263.752 2.691.065.075.028.15-.074.14-.205-.019-.548-.047-.8-.242a.085.085 0 0 0-.139.084c.53 2.486 2.137 3.12 2.61 3.212.075.01.084.112.029.15-.586.353-1.208.25-1.515.176-.055-.009-.093.047-.055.093 1.402 2.05 2.898 2.468 4.208 2.57.093 0 .13.131.065.196-.381.326-.846.41-1.143.429-.065 0-.093.093-.028.13.279.14.79.4 1.56.96 1.069.772 1.338 1.685 1.431 2.057.01.047-.046.084-.083.047-.93-1.015-3.289-1.91-4.766-3.176-1.29-1.099-3-2.952-3.288-6.686-.241-3.157 1.124-5.16 1.598-5.923.13-.205.288-.158.223.066zm-9.364 32.36c.083.103-.047.243-.149.159-1.867-1.434-4.143-4.489-5.322-9.396-.966-4.023-.4-8.13.009-9.685.037-.13.223-.112.232.028.047 1.043.037 3.399.502 5.252.371 1.518 1.272 3.11 1.7 3.8.065.102-.047.223-.251.12 0 0-.483-.242-.818-.4-.13-.065-.269.056-.232.186.39 1.35 1.505 2.831 2.016 3.464.083.103-.01.252-.14.224l-.65-.15c-.111-.027-.204.085-.158.196.428.95 1.329 2.273 1.691 2.627.056.055.037.176-.065.167-.14-.01-.372-.074-.372-.074-.148-.047-.167.102-.102.27.53 1.322 1.43 2.44 2.109 3.222zm4.022-31.429c-.882 1.77-.864 3.13-.762 3.93.019.14-.148.233-.25.14-.54-.466-.855-1.043-1.004-1.36-.037-.074-.14-.074-.167 0-1.031 1.993-.66 4.768-.474 5.774.028.14-.139.242-.25.149a3.4 3.4 0 0 1-.994-1.192c-.038-.065-.13-.056-.149.018-.4 1.695.25 3.986.51 4.806a.122.122 0 0 1-.185.14 3.3 3.3 0 0 1-.827-.802.092.092 0 0 0-.167.056c.028 1.565.678 3.222.883 3.688.027.056-.028.121-.084.102a4 4 0 0 1-.418-.14.112.112 0 0 0-.149.122c.233 1.09.66 2.226 1.338 3.688.056.12-.102.214-.186.111-2.47-3.37-2.777-7.747-2.331-10.262.53-3.017 1.727-6.658 4.95-9.927 2.137-2.16 4.422-3.25 5.611-3.65.13-.047.205.14.093.205-1.263.726-3.957 2.365-4.979 4.414zm12.4 34.847c.14.075.103.28-.055.298-.26.028-.594.047-.966 0-.084-.01-.13.093-.074.15.455.427 1.839 1.461 3.13 2.03.149.064.084.223-.046.241-.27.028-.67.037-1.031 0-.056 0-.084.065-.047.103.92.82 1.793 1.406 3.14 1.88.12.047.074.224-.056.196-2.266-.344-3.539-1.21-5.239-2.635-4.598-3.855-8.407-10.402-9.716-14.862-1.264-4.303-1.133-7.245-.93-8.68.02-.12.252-.111.252.01.028 2.253.436 7.748 3.622 9.917a.28.28 0 0 1-.037.485 2.2 2.2 0 0 1-.743.214.068.068 0 0 0-.056.102c.316.475 1.617 2.608 3.13 3.427.215.112.187.428-.046.494a2.7 2.7 0 0 1-.455.102c-.065 0-.093.093-.046.14.427.428 1.895 1.825 3.325 2.514.167.084.13.335-.065.354a5 5 0 0 1-1.114-.01c-.066 0-.112.075-.066.122.558.577 2.36 2.393 4.153 3.399zm12.875-1.62c.038.074.038.233-.111.158a1.7 1.7 0 0 0-.353-.112c-.111-.018-.13.075 0 .335.437.941.576 1.965.604 2.617 0 .112-.149.14-.186.038-.873-2.412-3.67-6.258-6.65-8.382-3.252-2.318-6.838-3.203-10.377-6.881-2.582-2.692-3.204-5.094-3.381-6.24-.019-.14.177-.195.223-.065.502 1.322 1.551 3.464 3.502 5.252 1.542 1.416 4.635 2.86 5.601 3.288.13.056.158.242.037.335l-.195.149c-.046.037-.037.112.019.13.446.177 1.598.485 2.536.67.938.187 1.458.317 1.886.466.194.066.185.354-.02.4-.361.094-.742.215-1.012.308-.092.037-.083.168.019.196 2.657.521 4.533 2.17 5.248 2.896a.169.169 0 0 1-.13.288c-.27-.018-.51 0-.669.019-.074 0-.093.102-.037.14 1.58 1.08 3.084 3.194 3.474 4.004zM33.978 31.54c-.13.074-.25.149-.334.251-.111.121.065.159.176.186 1.793.475 3.224 1.09 3.697 1.444a.127.127 0 0 1-.018.214l-.307.168a.07.07 0 0 0 0 .12c2.22 1.1 3.084 2.096 3.326 2.478.037.065 0 .149-.084.149-.148 0-.353 0-.474.028-.12.028-.074.093-.046.12.325.29 1.69 1.342 2.573 2.87.056.092-.065.176-.158.073-.678-.763-1.988-1.974-3.39-3.063-1.106-.857-2.388-1.686-3.735-2.44-2.916-1.63-4.737-1.676-7.69-3.185-1.543-.791-2.546-1.806-3.001-2.412-.065-.093.046-.205.13-.13.64.493 1.83 1.387 2.768 1.788 1.654.708 2.703.884 4.31.791.873-.046 1.589.084 1.979.233.343.13.371.27.27.326zm10.005-5.308c-.242.81-.79 1.546-1.134 1.76-.241.149-.613.028-.622-.196 0-.102.01-.381.028-.624 0-.149-.177-.232-.279-.12-.176.176-.4.381-.566.511a3 3 0 0 1-.344.233.49.49 0 0 1-.585-.056c-.177-.167-.4-.419-.585-.698-.316-.494-.4-.717-.27-.903s.437-.168.808-.14c1.069.065 1.895-.168 2.573-.596.279-.177.595-.419.836-.596.177-.13.418-.112.39.149-.046.345-.092.754-.26 1.294zm2.87-7.804c-.334-.01-.929-.018-1.384 0a8 8 0 0 0-1.208.168.69.69 0 0 1-.566-.14c-.27-.224-.688-.568-1.04-.866-.186-.158-.493-.047-.39.26.12.383.287.83.529 1.183.501.755 1.57 1.127 1.904 1.258.334.13.854.353.78 1.052-.074.708-.176 1.5-1.189 1.872-1.077.4-2.22.763-2.656.903-.437.14-1.162.289-1.942.168-.418-.066-.845-.177-1.226-.41-.195-.112-.12-.363.074-.354.53.01 1.254-.047 1.886-.186 1.078-.233 1.653-.587 1.95-.848.056-.046.01-.13-.055-.12-.622.102-2.378.316-4.022-.336-.019 0-.019-.028 0-.047.148-.12.734-.642.585-1.406-.176-.884-1.895-2.654-4.394-2.793-2.972-.168-4.607 1.462-4.876 1.769-.019.018-.047 0-.047-.019-.01-.39 0-2.533 1.412-4.097 1.607-1.797 3.149-1.993 3.846-1.75.548.195 2.136.875 2.88 1.014.622.112 1.448.168 1.922.391.604.289.892.708 1.031.792.13.084.437.093.353-.112-.14-.354-.743-1.145-.994-1.397-.25-.251-.483-.661-.474-1.07s.121-.764-.185-1.062c-.316-.298-.92-.261-1.82-.121-.893.13-2.305.456-2.704.279-.4-.177-1.189-1.07-1.523-1.9-.335-.828-.511-1.49.148-2.43.678-.978 1.226-1.257 1.542-1.192.409.074 1.7 1.248 2.582 1.825.502.326 2.546 1.602 3.335 2.29.13.113.168.299.093.457-.037.084-.083.168-.12.26a.47.47 0 0 0 .055.466c.409.475 1.542 1.742 2.657 2.645 1.18.969 2.963 2.198 3.437 3.353.046.12-.047.251-.167.242z"/></g><defs><clipPath id="a"><path fill="#fff" d="M0 0h391v52H0z"/></clipPath></defs></svg>