<svg xmlns="http://www.w3.org/2000/svg" id="Layer_1" version="1.1" viewBox="0 0 270.4 80"><defs><clipPath id="clippath"><path d="M0 0h270.4v80H0z" style="fill:none"/></clipPath><style>.st1{fill:#199644}.st2{fill:#0f2000}</style></defs><g style="clip-path:url(#clippath)"><path d="M114.2 70c0 5.5-4.5 10-10 10s-10-4.5-10-10 4.5-10 10-10 10 4.5 10 10M132.7 60c-5.5 0-10 4.5-10 10s4.5 10 10 10 10-4.5 10-10-4.5-10-10-10M161.1 60c-5.5 0-10 4.5-10 10s4.5 10 10 10 10-4.5 10-10-4.5-10-10-10" class="st1"/><path d="M4.1 24.2c2.3 4.3 6.6 6.5 11 6.5S22 29.1 22 26s-1.9-3.4-4.6-4.1l-7.1-1.6c-4.9-1.1-8.7-3.8-8.7-9.7C1.6 4.3 6.6-.1 14-.1s10.8 2.8 13.5 6.7l-4.3 4.6C21.5 8 18.5 5.7 14 5.7s-5.9 1.7-5.9 4.6 1.9 3.3 4.4 3.9l6.5 1.6c6 1.4 9.5 4.2 9.5 10.1S22.6 36.5 15 36.5c-6.6 0-12.1-2.7-15.1-7.1L4 24.3ZM55 20.9c-.2-3-2.2-5.7-6-5.7s-6 2.5-6.6 5.7zm6.3 8.4c-1.8 4.7-6.1 7.1-12.2 7.1s-13.5-5.1-13.5-12.6S41.3 10.5 49 10.5s12.4 5.7 12.4 12.1v1.8H42.2c0 4.2 3 7 7.1 7s5.5-1.3 6.6-4.1l5.3 1.9ZM88.2 20.9c-.2-3-2.2-5.7-6-5.7s-6 2.5-6.6 5.7zm6.3 8.4c-1.8 4.7-6.1 7.1-12.2 7.1s-13.5-5.1-13.5-12.6 5.7-13.3 13.4-13.3 12.4 5.7 12.4 12.1v1.8H75.4c0 4.2 3 7 7.1 7s5.5-1.3 6.6-4.1l5.3 1.9ZM121.5 22.9c0-4.5-2.9-7.4-6.6-7.4s-6.8 3.3-6.8 7.9 2.5 7.9 6.8 7.9 6.6-2.9 6.6-7.4v-1.1Zm-.2 7.9c-1.3 3.2-4.1 5.5-8.5 5.5-7.2 0-11.5-5.7-11.5-12.9s4.3-12.9 11.5-12.9 7.2 2.3 8.5 5.5V.7h6.7v35h-6.7v-4.8ZM139.3 27.5c1.7 2.7 5.6 4.2 9.2 4.2s5.6-.8 5.6-2.7-1.2-2.2-3.4-2.5l-5.9-1.1c-4.8-.8-8.2-3-8.2-7.3s4.5-7.6 10.9-7.6 9.6 1.8 12 4.9l-4.1 3c-1.7-2.2-4.5-3.4-7.9-3.4s-4.7.9-4.7 2.5.9 2 2.9 2.4l7.3 1.4c4.2.8 7.4 2.9 7.4 6.9s-4.8 7.9-11.9 7.9-11-1.9-13.5-5.5l4.3-3.3ZM173.5 35.7h-5.8V11.2h5.8v4.9c.7-3 2.7-5.6 6-5.6s4.9 2.2 5.4 5.4c.8-2.9 3-5.4 6.3-5.4s5.5 3 5.5 7.3v17.9h-5.8V20c0-2.4-.4-4.4-2.6-4.4s-3.2 2.9-3.2 6.2v13.8h-5.8V19.9c0-2.4-.4-4.4-2.6-4.4s-3.2 2.9-3.2 6.2v13.8ZM220.1 23.2l-5.7 1.4c-2.7.7-4.6 1.7-4.6 3.8s1.3 3.1 3.4 3.1c3.5 0 6.8-2.5 6.8-5.9v-2.4Zm-15.9-5.6c1.7-4.1 5.8-7.1 12.2-7.1s9.9 2.4 9.9 8.2v10.7c0 1.5 1 2.2 2.1 2.2s2.2-.5 2.8-1.1l.4 4.2c-1.7 1.1-3.3 1.6-5.1 1.6-3.4 0-6.1-2.2-6.5-5.1-1.3 2.9-4.7 4.9-8.9 4.9s-7.9-2.6-7.9-7 3.9-6.2 9-7.4l7.7-1.9v-1.3c0-1.9-1.2-3.1-4-3.1s-5.4 1.8-6 3.9l-5.8-1.7ZM245 35.7h-6.7V11.2h6.7v4.6c1.2-2.9 4.6-5.3 8.6-5.3 6.6 0 9.3 4.4 9.3 9.9v15.3h-6.7V21.8c0-3.8-1.8-5.9-5.2-5.9s-6 2.9-6 7.2v12.7ZM265.1 14.1v-2.7h-.8V11h2.3v.4h-.8v2.7h-.5ZM267.5 10.9h.4l.9 2 .9-2h.4V14h-.4v-2l-.7 1.5h-.3L268 12v2h-.4v-3.1Z" class="st2"/></g></svg>